<?xml version="1.0" encoding="UTF-8" standalone="no"?>
<!DOCTYPE svg  PUBLIC '-//W3C//DTD SVG 1.1//EN'  'http://www.w3.org/Graphics/SVG/1.1/DTD/svg11.dtd'>
<svg xmlns="http://www.w3.org/2000/svg">
<defs>
<font id="ArianAMU-Bold" horiz-adv-x="1229">
<font-face underline-position="-142" font-weight="700" descent="-410" panose-1="1 0 0 0 0 0 0 0 0 0" units-per-em="2048" unicode-range="U+000D-2122" bbox="-191 -427 2160 1970" x-height="1062" underline-thickness="150" font-family="ArianAMU" ascent="1638" cap-height="1466"/>
<missing-glyph horiz-adv-x="2048"/>
<glyph glyph-name=".notdef" horiz-adv-x="2048"/>
<glyph glyph-name="glyph1" horiz-adv-x="2048"/>
<glyph glyph-name="glyph1" horiz-adv-x="2048"/>
<glyph glyph-name="uni000D" horiz-adv-x="2048" unicode=""/>
<glyph glyph-name="space" horiz-adv-x="586" unicode=" "/>
<glyph glyph-name="exclam" horiz-adv-x="603" unicode="!" d="M157 0v284h288v-284h-288zM150 1083v383h303v-383l-58 -689h-185z"/>
<glyph glyph-name="quotedbl" horiz-adv-x="898" unicode='&quot;' d="M510 1196v270h288v-270l-49 -299h-189zM100 1196v270h288v-268l-47 -301h-189z"/>
<glyph glyph-name="numbersign" horiz-adv-x="1260" unicode="#" d="M523 597h164l46 232h-164zM100 364v233h182l46 232h-228v233h272l86 426h240l-83 -426h162l85 426h242l-83 -426h139v-233h-185l-45 -232h230v-233h-276l-77 -386h-240l75 386h-163l-76 -386h-241l75 386h-137z"/>
<glyph glyph-name="dollar" horiz-adv-x="1225" unicode="$" d="M721 252q38 10 67 30q34 22 52.5 54t18.5 77q0 60 -32.5 98t-86.5 63l-19 8v-330zM405 1068q0 -52 32 -84t86 -55l20 -8v294q-39 -10 -69 -29q-33 -20 -51 -49.5t-18 -68.5zM100 1053q0 100 34.5 174.5t94.5 126t140.5 82t173.5 43.5v123h178v-115q99 -2 183 -13t150 -25 v-280q-80 20 -150 34.5t-146 20.5l-37 2v-357q52 -13 105.5 -30t102.5 -41.5t92 -58.5t75 -80.5t50.5 -107t18.5 -138.5q0 -93 -32 -166t-90.5 -126t-140 -86.5t-181.5 -46.5v-199h-178v192q-57 2 -116.5 9t-115.5 17t-105 22.5t-83 24.5v281q44 -17 94.5 -33t104.5 -29.5 t110 -22.5t111 -11v398l-64 18q-71 21 -139 48.5t-121.5 72t-86 111.5t-32.5 166z"/>
<glyph glyph-name="percent" horiz-adv-x="1629" unicode="%" d="M1080 361q0 -64 9.5 -106t27 -67.5t42 -36t53.5 -10.5t52.5 10.5t40 36t25.5 67.5t9 106t-9 106t-25.5 67.5t-40 36t-52.5 10.5t-53 -10.5t-41.5 -36t-27.5 -67.5t-10 -106zM881 361q0 76 16.5 145.5t55 122.5t102 84.5t157.5 31.5t155 -31.5t97 -84t50.5 -122.5 t14.5 -146q0 -77 -14.5 -146t-50.5 -122t-97 -84t-155 -31t-157.5 31.5t-102 84t-55 122t-16.5 145.5zM299 1104q0 -64 9.5 -106t27 -67.5t42 -36t53.5 -10.5t52.5 10.5t40 36t25.5 67.5t9 106t-9 106t-25.5 67.5t-40 36t-52.5 10.5t-53 -10.5t-41.5 -36t-27.5 -67.5 t-10 -106zM171 -22l1073 1510h211l-1073 -1510h-211zM100 1104q0 76 16.5 145.5t55 122.5t102 84.5t157.5 31.5t155 -31.5t97 -84t50.5 -122.5t14.5 -146q0 -77 -14.5 -146t-50.5 -122t-97 -84t-155 -31t-157.5 31.5t-102 84t-55 122t-16.5 145.5z"/>
<glyph glyph-name="ampersand" horiz-adv-x="1453" unicode="&amp;" d="M95 441q0 55 12 107.5t38 97.5t67.5 81t100.5 57q-33 17 -62.5 44t-51.5 62.5t-35 77t-13 88.5q0 104 34 184.5t99.5 135.5t161 83.5t217.5 28.5q117 0 215 -11.5t173 -25.5v-273q-98 26 -191 38t-198 12q-109 0 -164.5 -42.5t-55.5 -134.5q0 -70 55 -112t161 -42h28 v-263h-28q-76 0 -128 -12.5t-84 -37t-46 -60.5t-14 -83t19 -87t55 -69t89 -45.5t122 -16.5q138 0 208 54t70 149v208h-80v263h541v-263h-176v-208q0 -109 -42.5 -192.5t-117.5 -140.5t-178.5 -86t-224.5 -29q-122 0 -227.5 31.5t-183 91t-121.5 145.5t-44 195z"/>
<glyph glyph-name="quotesingle" horiz-adv-x="488" unicode="&apos;" d="M100 1192v274h288v-274l-49 -295h-190z"/>
<glyph glyph-name="parenleft" horiz-adv-x="648" unicode="(" d="M50 539q0 119 19.5 240.5t57.5 240t94.5 231.5t130.5 215h274q-61 -88 -115.5 -192.5t-95.5 -222t-65 -246.5t-24 -266t24 -269t65 -253.5t95.5 -228.5t115.5 -195h-274q-74 102 -130.5 218t-94.5 238t-57.5 246.5t-19.5 243.5z"/>
<glyph glyph-name="parenright" horiz-adv-x="648" unicode=")" d="M-19 -407q61 88 115.5 195t95.5 228.5t65 253.5t24 269t-24 266t-65 246.5t-95.5 222t-115.5 192.5h274q74 -102 130.5 -215t94.5 -231.5t57.5 -240t19.5 -240.5t-19.5 -243.5t-57.5 -246.5t-94.5 -238t-130.5 -218h-274z"/>
<glyph glyph-name="asterisk" horiz-adv-x="858" unicode="*" d="M50 1122l74 234l200 -86l-16 218h242l-16 -218l203 83l71 -233l-210 -50l147 -171l-199 -143l-115 186l-108 -188l-201 144l144 173z"/>
<glyph glyph-name="plus" horiz-adv-x="1031" unicode="+" d="M15 590v241h347v344h258v-344h349v-241h-349v-347h-258v347h-347z"/>
<glyph glyph-name="comma" horiz-adv-x="558" unicode="," d="M122 -172q54 24 77 71.5t23 100.5h-87v284h288v-235q0 -127 -52 -218.5t-161 -141.5z"/>
<glyph glyph-name="hyphen" horiz-adv-x="655" unicode="-" d="M50 399v263h555v-263h-555z"/>
<glyph glyph-name="period" horiz-adv-x="558" unicode="." d="M135 0v284h288v-284h-288z"/>
<glyph glyph-name="slash" horiz-adv-x="638" unicode="/" d="M0 0l418 1466h220l-420 -1466h-218z"/>
<glyph glyph-name="zero" d="M380 722q0 -55 2.5 -114.5t11 -116t24.5 -107.5t42 -89t63.5 -60.5t89.5 -22.5t90 22.5t64 60.5t42 89t24.5 107.5t11.5 116t3 114.5t-3 116t-11.5 120t-24.5 112.5t-42 94t-64 64.5t-91 24t-90.5 -24t-63.5 -64.5t-41.5 -94t-23.5 -112.5t-10.5 -119.5t-2.5 -116.5z M104 722q0 85 7 175t27 175t55.5 160.5t92 132.5t137 90t190.5 33t190.5 -34t137.5 -91.5t92.5 -134t55.5 -161.5t27.5 -174t7.5 -171t-7.5 -169t-27.5 -170t-55.5 -156.5t-92.5 -128.5t-137.5 -87.5t-190.5 -32.5t-190.5 31.5t-137 85.5t-92 126.5t-55.5 155t-27 171 t-7 174.5z" unicode="0"/>
<glyph glyph-name="one" d="M353 1227v239h466v-1466h-265v1227h-201z" unicode="1"/>
<glyph glyph-name="two" d="M150 0v210q154 130 273 237.5t200 204t122.5 186.5t41.5 184q0 67 -18 111t-49 70.5t-72.5 37.5t-87.5 11q-41 0 -80.5 -3.5t-81.5 -11t-87 -20t-97 -30.5v253q69 18 160.5 33t199.5 15q235 0 361.5 -117.5t126.5 -346.5q0 -110 -41.5 -214t-111.5 -201.5t-160.5 -188 t-188.5 -172.5h480v-248h-890z" unicode="2"/>
<glyph glyph-name="three" d="M177 33v250q34 -12 82 -24.5t98 -22.5t97 -16t81 -6q54 0 101.5 8.5t83.5 32.5t57 66.5t21 109.5t-19.5 111.5t-50 70.5t-68 37t-73.5 11h-127v236h124q36 0 66.5 12.5t53 35.5t35 57t12.5 76t-15.5 75t-43 55t-66 33.5t-83.5 11.5q-38 0 -80 -3.5t-85 -11t-83.5 -18 t-75.5 -23.5v250q41 10 87 17.5t92 13t89.5 8t80.5 2.5q97 0 179.5 -27.5t143.5 -79.5t95.5 -126t34.5 -168q0 -101 -38.5 -175t-106.5 -115q103 -51 151 -144t48 -221q0 -123 -43.5 -209t-117.5 -140t-172 -78.5t-207 -24.5q-38 0 -84 4t-94 11t-94.5 17t-85.5 21z" unicode="3"/>
<glyph glyph-name="four" d="M391 566h316v446q-12 -20 -23 -36t-22 -30q-37 -45 -75 -94.5t-73.5 -99.5t-67 -97.5t-55.5 -88.5zM82 319v209q63 119 145.5 241.5t176 243t194 235.5t198.5 218h176v-900h137v-247h-137v-319h-265v319h-625z" unicode="4"/>
<glyph glyph-name="five" d="M165 45v257q47 -24 96 -40.5t96 -27t90.5 -15.5t79.5 -5q56 0 106.5 16t89 49.5t61 85t22.5 122.5q0 107 -50 167t-145 60q-61 0 -110 -26t-84 -87h-241q0 60 4 132t10.5 149.5t15.5 157.5t19 156.5t21.5 145t22.5 124.5h760v-248h-543q-6 -29 -12 -69t-11 -82.5 t-8.5 -84t-5.5 -72.5q38 18 88 28.5t106 10.5q51 0 103.5 -10t102 -32.5t92.5 -58t75.5 -87t51 -119.5t18.5 -155q0 -124 -43.5 -219t-119.5 -159t-179.5 -96.5t-222.5 -32.5q-38 0 -82 4t-90.5 12t-93.5 20t-90 29z" unicode="5"/>
<glyph glyph-name="six" d="M102 677q0 208 48.5 361t132 253t195.5 148.5t239 48.5q35 0 68 -1.5t66.5 -5t68 -10.5t72.5 -17v-252q-72 32 -134.5 41.5t-110.5 9.5q-81 0 -151 -28.5t-121 -96t-80 -178.5t-29 -276q0 -98 15 -181.5t48 -144t85 -95t126 -34.5q48 0 88 16.5t69 49.5t45 81.5t16 113.5 q0 51 -15 94t-44 73.5t-70.5 47.5t-95.5 17q-59 0 -112.5 -24.5t-94.5 -73.5q-1 14 -1 28v30q0 59 4.5 118t13.5 107q38 22 94.5 36.5t129.5 14.5q105 0 192 -33t148.5 -94t95.5 -147.5t34 -192.5q0 -121 -39.5 -215t-107.5 -158t-158.5 -97t-192.5 -33q-101 0 -197 34 t-172 115t-122 215.5t-46 334.5z" unicode="6"/>
<glyph glyph-name="seven" d="M134 1218v248h936v-213q-60 -87 -120 -184.5t-115.5 -201t-104.5 -212.5t-87.5 -219.5t-63.5 -220t-32 -215.5h-294q15 147 63.5 308t119 321t156 311t173.5 278h-631z" unicode="7"/>
<glyph glyph-name="eight" d="M415 1083q0 -87 54 -133.5t146 -46.5q91 0 145 46.5t54 133.5q0 85 -54 127.5t-145 42.5q-92 0 -146 -42.5t-54 -127.5zM370 440q0 -58 17.5 -100.5t50 -71t77.5 -42.5t100 -14t100 14t77.5 42.5t50 71t17.5 100.5t-18.5 101t-51.5 71t-78 42t-97 14q-50 0 -94.5 -14 t-78 -42t-53 -71t-19.5 -101zM100 441q0 65 14.5 121.5t41.5 102.5t64 80t82 53q-80 47 -118.5 120t-38.5 164q0 94 37.5 169.5t101.5 128t149.5 80.5t180.5 28t180 -28t149 -80.5t101.5 -128t37.5 -169.5q0 -89 -40.5 -163.5t-115.5 -123.5q42 -18 79.5 -51t65 -79 t43.5 -102.5t16 -121.5q0 -116 -41.5 -203t-112 -144.5t-164 -86.5t-197.5 -29t-197.5 29t-164 86.5t-112 144.5t-41.5 203z" unicode="8"/>
<glyph glyph-name="nine" d="M86 985q0 121 39.5 215t107.5 158t158.5 97t192.5 33q67 0 133 -14.5t125.5 -48t110.5 -87t88.5 -131t58.5 -181.5t21 -237q0 -209 -48.5 -361.5t-132 -252.5t-195.5 -148.5t-239 -48.5q-35 0 -68 1.5t-66.5 5t-68 10t-72.5 17.5v252q72 -32 134.5 -41.5t110.5 -9.5 q81 0 151 28.5t121 96t80 178.5t29 276q0 98 -15.5 181.5t-48.5 144t-85 95t-125 34.5q-48 0 -88 -16.5t-69 -49.5t-45 -82t-16 -113q0 -51 15 -94t44 -73.5t70.5 -47.5t95.5 -17q59 0 112.5 24.5t94.5 73.5q1 -14 1 -29v-29q0 -59 -4.5 -118t-13.5 -107 q-38 -22 -94.5 -36.5t-130.5 -14.5q-105 0 -191.5 33t-148 94t-95.5 147t-34 193z" unicode="9"/>
<glyph glyph-name="colon" horiz-adv-x="558" unicode=":" d="M135 778v284h288v-284h-288zM135 0v284h288v-284h-288z"/>
<glyph glyph-name="semicolon" horiz-adv-x="558" unicode=";" d="M135 778v284h288v-284h-288zM122 -172q54 24 77 71.5t23 100.5h-87v284h288v-235q0 -127 -52 -218.5t-161 -141.5z"/>
<glyph glyph-name="less" horiz-adv-x="1112" unicode="&lt;" d="M66 601v212l955 421v-273l-597 -255l597 -259v-271z"/>
<glyph glyph-name="equal" horiz-adv-x="1153" unicode="=" d="M100 782v251h953v-251h-953zM100 379v250h953v-250h-953z"/>
<glyph glyph-name="greater" horiz-adv-x="1112" unicode="&gt;" d="M91 176v272l596 258l-596 255v273l955 -421v-212z"/>
<glyph glyph-name="question" horiz-adv-x="995" unicode="?" d="M289 0v284h288v-284h-288zM80 1192v259q69 14 160 25.5t195 11.5q127 0 219.5 -28t152.5 -79t88.5 -122t28.5 -156q0 -66 -15 -117.5t-39.5 -93.5t-56 -78t-64.5 -70t-64.5 -68.5t-57 -75t-41.5 -89t-17 -109.5h-269q0 90 26 162.5t65.5 132.5t85.5 110.5t85.5 97 t65.5 92t26 95.5q0 52 -20.5 83t-53 47.5t-73.5 22t-82 5.5q-94 0 -178 -15.5t-167 -42.5z"/>
<glyph glyph-name="at" horiz-adv-x="1939" unicode="@" d="M684 431q0 -51 8.5 -91t27 -68t48.5 -43t73 -15q61 0 109.5 33t82 90t51.5 132.5t18 160.5q0 108 -41 164t-119 56q-51 0 -97.5 -27t-82.5 -80.5t-57 -131.5t-21 -180zM66 523q0 150 35 280t98.5 237.5t151.5 190.5t193.5 140.5t225.5 87t247 29.5q187 0 339.5 -59 t261 -164.5t168 -252.5t59.5 -322q0 -91 -17.5 -179t-50 -167t-80.5 -146t-109.5 -116t-135 -76.5t-158.5 -27.5q-75 0 -128.5 25.5t-82.5 74.5q-115 -100 -287 -100q-79 0 -150 30t-125 88.5t-85.5 145.5t-31.5 202q0 138 39.5 255t110 202.5t168.5 134t216 48.5 q69 0 131 -20t111 -65l13 63h275l-165 -779q-1 -4 -2.5 -14.5t-1.5 -21.5q0 -20 12 -26t38 -6q60 0 114.5 34.5t96 97.5t66 151.5t24.5 196.5q0 146 -45.5 262t-129 196.5t-200 123.5t-258.5 43q-123 0 -227 -30.5t-188 -85t-148 -129.5t-107 -164t-65 -188t-22 -202 q0 -190 52 -334.5t149.5 -242.5t238.5 -148t320 -50q130 0 235.5 23t191 66t152.5 103.5t121 135.5h202q-74 -136 -179.5 -231t-226.5 -155t-250 -87.5t-249 -27.5q-137 0 -261 27.5t-229.5 81.5t-191 134t-145 185.5t-92 236t-32.5 285.5z"/>
<glyph glyph-name="A" horiz-adv-x="1473" unicode="A" d="M0 0q22 104 56 228t77 256.5t92.5 268t101.5 264t104.5 243.5t101.5 206h407q49 -91 102 -206.5t105 -243.5t101.5 -264t92 -268.5t76.5 -256.5t56 -227h-288q-13 59 -32 132t-43 154t-53 169t-62 179h-434q2 6 9.5 26.5t17.5 48.5t21.5 59.5t21.5 59t17.5 47t9.5 22.5 h239q-32 80 -64.5 157t-66.5 151h-60q-45 -100 -89.5 -208t-86 -217.5t-79 -218t-69 -209t-55.5 -190.5t-39 -162h-288z"/>
<glyph glyph-name="B" horiz-adv-x="1359" unicode="B" d="M435 261h291q130 0 201 43.5t71 136.5q0 56 -18 95t-52.5 61.5t-85.5 31.5t-116 9h-211v255h211q101 0 158.5 39.5t57.5 118.5q0 49 -15.5 85t-44.5 57t-69.5 30t-90.5 9q-106 0 -176 -7q-54 -5 -91 -5h-20v-959zM150 0v1466q142 0 285.5 11t285.5 11q126 0 221.5 -29 t160 -83t97.5 -131t33 -173q0 -43 -9.5 -86t-29 -81.5t-50.5 -70t-73 -50.5q51 -16 91.5 -48.5t68.5 -77.5t43 -100.5t15 -116.5q0 -112 -42.5 -195t-118 -137.5t-178.5 -81.5t-224 -27h-576z"/>
<glyph glyph-name="C" horiz-adv-x="1261" unicode="C" d="M70 733q0 165 40.5 304t125 239t215 156t311.5 56q120 0 221 -11t178 -28v-280q-52 15 -100.5 26t-97 18.5t-98 11t-103.5 3.5q-197 0 -297 -119.5t-100 -375.5q0 -134 26 -228t76.5 -153t125.5 -86.5t174 -27.5q85 0 180 11.5t214 43.5v-273q-77 -19 -171.5 -30.5 t-222.5 -11.5q-180 0 -311.5 49.5t-217 145.5t-127 236.5t-41.5 323.5z"/>
<glyph glyph-name="D" horiz-adv-x="1456" unicode="D" d="M435 265h251q104 0 178.5 23.5t122.5 77t71 138.5t23 208q0 260 -93.5 388t-295.5 128q-35 0 -76 -2t-78 -4.5t-65.5 -4.5t-37.5 -2v-950zM150 0v1465q55 0 120 3.5t135 8t143 8t144 3.5q181 0 311 -56.5t212.5 -158t121.5 -241.5t39 -307q0 -175 -37 -310t-119 -227.5 t-213.5 -140t-320.5 -47.5h-536z"/>
<glyph glyph-name="E" horiz-adv-x="1295" unicode="E" d="M150 0v1466h1024v-261h-739v-308h652v-263h-652v-369h760v-265h-1045z"/>
<glyph glyph-name="F" horiz-adv-x="1233" unicode="F" d="M150 0v1466h1023v-261h-738v-308h652v-263h-652v-634h-285z"/>
<glyph glyph-name="G" horiz-adv-x="1484" unicode="G" d="M80 733q0 165 41 304t127 239t219 156t317 56q73 0 136 -5t119 -13.5t105.5 -20.5t95.5 -26v-276q-51 18 -108 32.5t-116.5 25.5t-118.5 17t-113 6q-204 0 -306.5 -119.5t-102.5 -375.5q0 -134 23.5 -228t71.5 -153t120.5 -86.5t170.5 -27.5q81 0 156.5 5.5t131.5 10.5 v380h-334v263h619v-897q-70 0 -140 -3.5t-140.5 -7.5t-143.5 -7.5t-149 -3.5q-180 0 -309 49.5t-211.5 145.5t-121.5 236.5t-39 323.5z"/>
<glyph glyph-name="H" horiz-adv-x="1439" unicode="H" d="M150 0v1466h285v-569h569v569h285v-1466h-285v634h-569v-634h-285z"/>
<glyph glyph-name="I" horiz-adv-x="585" unicode="I" d="M150 0v1466h285v-1466h-285z"/>
<glyph glyph-name="J" horiz-adv-x="585" unicode="J" d="M-191 -84q30 -3 57 -3q63 0 115.5 18t90 59t58 109t20.5 168v1199h285v-1216q0 -142 -40 -254t-112.5 -190t-173.5 -119.5t-223 -41.5q-19 0 -38 1t-39 3v267z"/>
<glyph glyph-name="K" horiz-adv-x="1328" unicode="K" d="M150 0v1466h285v-565q54 10 125.5 46.5t144.5 105t139 170.5t110 243h297q-35 -117 -84.5 -216.5t-108.5 -183t-125 -150t-134 -117.5q57 -60 113 -125.5t107.5 -134.5t97.5 -139.5t82.5 -139.5t62 -134.5t36.5 -125.5h-296q-18 66 -60 147t-102 168t-134.5 176 t-158.5 171q-30 -11 -58 -17t-54 -9v-636h-285z"/>
<glyph glyph-name="L" horiz-adv-x="1080" unicode="L" d="M150 0v1466h285v-1201h645v-265h-930z"/>
<glyph glyph-name="M" horiz-adv-x="1759" unicode="M" d="M150 0v1466h253q50 -38 110 -104.5t123 -154.5t125.5 -194.5t118.5 -224.5q55 118 117.5 224.5t125.5 194.5t123 154.5t110 104.5h253v-1466h-285v1058q-50 -65 -93 -134t-83 -147.5t-78.5 -170t-80.5 -202.5h-219q-42 109 -81 200t-79 169.5t-83 148t-92 134.5v-1056 h-285z"/>
<glyph glyph-name="N" horiz-adv-x="1464" unicode="N" d="M150 0v1466h253q48 -33 115.5 -102t144 -162t155.5 -203t150 -226q16 -26 33 -64t28 -81v838h285v-1466h-269q-37 111 -84 218t-100 207t-109 192t-111.5 172.5t-108 148.5t-97.5 120v-1058h-285z"/>
<glyph glyph-name="O" horiz-adv-x="1473" unicode="O" d="M370 733q0 -123 21 -217.5t65 -158.5t113.5 -97t166.5 -33t166.5 33t114 97t65 158.5t20.5 217.5t-20.5 217.5t-65 158.5t-114 97t-166.5 33t-166.5 -33t-113.5 -97t-65 -158.5t-21 -217.5zM80 733q0 104 15 200.5t47.5 180.5t84 153t124.5 118t168.5 76t216.5 27 t216.5 -27t168.5 -76t125 -118t84.5 -153t47.5 -180.5t15 -200.5t-15 -200.5t-47.5 -180.5t-84.5 -153t-125 -118t-168.5 -76t-216.5 -27t-216.5 27t-168.5 76t-124.5 118t-84 153t-47.5 180.5t-15 200.5z"/>
<glyph glyph-name="P" horiz-adv-x="1315" unicode="P" d="M150 0v1466q90 0 167.5 4t144 7.5t123 7t105.5 3.5q151 0 259.5 -31t178.5 -89.5t103.5 -141.5t33.5 -188q0 -118 -41.5 -206.5t-114 -147t-171.5 -88t-213 -29.5q-20 0 -46 1.5t-54.5 5t-56.5 9.5t-53 14v265q27 -11 55 -17.5t54 -11t49 -6t41 -1.5q58 0 105 11t80 35.5 t51 64t18 95.5q0 43 -11.5 79t-41.5 62t-81 40.5t-130 14.5q-43 0 -83 -2t-75 -5t-63.5 -5t-47.5 -2v-1214h-285z"/>
<glyph glyph-name="Q" horiz-adv-x="1503" unicode="Q" d="M360 733q0 -123 21 -217.5t65 -158.5t113.5 -97t166.5 -33q71 0 128 18q-36 20 -78 35.5t-93 26.5v267q63 -8 114.5 -23.5t94 -36t79 -45t70.5 -50.5q26 61 38.5 139t12.5 175q0 123 -20.5 217.5t-65 158.5t-114 97t-166.5 33t-166.5 -33t-113.5 -97t-65 -158.5 t-21 -217.5zM70 733q0 104 15 200.5t47.5 180.5t84 153t124.5 118t168.5 76t216.5 27t216.5 -27t168.5 -76t125 -118t84.5 -153t47.5 -180.5t15 -200.5q0 -137 -26 -258.5t-84 -219.5q30 -16 64.5 -29t75.5 -23v-268q-54 9 -99.5 23t-84.5 31.5t-72 38t-63 42.5 q-72 -45 -162.5 -68.5t-205.5 -23.5q-121 0 -216.5 27t-168.5 76t-124.5 118t-84 153t-47.5 180.5t-15 200.5z"/>
<glyph glyph-name="R" horiz-adv-x="1347" unicode="R" d="M150 0v1466q90 0 167.5 4t144 7.5t123 7t105.5 3.5q151 0 257 -39.5t173.5 -103t98.5 -144t31 -162.5q0 -89 -24.5 -159.5t-68 -122.5t-104 -83t-132.5 -40q74 -67 136.5 -144.5t114 -159.5t92.5 -166t73 -164h-305q-21 45 -50.5 101.5t-67 117.5t-81.5 122.5 t-94.5 115.5t-106.5 97.5t-117 68.5v255q20 -9 46.5 -16.5t54 -13t52.5 -8.5t43 -3q116 0 179 47t63 149q0 30 -9.5 64t-36.5 63.5t-75.5 48.5t-127.5 19q-43 0 -83 -2t-75 -5t-63.5 -5t-47.5 -2v-1214h-285z"/>
<glyph glyph-name="S" horiz-adv-x="1225" unicode="S" d="M100 1053q0 117 47 199.5t126.5 135t184 76.5t219.5 24q114 0 209 -12t168 -27v-280q-53 13 -101.5 24t-96.5 19t-97.5 12t-103.5 4q-56 0 -102 -10.5t-79 -31t-51 -50t-18 -68.5q0 -52 32 -84t85 -54.5t120.5 -39.5t137.5 -39t137.5 -53t120.5 -81t85 -123.5t32 -180.5 q0 -106 -40.5 -187t-113.5 -135.5t-175 -82.5t-226 -28q-61 0 -128.5 6t-132 16.5t-121 24t-95.5 27.5v281q50 -19 106.5 -36.5t117.5 -31t124.5 -21.5t128.5 -8q118 0 183.5 43.5t65.5 131.5q0 60 -32 98t-85 63t-120 43t-137.5 38.5t-137.5 48t-120 72t-85 111.5t-32 166z "/>
<glyph glyph-name="T" horiz-adv-x="1172" unicode="T" d="M10 1205v261h1152v-261h-434v-1205h-285v1205h-433z"/>
<glyph glyph-name="U" horiz-adv-x="1440" unicode="U" d="M150 522v944h285v-954q0 -69 21 -122t59 -89t90.5 -55t114.5 -19t114.5 19t90.5 55t59 89t21 122v954h285v-944q0 -129 -44 -230.5t-120.5 -171t-180.5 -106t-225 -36.5t-225 36.5t-180.5 106t-120.5 171t-44 230.5z"/>
<glyph glyph-name="V" horiz-adv-x="1298" unicode="V" d="M0 1466h289q5 -49 22 -121t43.5 -159t60 -185.5t71.5 -202.5t79.5 -209t83.5 -204q42 99 83.5 204t79.5 208.5t71.5 202.5t60 186t43.5 159t22 121h289q-11 -87 -41.5 -204t-73.5 -250.5t-95 -274.5t-106 -275t-107 -253.5t-97 -208.5h-258q-44 89 -97 208.5t-107 253.5 t-106 275t-95 274.5t-73.5 250.5t-41.5 204z"/>
<glyph glyph-name="W" horiz-adv-x="1893" unicode="W" d="M0 1466h287q5 -49 20.5 -122.5t39.5 -164t55 -193t66 -209t73.5 -214t77.5 -206.5q24 57 48 119.5t48 127t47.5 129.5t44.5 127q-27 86 -52.5 171.5t-46 164.5t-35.5 148t-21 122h288q5 -49 20.5 -122.5t39 -164t54 -193.5t66 -210t74 -214t78.5 -205q39 99 77.5 206.5 t73.5 214.5t66 209.5t55 192.5t39.5 163.5t20.5 122.5h289q-11 -85 -39 -202t-68 -250t-88.5 -274.5t-99.5 -276t-102 -254t-95 -209.5h-257q-48 97 -102 224t-108 273q-54 -142 -108 -269.5t-105 -227.5h-229q-45 90 -95.5 209.5t-101.5 254t-99.5 276t-88 274.5t-68 250 t-39.5 202z"/>
<glyph glyph-name="X" horiz-adv-x="1309" unicode="X" d="M0 0q44 111 98.5 210.5t116 191.5t127.5 177.5t133 167.5q-62 77 -123 158t-119 169t-111 185t-99 207h311q57 -135 140 -257.5t180 -253.5q97 131 180 253.5t141 257.5h310q-46 -110 -99.5 -207t-111.5 -185t-119 -169t-123 -158q67 -82 133 -167.5t127.5 -177.5 t116.5 -191.5t100 -210.5h-310q-63 144 -153 273t-192 265q-102 -136 -191.5 -265t-153.5 -273h-309z"/>
<glyph glyph-name="Y" horiz-adv-x="1388" unicode="Y" d="M0 1466h290q30 -68 72.5 -140.5t95 -148t112.5 -152.5t124 -154q64 77 124 154t112.5 152.5t95.5 148t73 140.5h289q-41 -98 -100 -202t-131.5 -210t-155 -213t-170.5 -210v-631h-285v643q-86 102 -167.5 207t-152 209.5t-128.5 207t-98 199.5z"/>
<glyph glyph-name="Z" horiz-adv-x="1280" unicode="Z" d="M80 0v223q18 51 58.5 122t96.5 154.5t124 175t141 184t153 181t161 165.5h-724v261h1098v-232q-71 -68 -149 -151.5t-157 -173.5t-154.5 -182t-140 -177t-115 -158.5t-79.5 -126.5h807v-265h-1120z"/>
<glyph glyph-name="bracketleft" horiz-adv-x="616" unicode="[" d="M150 -407v1873h456v-224h-190v-1426h190v-223h-456z"/>
<glyph glyph-name="backslash" horiz-adv-x="636" unicode="\" d="M0 1466h219l417 -1466h-219z"/>
<glyph glyph-name="bracketright" horiz-adv-x="616" unicode="]" d="M10 -184h190v1426h-190v224h456v-1873h-456v223z"/>
<glyph glyph-name="asciicircum" horiz-adv-x="907" unicode="^" d="M0 634l352 832h201l354 -832h-276l-147 369q-9 22 -19 51q-10 28 -13 50q-5 -22 -14 -50q-10 -29 -18 -51l-143 -369h-277z"/>
<glyph glyph-name="underscore" horiz-adv-x="1090" unicode="_" d="M-30 -191h1150v-216h-1150v216z"/>
<glyph glyph-name="grave" horiz-adv-x="441" unicode="`" d="M-57 1489h311l196 -361h-274z"/>
<glyph glyph-name="a" horiz-adv-x="1111" unicode="a" d="M341 320q0 -33 12 -54.5t33.5 -34.5t50.5 -18t62 -5q65 0 119.5 19.5t92.5 58.5v145h-204q-43 0 -74.5 -8.5t-51.5 -23.5t-30 -35.5t-10 -43.5zM70 312q0 86 32.5 151t91 109t138.5 66t175 22h204v53q0 31 -11.5 58t-36.5 47t-63.5 31t-92.5 11q-37 0 -71.5 -2.5 t-70.5 -8t-75 -15t-85 -23.5v236q39 8 76 15t73.5 12t74 7.5t78.5 2.5q124 0 213 -25.5t146 -73t83.5 -115.5t26.5 -153v-717h-249v62q-57 -48 -120.5 -66t-137.5 -18q-96 0 -170 23.5t-125 67t-77.5 105t-26.5 138.5z"/>
<glyph glyph-name="b" horiz-adv-x="1143" unicode="b" d="M400 221q27 -8 59 -12.5t71 -4.5q135 0 204 82t69 257q0 85 -15 145t-43.5 98t-70 56t-93.5 18q-37 0 -66.5 -7t-52.5 -18t-38.5 -23.5t-23.5 -22.5v-568zM135 59v1407h265v-452q43 31 103 50.5t126 19.5q88 0 168.5 -29.5t142 -94t97.5 -166.5t36 -247 q0 -157 -45 -265.5t-121 -175.5t-174.5 -96.5t-205.5 -29.5q-40 0 -88 3t-99 11.5t-103.5 24t-101.5 40.5z"/>
<glyph glyph-name="c" horiz-adv-x="978" unicode="c" d="M80 531q0 128 30 230.5t93 174t160.5 110t232.5 38.5q75 0 145.5 -12.5t146.5 -38.5v-231q-77 28 -151.5 43t-140.5 15q-119 0 -182 -78.5t-63 -250.5q0 -95 17.5 -158t50 -101t79.5 -54t107 -16q66 0 139.5 16t143.5 42v-229q-30 -12 -65.5 -22t-72 -17t-74 -10.5 t-71.5 -3.5q-268 0 -396.5 135.5t-128.5 417.5z"/>
<glyph glyph-name="d" horiz-adv-x="1143" unicode="d" d="M340 519q0 -90 16.5 -151t46.5 -98t70.5 -52.5t88.5 -15.5q60 0 107.5 20t73.5 51v568q-25 8 -58 13.5t-72 5.5q-44 0 -92.5 -12t-88.5 -48t-66 -103t-26 -178zM70 515q0 119 25 207t66.5 151.5t96.5 104t116 64.5t123 33t119 9q37 0 68 -3.5t59 -8.5v394h265v-1466h-249 v61q-47 -43 -113 -63t-132 -20q-89 0 -169.5 29.5t-141.5 94t-97 166.5t-36 247z"/>
<glyph glyph-name="e" horiz-adv-x="1140" unicode="e" d="M367 655h407q0 104 -50 157t-153 53q-51 0 -88.5 -14t-62 -40t-37.5 -63t-16 -93zM80 523q0 131 30 235t91 176.5t153.5 111t216.5 38.5q121 0 212.5 -38.5t153 -110.5t92.5 -174t31 -228v-97h-704q3 -72 20 -115.5t48.5 -71t77.5 -40t105 -12.5q52 0 97.5 3.5t92 11.5 t97 22.5t111.5 36.5v-227q-97 -33 -192.5 -49.5t-205.5 -16.5q-142 0 -242 37.5t-163.5 107.5t-92.5 171t-29 229z"/>
<glyph glyph-name="f" horiz-adv-x="774" unicode="f" d="M90 828v234h136q1 118 31 199.5t80.5 131.5t117.5 72.5t143 22.5q13 0 31.5 -0.5t39.5 -2t43 -4.5t42 -7v-233q-37 13 -73 18t-59 5q-72 0 -101 -51t-29 -151h217v-234h-217v-828h-266v828h-136z"/>
<glyph glyph-name="g" horiz-adv-x="1143" unicode="g" d="M340 519q0 -85 15 -141.5t43.5 -90.5t69.5 -48.5t94 -14.5q37 0 66.5 7t52.5 18t38.5 23t23.5 23v546q-27 8 -59 13.5t-71 5.5q-135 0 -204 -83t-69 -258zM70 515q0 157 45 265.5t121 176t174.5 97.5t205.5 30q40 0 88 -3.5t99 -12.5t103 -24.5t102 -40.5v-931 q0 -119 -36.5 -205.5t-103.5 -143t-161 -84t-208 -27.5q-51 0 -121.5 10t-140.5 29v236q34 -11 69 -20t68 -15t62 -9t52 -3q126 0 190.5 54.5t64.5 175.5q-43 -31 -103 -50.5t-126 -19.5q-89 0 -169 26t-141.5 86.5t-97.5 159t-36 243.5z"/>
<glyph glyph-name="h" horiz-adv-x="1128" unicode="h" d="M135 0v1466h265v-460q54 45 112.5 61.5t116.5 16.5q88 0 156 -25t114.5 -72t70 -115.5t23.5 -156.5v-715h-265v687q0 41 -6.5 73t-23 54.5t-45 34t-72.5 11.5q-69 0 -114.5 -22.5t-66.5 -48.5v-789h-265z"/>
<glyph glyph-name="i" horiz-adv-x="535" unicode="i" d="M135 1177v289h265v-289h-265zM135 0v1062h265v-1062h-265z"/>
<glyph glyph-name="j" horiz-adv-x="535" unicode="j" d="M135 1178v288h265v-288h-265zM-128 -194q29 -6 54.5 -9.5t48.5 -3.5q37 0 67 10.5t50.5 35.5t31.5 66.5t11 104.5v1052h265v-1052q0 -120 -29 -203.5t-79.5 -135.5t-118.5 -75t-145 -23q-27 0 -68 1.5t-88 12.5v219z"/>
<glyph glyph-name="k" horiz-adv-x="1084" unicode="k" d="M135 0v1466h265v-779q54 12 104.5 46.5t93.5 85t78 113t58 130.5h271q-16 -63 -44.5 -127.5t-67.5 -126.5t-87.5 -119t-104.5 -103q57 -64 105.5 -129t89 -136t73 -150.5t55.5 -170.5h-272q-50 152 -120 263.5t-155 200.5q-37 -10 -77 -15v-449h-265z"/>
<glyph glyph-name="l" horiz-adv-x="535" unicode="l" d="M135 0v1466h265v-1466h-265z"/>
<glyph glyph-name="m" horiz-adv-x="1671" unicode="m" d="M136 0v1062h249v-62q45 36 104 60t131 24q88 0 149 -28t103 -74q60 46 131 74t163 28q96 0 165.5 -27t115.5 -77t68 -120.5t22 -157.5v-702h-265v687q0 39 -6 70.5t-21 54.5t-40 35.5t-63 12.5q-64 0 -109 -21.5t-72 -49.5q4 -23 6 -45t2 -44v-700h-265v687q0 32 -3.5 63 t-17.5 55.5t-42.5 39.5t-78.5 15q-22 0 -45.5 -5.5t-45.5 -15.5t-40 -22.5t-30 -27.5v-789h-265z"/>
<glyph glyph-name="n" horiz-adv-x="1128" unicode="n" d="M135 0v1062h249v-62q53 44 114.5 64t130.5 20q88 0 156 -25t114.5 -72t70 -115.5t23.5 -156.5v-715h-265v687q0 41 -6.5 73t-23 54.5t-45 34t-72.5 11.5q-68 0 -114 -22.5t-67 -48.5v-789h-265z"/>
<glyph glyph-name="o" horiz-adv-x="1128" unicode="o" d="M351 531q0 -76 12.5 -135.5t38.5 -100t67.5 -62t99.5 -21.5t99.5 21.5t67.5 62t38.5 100t12.5 135.5t-12.5 135t-38.5 100t-67.5 62.5t-99.5 21.5t-99.5 -21.5t-67.5 -62.5t-38.5 -100t-12.5 -135zM80 531q0 114 26 215t84.5 176t151.5 118.5t227 43.5q133 0 226 -43.5 t151 -118.5t84.5 -176t26.5 -215t-26.5 -215t-84.5 -176t-151 -118.5t-226 -43.5q-134 0 -227 43.5t-151.5 118.5t-84.5 176t-26 215z"/>
<glyph glyph-name="p" horiz-adv-x="1143" unicode="p" d="M400 221q25 -8 58 -13.5t72 -5.5q44 0 92.5 12t88.5 48t66 103t26 178q0 90 -16.5 151t-46.5 98t-70.5 52.5t-88.5 15.5q-60 0 -107.5 -20t-73.5 -51v-568zM135 -407v1469h249v-61q47 43 113 63t132 20q89 0 169.5 -29.5t141.5 -94t97 -166.5t36 -247q0 -119 -24.5 -207 t-66.5 -151.5t-97 -104t-116 -64.5t-123.5 -33t-118.5 -9q-37 0 -68 3.5t-59 8.5v-397h-265z"/>
<glyph glyph-name="q" horiz-adv-x="1143" unicode="q" d="M340 519q0 -85 15 -145t43.5 -98.5t69.5 -56t94 -17.5q37 0 66.5 7t52.5 18t38.5 23t23.5 23v568q-27 8 -59 13.5t-71 5.5q-135 0 -204 -83t-69 -258zM70 515q0 157 45 265.5t121 176t174.5 97.5t205.5 30q40 0 88 -3.5t99 -12.5t103 -24.5t102 -40.5v-1410h-265v455 q-43 -31 -103 -50.5t-126 -19.5q-89 0 -169 29.5t-141.5 94t-97.5 166.5t-36 247z"/>
<glyph glyph-name="r" horiz-adv-x="774" unicode="r" d="M135 0v1062h249v-62q41 34 100.5 59t141.5 25q11 0 27 -1t35 -3.5t38.5 -7t37.5 -11.5v-265q-33 22 -61 34.5t-50.5 19t-40.5 8.5t-31 2q-68 0 -112.5 -22t-68.5 -48v-790h-265z"/>
<glyph glyph-name="s" horiz-adv-x="971" unicode="s" d="M110 760q0 78 29.5 138.5t83.5 102t129.5 62.5t167.5 21q95 0 167.5 -10.5t132.5 -30.5v-230q-86 29 -160.5 38t-139.5 9q-70 0 -107.5 -22.5t-37.5 -70.5q0 -20 12 -36t33 -28.5t49 -22t61 -18.5q62 -16 126 -39.5t116.5 -63.5t85.5 -102t33 -155q0 -78 -30 -138.5 t-84 -102t-129.5 -62.5t-167.5 -21q-44 0 -93 5t-96 13t-90 19.5t-76 25.5v235q81 -29 172.5 -52.5t182.5 -23.5q76 0 111 25.5t35 76.5q0 33 -16 56t-43 39t-61 27t-70 21q-48 13 -104.5 32t-106 53.5t-82.5 89.5t-33 140z"/>
<glyph glyph-name="t" horiz-adv-x="794" unicode="t" d="M70 828v234h136v202l266 121v-323h213v-234h-213v-451q0 -53 8.5 -87t25 -54t40.5 -27.5t55 -7.5q12 0 28 0.5t34 2.5t36.5 5t34.5 8v-229q-48 -8 -88.5 -9t-67.5 -1q-77 0 -145 17t-118.5 61.5t-79.5 122t-29 198.5v451h-136z"/>
<glyph glyph-name="u" horiz-adv-x="1128" unicode="u" d="M135 347v715h265v-687q0 -41 6.5 -73t23 -54.5t45 -34t72.5 -11.5q68 0 114 22.5t67 48.5v789h265v-1062h-249v62q-53 -44 -114.5 -64t-130.5 -20q-177 0 -270.5 96.5t-93.5 272.5z"/>
<glyph glyph-name="v" horiz-adv-x="1060" unicode="v" d="M40 1062h266q9 -68 30.5 -149.5t51.5 -171.5t66 -184t75 -187q39 93 75.5 187.5t66.5 184t52 171t31 149.5h266q-9 -65 -30.5 -148.5t-51 -177t-65.5 -193t-74.5 -196t-77 -185.5t-74.5 -162h-234q-36 73 -74.5 162t-77 185.5t-74.5 196t-65.5 193t-51 177.5t-30.5 148z "/>
<glyph glyph-name="w" horiz-adv-x="1546" unicode="w" d="M50 1062h266q10 -69 33 -161t52 -194.5t61.5 -209t62.5 -203.5q32 78 67 168t65 184q-18 57 -34.5 115t-30.5 112.5t-24.5 102.5t-16.5 86h266q9 -68 31 -159.5t51.5 -194t64 -209t68.5 -204.5q28 99 58.5 205.5t58.5 208.5t49.5 193.5t31.5 159.5h266q-9 -63 -29 -145.5 t-47.5 -176t-61 -193.5t-70 -197t-74.5 -187t-74 -163h-233q-34 69 -68.5 151.5t-69.5 173.5q-33 -88 -68.5 -170.5t-71.5 -154.5h-233q-36 73 -73 163t-72.5 187t-68 197t-59 193.5t-45.5 176.5t-28 145z"/>
<glyph glyph-name="x" horiz-adv-x="1077" unicode="x" d="M40 0q36 88 76.5 163.5t83.5 141.5t88 124.5t90 112.5q-43 52 -85 107.5t-83 119t-79.5 136t-74.5 157.5h284q38 -94 88.5 -173t109.5 -154q59 75 110 154.5t89 172.5h284q-36 -85 -74.5 -157.5t-79.5 -136t-83.5 -119t-84.5 -107.5q45 -54 89.5 -112.5t87.5 -124.5 t84 -141.5t77 -163.5h-280q-45 101 -100.5 185t-118.5 163q-63 -79 -118 -163t-100 -185h-280z"/>
<glyph glyph-name="y" horiz-adv-x="1055" unicode="y" d="M50 1062h265q10 -68 33 -151.5t56 -175t73 -187t83 -188.5q36 94 68.5 189.5t59 186.5t46 174t29.5 152h262q-11 -84 -37.5 -188.5t-61.5 -214t-73.5 -216.5t-73.5 -197t-63 -155.5t-40 -90.5q-45 -92 -93 -170t-102.5 -135t-117.5 -89.5t-139 -32.5q-29 0 -68.5 4.5 t-80.5 15.5v237q29 -12 62.5 -17t61.5 -5q36 0 64.5 12.5t54.5 41t52.5 73.5t57.5 111q-40 76 -81 164t-80 180.5t-74.5 186t-64.5 181t-49.5 165.5t-28.5 139z"/>
<glyph glyph-name="z" horiz-adv-x="1070" unicode="z" d="M90 0v190q30 72 85.5 159t121.5 174t133.5 166.5t120.5 137.5h-437v235h829v-193q-41 -34 -89 -81.5t-99 -103t-102.5 -115.5t-98 -119t-86 -114.5t-67.5 -101.5h559v-234h-870z"/>
<glyph glyph-name="braceleft" horiz-adv-x="688" unicode="{" d="M35 413v236q53 0 87.5 18.5t55 59t29 104.5t8.5 155q0 99 12 186.5t47 153t100 103t171 37.5h103v-229h-81q-30 0 -48.5 -17.5t-29 -53.5t-14.5 -92.5t-4 -134.5q0 -87 -12.5 -152t-34.5 -113.5t-52 -83t-64 -59.5q34 -26 64 -60t52 -83t34.5 -114t12.5 -152 q0 -78 4 -134.5t14.5 -93.5t29 -54.5t48.5 -17.5h81v-229h-103q-106 0 -171 38t-100 103.5t-47 153.5t-12 187q0 91 -8.5 155t-29 104.5t-55 59.5t-87.5 19z"/>
<glyph glyph-name="bar" horiz-adv-x="515" unicode="|" d="M135 -407v1873h245v-1873h-245z"/>
<glyph glyph-name="braceright" horiz-adv-x="688" unicode="}" d="M40 -178h81q31 0 49 18t28 54q10 38 15 94q4 56 4 134q1 87 13 152t34 114t52 83t64 60q-34 25 -64 59t-52 84q-22 48 -34 113t-13 152q0 79 -4 135q-5 56 -15 92t-28 54t-49 17h-81v229h103q106 0 171 -38t100 -102q35 -66 47 -154t12 -186q1 -91 9 -155q8 -65 28 -105 t56 -58q34 -18 87 -19v-236q-53 0 -87 -19q-34 -20 -56 -60q-20 -40 -28 -104t-9 -155q0 -99 -12 -187t-47 -154t-100 -103q-65 -38 -171 -38h-103v229z"/>
<glyph glyph-name="asciitilde" horiz-adv-x="1100" unicode="~" d="M50 327v260q118 142 296 142q56 0 115 -18t115 -40.5t106.5 -42t88.5 -21.5q5 0 8.5 -0.5t8.5 -0.5q30 0 60 7.5t61.5 25.5t66 47.5t74.5 74.5v-261q-67 -67 -133 -100.5t-147 -33.5q-54 0 -110.5 19t-113.5 41.5t-111.5 41.5t-103.5 19q-32 0 -64.5 -5.5t-67 -23 t-71.5 -49t-78 -82.5z"/>
<glyph glyph-name="uni00A0" horiz-adv-x="586" unicode=" "/>
<glyph glyph-name="cent" horiz-adv-x="931" unicode="¢" d="M325 531q0 -95 17.5 -158t55.5 -108l153 594q-104 -6 -163 -78q-63 -78 -63 -250zM54 531q0 128 30 230.5t93 174t160.5 110t232.5 38.5h19q9 0 19 -1l99 383h184l-106 -410q19 -5 38 -10.5t39 -12.5v-231q-68 24 -133 39l-165 -639q81 0 154.5 16t143.5 42v-229 q-30 -12 -65.5 -22t-72 -17t-74 -10.5t-71.5 -3.5q-38 0 -72 3l-100 -388h-182l109 423q-91 33 -152 97q-128 137 -128 418z"/>
<glyph glyph-name="sterling" horiz-adv-x="1240" unicode="£" d="M87 634v263h143q-9 42 -15 82.5t-6 80.5q0 95 29 173.5t84.5 135t135.5 88t182 31.5q205 0 312.5 -110.5t107.5 -315.5h-273q0 58 -10.5 96t-30 59.5t-47.5 30t-62 8.5q-36 0 -63.5 -13.5t-45.5 -37t-27 -54.5t-9 -67q0 -50 7.5 -96t18.5 -91h284v-263h-219 q2 -20 4 -40.5t2 -41.5q0 -65 -17 -134t-58 -127q8 1 15 1h15q40 0 85 -8t90 -17t87.5 -17t78.5 -8q28 0 62.5 4.5t71.5 16t74.5 32.5t73.5 54v-290q-47 -31 -85.5 -47.5t-71.5 -24t-62 -8.5t-56 -1q-53 0 -108.5 12.5t-111 28t-110 28t-105.5 12.5q-57 0 -121.5 -30.5 t-145.5 -82.5l-102 255q64 36 106 73.5t67.5 76t36 77.5t10.5 78q0 31 -4 63t-10 65h-207z"/>
<glyph glyph-name="yen" horiz-adv-x="1388" unicode="¥" d="M0 1466h290q30 -68 72.5 -140.5t95 -148t112.5 -156t124 -157.5q64 77 124 157.5t112.5 156t95.5 148t73 140.5h289q-41 -98 -100 -202t-131.5 -209.5t-155 -210t-170.5 -194.5h265v-173h-265v-102h265v-173h-265v-202h-285v202h-285v173h285v102h-285v173h285 q-86 94 -167.5 198.5t-152 210t-128.5 208t-98 199.5z"/>
<glyph glyph-name="dieresis" horiz-adv-x="833" unicode="¨" d="M472 1152v277h274v-277h-274zM84 1152v277h274v-277h-274z"/>
<glyph glyph-name="copyright" horiz-adv-x="1610" unicode="©" d="M400 733q0 96 24 176.5t74 138t127.5 90t184.5 32.5q69 0 133 -7.5t112 -15.5v-217q-71 19 -128 29t-117 10q-49 0 -83.5 -13t-56.5 -42t-32 -76t-10 -114q0 -71 10.5 -118t33 -75t57.5 -40t84 -12q38 0 98.5 7t143.5 30v-211q-51 -11 -109.5 -19t-132.5 -8 q-107 0 -184.5 31.5t-128.5 91t-75.5 143.5t-24.5 189zM154 731q0 -136 46.5 -251t130.5 -198.5t201.5 -130.5t260.5 -47q142 0 259 47t200.5 130.5t129.5 198.5t46 251q0 137 -46 252.5t-129.5 199.5t-200.5 131t-259 47q-143 0 -260.5 -47t-201.5 -131t-130.5 -199.5 t-46.5 -252.5zM26 731q0 165 55.5 303.5t156.5 239.5t242.5 157.5t312.5 56.5t311.5 -56.5t241 -157.5t155.5 -239.5t55 -303.5q0 -164 -55 -302t-155.5 -238.5t-241 -156.5t-311.5 -56t-312.5 56t-242.5 156.5t-156.5 238.5t-55.5 302z"/>
<glyph glyph-name="guillemotleft" horiz-adv-x="1058" unicode="«" d="M466 528l286 463h278q-28 -49 -60 -108t-66 -121t-68 -122t-63 -112l257 -463h-278zM3 528l286 463h278q-27 -49 -59 -108t-68 -121q-34 -62 -68 -122t-62 -112l257 -463h-278z"/>
<glyph glyph-name="uni00AD" horiz-adv-x="655" unicode="­" d="M50 399v263h555v-263h-555z"/>
<glyph glyph-name="registered" horiz-adv-x="1651" unicode="®" d="M453 315v843q106 0 186 6t133 6q89 0 153.5 -23.5t106 -61t61.5 -84.5t20 -95t-13 -87t-36 -68.5t-54.5 -49.5t-67.5 -30q37 -37 70 -80.5t60 -90t47 -93.5t33 -92h-211q-12 39 -36 91t-56.5 101.5t-70 89t-74.5 52.5v181q17 -8 39 -13t42 -5q56 0 90.5 21.5t34.5 69.5 q0 13 -6 28t-21 28t-40 22t-62 9t-71.5 -2.5t-60.5 -4.5v-668h-196zM183 724q0 -126 43 -233t121.5 -185t188.5 -122t243 -44q132 0 241 44t186.5 122t120.5 185t43 233q0 127 -43 235t-120.5 186t-186.5 122t-241 44q-133 0 -243 -44t-188.5 -122t-121.5 -186t-43 -235z M20 724q0 163 55 300t155 237t239.5 156t309.5 56q169 0 308 -56t238 -156t153.5 -237t54.5 -300q0 -162 -54.5 -299t-153.5 -236t-238 -154.5t-308 -55.5q-170 0 -309.5 55.5t-239.5 154.5t-155 236t-55 299z"/>
<glyph glyph-name="acute" horiz-adv-x="442" unicode="´" d="M-16 1168l228 398h332l-265 -398h-295z"/>
<glyph glyph-name="cedilla" horiz-adv-x="487" unicode="¸" d="M-5 -286h150q47 0 66.5 16.5t19.5 35.5q0 13 -5 23.5t-22.5 18.5t-50 12.5t-86.5 6.5l70 231h194l-41 -137q47 -9 81.5 -25.5t57 -38t33.5 -47t11 -52.5q0 -90 -75 -137.5t-218 -47.5h-185v141z"/>
<glyph glyph-name="guillemotright" horiz-adv-x="1058" unicode="»" d="M491 65l257 463q-28 52 -62 112t-68 122t-68 121q-32 59 -59 108h278l286 -463l-286 -463h-278zM29 65l257 463q-28 52 -62 112t-68 122t-68 121q-32 59 -59 108h278l286 -463l-286 -463h-278z"/>
<glyph glyph-name="circumflex" horiz-adv-x="648" unicode="ˆ" d="M-37 1177l254 345h227l254 -345h-291l-76 117q-19 -29 -40 -61t-37 -56h-291z"/>
<glyph glyph-name="tilde" horiz-adv-x="754" unicode="˜" d="M4 1182v194q38 51 98 82t130 31q42 0 81 -14.5t77 -31.5t74 -31.5t72 -14.5q75 0 125.5 31t90.5 85v-204q-51 -56 -105 -81.5t-121 -25.5q-44 0 -83.5 14.5t-78 32t-77 32t-79.5 14.5q-23 0 -48 -5t-50.5 -17.5t-52 -34.5t-53.5 -56z"/>
<glyph glyph-name="afii10023" horiz-adv-x="1295" unicode="Ё" d="M750 1578v277h274v-277h-274zM362 1578v277h274v-277h-274zM150 0v1466h1024v-261h-739v-308h652v-263h-652v-369h760v-265h-1045z"/>
<glyph glyph-name="afii10051" horiz-adv-x="1565" unicode="Ђ" d="M10 1205v261h1152v-261h-434v-301q35 9 73 16q86 16 174 16q111 0 209 -31t171.5 -90.5t116.5 -146t43 -198.5q0 -104 -39.5 -190t-118.5 -148.5t-197.5 -97t-275.5 -34.5v265q91 0 154.5 14.5t103.5 42t57.5 66.5t17.5 88q0 51 -19.5 89t-53 62.5t-80 37t-100.5 12.5 q-70 0 -151 -20q-42 -10 -85 -26v-631h-285v1205h-433z"/>
<glyph glyph-name="afii10052" horiz-adv-x="1091" unicode="Ѓ" d="M370 1572l228 398h332l-265 -398h-295zM146 0v1466h950v-261h-665v-1205h-285z"/>
<glyph glyph-name="afii10053" horiz-adv-x="1193" unicode="Є" d="M102 733q0 169 42 308t129 238.5t222 154t321 54.5q113 0 200 -13t159 -29v-277q-52 15 -98 26.5t-91 19t-91.5 11.5t-100.5 4q-163 0 -257.5 -80.5t-123.5 -252.5h622v-263h-631q9 -106 38.5 -181.5t79.5 -123.5t119.5 -70.5t158.5 -22.5q72 0 172.5 12.5t221.5 44.5 v-273q-77 -18 -172 -30t-222 -12q-180 0 -312 49.5t-217.5 145t-127 236.5t-41.5 324z"/>
<glyph glyph-name="afii10054" horiz-adv-x="1225" unicode="Ѕ" d="M100 1053q0 117 47 199.5t126.5 135t184 76.5t219.5 24q114 0 209 -12t168 -27v-280q-53 13 -101.5 24t-96.5 19t-97.5 12t-103.5 4q-56 0 -102 -10.5t-79 -31t-51 -50t-18 -68.5q0 -52 32 -84t85 -54.5t120.5 -39.5t137.5 -39t137.5 -53t120.5 -81t85 -123.5t32 -180.5 q0 -106 -40.5 -187t-113.5 -135.5t-175 -82.5t-226 -28q-61 0 -128.5 6t-132 16.5t-121 24t-95.5 27.5v281q50 -19 106.5 -36.5t117.5 -31t124.5 -21.5t128.5 -8q118 0 183.5 43.5t65.5 131.5q0 60 -32 98t-85 63t-120 43t-137.5 38.5t-137.5 48t-120 72t-85 111.5t-32 166z "/>
<glyph glyph-name="afii10055" horiz-adv-x="527" unicode="І" d="M191 0v1466h285v-1466h-285z"/>
<glyph glyph-name="afii10056" horiz-adv-x="585" unicode="Ї" d="M357 1566v277h274v-277h-274zM150 0v1466h285v-1466h-285zM-31 1566v277h274v-277h-274z"/>
<glyph glyph-name="afii10057" horiz-adv-x="527" unicode="Ј" d="M-150 -84q30 -3 57 -3q63 0 115.5 18t90 59t58 109t20.5 168v1199h285v-1216q0 -142 -40 -254t-112.5 -190t-173.5 -119.5t-223 -41.5q-19 0 -38 1t-39 3v267z"/>
<glyph glyph-name="afii10058" horiz-adv-x="2238" unicode="Љ" d="M66 -20v270q44 2 84 26t75 79t64 145t49.5 224.5t31.5 317.5t11 424h915v-1201h269q71 0 121 14.5t81.5 42t46 66.5t14.5 88q0 51 -19.5 89t-53 62.5t-80 37t-100.5 12.5q-86 0 -199 -32v266q54 12 108 18.5t102 6.5q111 0 209 -31t171.5 -90.5t116.5 -146t43 -198.5 q0 -104 -36 -190t-108 -148.5t-180 -97t-251 -34.5h-540v1205h-348q-7 -246 -31.5 -432t-64 -322.5t-92.5 -227t-117 -144.5t-138 -76.5t-154 -22.5z"/>
<glyph glyph-name="afii10059" horiz-adv-x="2248" unicode="Њ" d="M191 0v1466h285v-569h569v569h285v-1201h269q71 0 121 14.5t81.5 42t46 66.5t14.5 88q0 51 -19.5 89t-53 62.5t-80 37t-100.5 12.5q-86 0 -199 -32v266q54 12 108 18.5t102 6.5q111 0 209 -31t171.5 -90.5t116.5 -146t43 -198.5q0 -104 -36 -190t-108 -148.5t-180 -97 t-251 -34.5h-540v634h-569v-634h-285z"/>
<glyph glyph-name="afii10060" horiz-adv-x="1704" unicode="Ћ" d="M51 1205v261h1152v-261h-434v-263q43 15 79.5 27t71 20t70 12t76.5 4q137 0 230.5 -34t150.5 -98t82 -156.5t25 -208.5v-508h-285v494q0 64 -10.5 111t-36 77.5t-67.5 45.5t-105 15q-40 0 -73 -3.5t-65 -10.5t-66.5 -19t-76.5 -28v-682h-285v1205h-433z"/>
<glyph glyph-name="afii10061" horiz-adv-x="1328" unicode="Ќ" d="M436 1572l228 398h332l-265 -398h-295zM150 0v1466h285v-565q54 10 125.5 46.5t144.5 105t139 170.5t110 243h297q-35 -117 -84.5 -216.5t-108.5 -183t-125 -150t-134 -117.5q57 -60 113 -125.5t107.5 -134.5t97.5 -139.5t82.5 -139.5t62 -134.5t36.5 -125.5h-296 q-18 66 -60 147t-102 168t-134.5 176t-158.5 171q-30 -11 -58 -17t-54 -9v-636h-285z"/>
<glyph glyph-name="afii10062" horiz-adv-x="1295" unicode="Ў" d="M321 1910h206q8 -49 22.5 -79.5t34 -48t42.5 -23.5t49 -6t49.5 6t43 23.5t33.5 48t22 79.5h206q-9 -75 -38 -136t-75 -103.5t-107.5 -66t-135.5 -23.5q-72 0 -132.5 23.5t-106 66t-75 103.5t-38.5 136zM46 1466h284q10 -69 41.5 -153.5t77.5 -178.5t104.5 -194.5 t122.5 -201.5q58 108 110 213.5t93.5 200.5t69 175t36.5 139h281q-14 -90 -55.5 -209t-100.5 -252.5t-130.5 -274t-145.5 -273t-144.5 -251t-127.5 -206.5h-323q62 94 136 215t152 256q-83 126 -163 258t-145.5 261t-111.5 250t-61 226z"/>
<glyph glyph-name="afii10145" horiz-adv-x="1444" unicode="Џ" d="M172 0v1466h285v-1205h541v1205h286v-1466h-418v-216h-285v216h-409z"/>
<glyph glyph-name="afii10017" horiz-adv-x="1473" unicode="А" d="M0 0q22 104 56 228t77 256.5t92.5 268t101.5 264t104.5 243.5t101.5 206h407q49 -91 102 -206.5t105 -243.5t101.5 -264t92 -268.5t76.5 -256.5t56 -227h-288q-13 59 -32 132t-43 154t-53 169t-62 179h-434q2 6 9.5 26.5t17.5 48.5t21.5 59.5t21.5 59t17.5 47t9.5 22.5 h239q-32 80 -64.5 157t-66.5 151h-60q-45 -100 -89.5 -208t-86 -217.5t-79 -218t-69 -209t-55.5 -190.5t-39 -162h-288z"/>
<glyph glyph-name="afii10018" horiz-adv-x="1348" unicode="Б" d="M169 0v1466h1084v-262h-799v-939h269q71 0 121 14.5t81.5 42t46 66.5t14.5 88q0 51 -19.5 89t-53 62.5t-80 37t-100.5 12.5q-86 0 -199 -32v266q54 12 108 18.5t102 6.5q111 0 209 -31t171.5 -90.5t116.5 -146t43 -198.5q0 -104 -36 -190t-108 -148.5t-180 -97 t-251 -34.5h-540z"/>
<glyph glyph-name="afii10019" horiz-adv-x="1359" unicode="В" d="M435 261h291q130 0 201 43.5t71 136.5q0 56 -18 95t-52.5 61.5t-85.5 31.5t-116 9h-211v255h211q101 0 158.5 39.5t57.5 118.5q0 49 -15.5 85t-44.5 57t-69.5 30t-90.5 9q-107 0 -169 -6t-98 -6h-20v-959zM150 0v1466q142 0 285.5 11t285.5 11q126 0 221.5 -29t160 -83 t97.5 -131t33 -173q0 -43 -9.5 -86t-29 -81.5t-50.5 -70t-73 -50.5q51 -16 91.5 -48.5t68.5 -77.5t43 -100.5t15 -116.5q0 -112 -42.5 -195t-118 -137.5t-178.5 -81.5t-224 -27h-576z"/>
<glyph glyph-name="afii10020" horiz-adv-x="1110" unicode="Г" d="M150 0v1466h950v-261h-665v-1205h-285z"/>
<glyph glyph-name="afii10021" horiz-adv-x="1496" unicode="Д" d="M508 265h505v940h-349q-10 -324 -47.5 -556.5t-108.5 -383.5zM29 -216v481h155q46 52 83 149t63 244.5t39.5 348t13.5 459.5h915v-1201h160v-481h-285v216h-859v-216h-285z"/>
<glyph glyph-name="afii10022" horiz-adv-x="1295" unicode="Е" d="M150 0v1466h1024v-261h-739v-308h652v-263h-652v-369h760v-265h-1045z"/>
<glyph glyph-name="afii10024" horiz-adv-x="2001" unicode="Ж" d="M74 0q15 84 57.5 184.5t105.5 205t143.5 206t170.5 185.5q-61 49 -120.5 116t-114 152.5t-103 189.5t-88.5 227h288q55 -141 111 -241.5t111 -167.5t108 -104t102 -50v563h285v-563q49 13 102 50t108 104t111 167.5t111 241.5h288q-40 -123 -88.5 -227t-103 -189.5 t-114 -152.5t-120.5 -116q90 -84 170.5 -185.5t143.5 -206t105.5 -205t57.5 -184.5h-291q-20 67 -58 149.5t-92.5 169.5t-125.5 172.5t-156 159.5q-9 -2 -24.5 -5t-23.5 -4v-642h-285v642q-8 1 -23.5 4t-24.5 5q-86 -74 -156.5 -159.5t-125 -172.5t-92.5 -169.5t-58 -149.5 h-291z"/>
<glyph glyph-name="afii10025" horiz-adv-x="1203" unicode="З" d="M51 88v286q52 -26 110.5 -50t121 -42t127 -29t127.5 -11q66 0 120.5 11.5t94 34.5t61.5 58t22 83q0 55 -20.5 94t-59 64t-93.5 36t-125 11h-260v263h260q119 0 182 36.5t63 123.5q0 49 -20.5 82t-55 53t-80.5 29t-98 9q-108 0 -210.5 -26.5t-206.5 -66.5v282 q37 13 84.5 25.5t101.5 22.5t113 15.5t118 5.5q124 0 224.5 -27t171 -81t108.5 -133.5t38 -184.5q0 -88 -38 -160.5t-124 -117.5q62 -23 103.5 -61t67 -85t36.5 -100t11 -106q0 -112 -47 -197t-127 -142t-187 -86t-228 -29q-66 0 -136 9.5t-135.5 24.5t-121 35t-93.5 41z "/>
<glyph glyph-name="afii10026" horiz-adv-x="1470" unicode="И" d="M156 0v1466h285v-838q11 43 28 81t33 64q71 116 150 226t155.5 203t144 162t115.5 102h253v-1466h-285v1058q-45 -52 -97.5 -120t-108 -148.5t-111.5 -172.5t-109 -192t-100 -207t-84 -218h-269z"/>
<glyph glyph-name="afii10027" horiz-adv-x="1470" unicode="Й" d="M368 1700h165q7 -39 18.5 -63.5t27 -38.5t34 -19t39.5 -5t40 5t34.5 19t27 38.5t17.5 63.5h166q-7 -60 -30.5 -109t-60.5 -83t-86.5 -53t-108.5 -19q-58 0 -106.5 19t-85.5 53t-60.5 83t-30.5 109zM156 0v1466h285v-838q11 43 28 81t33 64q71 116 150 226t155.5 203 t144 162t115.5 102h253v-1466h-285v1058q-45 -52 -97.5 -120t-108 -148.5t-111.5 -172.5t-109 -192t-100 -207t-84 -218h-269z"/>
<glyph glyph-name="afii10028" horiz-adv-x="1328" unicode="К" d="M150 0v1466h285v-565q54 10 125.5 46.5t144.5 105t139 170.5t110 243h297q-35 -117 -84.5 -216.5t-108.5 -183t-125 -150t-134 -117.5q57 -60 113 -125.5t107.5 -134.5t97.5 -139.5t82.5 -139.5t62 -134.5t36.5 -125.5h-296q-18 66 -60 147t-102 168t-134.5 176 t-158.5 171q-30 -11 -58 -17t-54 -9v-636h-285z"/>
<glyph glyph-name="afii10029" horiz-adv-x="1392" unicode="Л" d="M6 -20v270q44 2 84 26t75 79t64 145t49.5 224.5t31.5 317.5t11 424h915v-1466h-285v1205h-348q-7 -246 -31.5 -432t-64 -322.5t-92.5 -227t-117 -144.5t-138 -76.5t-154 -22.5z"/>
<glyph glyph-name="afii10030" horiz-adv-x="1759" unicode="М" d="M150 0v1466h253q50 -38 110 -104.5t123 -154.5t125.5 -194.5t118.5 -224.5q55 118 117.5 224.5t125.5 194.5t123 154.5t110 104.5h253v-1466h-285v1058q-50 -65 -93 -134t-83 -147.5t-78.5 -170t-80.5 -202.5h-219q-42 109 -81 200t-79 169.5t-83 148t-92 134.5v-1056 h-285z"/>
<glyph glyph-name="afii10031" horiz-adv-x="1439" unicode="Н" d="M150 0v1466h285v-569h569v569h285v-1466h-285v634h-569v-634h-285z"/>
<glyph glyph-name="afii10032" horiz-adv-x="1473" unicode="О" d="M370 733q0 -123 21 -217.5t65 -158.5t113.5 -97t166.5 -33t166.5 33t114 97t65 158.5t20.5 217.5t-20.5 217.5t-65 158.5t-114 97t-166.5 33t-166.5 -33t-113.5 -97t-65 -158.5t-21 -217.5zM80 733q0 104 15 200.5t47.5 180.5t84 153t124.5 118t168.5 76t216.5 27 t216.5 -27t168.5 -76t125 -118t84.5 -153t47.5 -180.5t15 -200.5t-15 -200.5t-47.5 -180.5t-84.5 -153t-125 -118t-168.5 -76t-216.5 -27t-216.5 27t-168.5 76t-124.5 118t-84 153t-47.5 180.5t-15 200.5z"/>
<glyph glyph-name="afii10033" horiz-adv-x="1414" unicode="П" d="M148 0v1466h1112v-1466h-286v1205h-541v-1205h-285z"/>
<glyph glyph-name="afii10034" horiz-adv-x="1315" unicode="Р" d="M150 0v1466q90 0 167.5 3.5t144 7.5t123 7.5t105.5 3.5q151 0 259.5 -31t178.5 -89.5t103.5 -141.5t33.5 -188q0 -118 -41.5 -206.5t-114 -147t-171.5 -88t-213 -29.5q-20 0 -46 1.5t-54.5 5t-56.5 9.5t-53 14v265q27 -11 55 -17.5t54 -11t49 -6t41 -1.5q58 0 105 11 t80 35.5t51 64t18 95.5q0 43 -11.5 79t-41.5 62t-81 40.5t-130 14.5q-43 0 -83 -2t-75 -5t-63.5 -5t-47.5 -2v-1214h-285z"/>
<glyph glyph-name="afii10035" horiz-adv-x="1261" unicode="С" d="M70 733q0 165 40.5 304t125 239t215 156t311.5 56q120 0 221 -11t178 -28v-280q-52 15 -100.5 26t-97 18.5t-98 11t-103.5 3.5q-197 0 -297 -119.5t-100 -375.5q0 -134 26 -228t76.5 -153t125.5 -86.5t174 -27.5q85 0 180 11.5t214 43.5v-273q-77 -19 -171.5 -30.5 t-222.5 -11.5q-180 0 -311.5 49.5t-217 145.5t-127 236.5t-41.5 323.5z"/>
<glyph glyph-name="afii10036" horiz-adv-x="1172" unicode="Т" d="M10 1205v261h1152v-261h-434v-1205h-285v1205h-433z"/>
<glyph glyph-name="afii10037" horiz-adv-x="1295" unicode="У" d="M46 1466h284q10 -69 41.5 -153.5t77.5 -178.5t104.5 -194.5t122.5 -201.5q58 108 110 213.5t93.5 200.5t69 175t36.5 139h281q-14 -90 -55.5 -209t-100.5 -252.5t-130.5 -274t-145.5 -273t-144.5 -251t-127.5 -206.5h-323q62 94 136 215t152 256q-83 126 -163 258 t-145.5 261t-111.5 250t-61 226z"/>
<glyph glyph-name="afii10038" horiz-adv-x="1848" unicode="Ф" d="M1058 405q104 3 172 26.5t107.5 66t55.5 102t16 134.5q0 76 -16 138.5t-55.5 107.5t-107.5 71.5t-172 29.5v-676zM422 734q0 -75 15.5 -134.5t55.5 -102t107.5 -66t172.5 -26.5v676q-105 -3 -172.5 -29.5t-107.5 -72t-55.5 -108t-15.5 -137.5zM128 734q0 141 41 251 t122 187t201.5 118.5t280.5 45.5v130h285v-130q159 -3 279 -45t200.5 -119t121 -187t40.5 -251q0 -284 -161.5 -430.5t-479.5 -153.5v-150h-285v150q-316 7 -480.5 154t-164.5 430z"/>
<glyph glyph-name="afii10039" horiz-adv-x="1309" unicode="Х" d="M0 0q44 111 98.5 210.5t116 191.5t127.5 177.5t133 167.5q-62 77 -123 158t-119 169t-111 185t-99 207h311q57 -135 140 -257.5t180 -253.5q97 131 180 253.5t141 257.5h310q-46 -110 -99.5 -207t-111.5 -185t-119 -169t-123 -158q67 -82 133 -167.5t127.5 -177.5 t116.5 -191.5t100 -210.5h-310q-63 144 -153 273t-192 265q-102 -136 -191.5 -265t-153.5 -273h-309z"/>
<glyph glyph-name="afii10040" horiz-adv-x="1454" unicode="Ц" d="M152 0v1466h285v-1201h541v1201h285v-1201h177v-481h-286v216h-1002z"/>
<glyph glyph-name="afii10041" horiz-adv-x="1340" unicode="Ч" d="M119 958v508h285v-494q0 -64 10.5 -111t36 -77.5t67.5 -45.5t105 -15q40 0 73 3.5t65 10.5t66.5 18.5t76.5 28.5v682h285v-1466h-285l-1 524q-43 -15 -79 -27t-70.5 -20t-70 -12t-76.5 -4q-137 0 -230.5 34t-150.5 98t-82 156.5t-25 208.5z"/>
<glyph glyph-name="afii10042" horiz-adv-x="1943" unicode="Ш" d="M157 0v1466h285v-1201h375v1201h285v-1201h374v1201h285v-1466h-1604z"/>
<glyph glyph-name="afii10043" horiz-adv-x="1983" unicode="Щ" d="M161 0v1466h285v-1201h374v1201h285v-1201h375v1201h285v-1201h186v-481h-286v216h-1504z"/>
<glyph glyph-name="afii10044" horiz-adv-x="1491" unicode="Ъ" d="M8 1205v261h578v-1201h269q71 0 121 14.5t81.5 42t46 66.5t14.5 88q0 51 -19.5 89t-53 62.5t-80 37t-100.5 12.5q-86 0 -199 -32v266q54 12 108 18.5t102 6.5q111 0 209 -31t171.5 -90.5t116.5 -146t43 -198.5q0 -104 -36 -190t-108 -148.5t-180 -97t-251 -34.5h-540 v1205h-293z"/>
<glyph glyph-name="afii10045" horiz-adv-x="1750" unicode="Ы" d="M1384 0v1466h285v-1466h-285zM148 0v1466h285v-1201h249q71 0 118 14.5t74.5 42t39 66.5t11.5 88q0 102 -62.5 151.5t-170.5 49.5q-21 0 -41.5 -1.5t-41.5 -5.5t-44.5 -10t-51.5 -15v266q54 14 98 19.5t92 5.5q111 0 206 -31t165 -90.5t109.5 -146t39.5 -198.5 q0 -104 -33 -190t-101.5 -148.5t-173 -97t-247.5 -34.5h-520z"/>
<glyph glyph-name="afii10046" horiz-adv-x="1348" unicode="Ь" d="M148 0v1466h285v-1201h269q71 0 121 14.5t81.5 42t46 66.5t14.5 88q0 51 -19.5 89t-53 62.5t-80 37t-100.5 12.5q-86 0 -199 -32v266q54 12 108 18.5t102 6.5q111 0 209 -31t171.5 -90.5t116.5 -146t43 -198.5q0 -104 -36 -190t-108 -148.5t-180 -97t-251 -34.5h-540z "/>
<glyph glyph-name="afii10047" horiz-adv-x="1293" unicode="Э" d="M90 20v273q120 -34 221.5 -45.5t172.5 -11.5q89 0 158.5 22t119.5 71t79.5 124t38.5 181h-631v263h622q-29 171 -124 252t-257 81q-54 0 -100.5 -4t-91.5 -11.5t-91 -19t-98 -26.5v277q72 16 159 29t200 13q186 0 321 -54.5t222 -154t129 -238.5t42 -308 q0 -183 -41.5 -323.5t-127 -236t-217.5 -145.5t-312 -50q-127 0 -222 12t-172 30z"/>
<glyph glyph-name="afii10048" horiz-adv-x="2022" unicode="Ю" d="M980 733q0 -123 16.5 -215.5t56 -154.5t104.5 -93.5t161 -31.5t161 31.5t104.5 93.5t56 154.5t16.5 215.5t-16.5 215.5t-56 154.5t-104.5 93.5t-161 31.5t-161 -31.5t-104.5 -93.5t-56 -154.5t-16.5 -215.5zM159 0v1466h285v-578h246q13 128 53.5 237.5t115.5 189.5 t187.5 125.5t271.5 45.5q121 0 215.5 -27t165 -75.5t119.5 -117.5t79 -152.5t43.5 -180t13.5 -200.5t-13.5 -200.5t-43.5 -180t-79 -152.5t-119.5 -117.5t-165 -75.5t-215.5 -27q-166 0 -282 49.5t-191 136t-112.5 204.5t-47.5 255h-241v-625h-285z"/>
<glyph glyph-name="afii10049" horiz-adv-x="1360" unicode="Я" d="M403 1002q0 -41 17.5 -74.5t49.5 -57.5t76.5 -37.5t97.5 -13.5q18 0 48.5 5t68 14t79 21.5t81.5 26.5v319h-275q-72 0 -119 -16.5t-74.5 -44t-38.5 -64.5t-11 -78zM18 0q64 157 169.5 314.5t265.5 299.5q-76 7 -140 38.5t-110 82t-72 118.5t-26 149q0 103 30 188.5 t97 146.5t174.5 95t262.5 34h537v-1466h-285v609q-67 -24 -131 -65.5t-123.5 -94t-112 -111.5t-96.5 -119t-78.5 -116.5t-55.5 -102.5h-306z"/>
<glyph glyph-name="afii10065" horiz-adv-x="1111" unicode="а" d="M341 320q0 -33 12 -54.5t33.5 -34.5t50.5 -18t62 -5q65 0 119.5 19.5t92.5 58.5v145h-204q-43 0 -74.5 -8.5t-51.5 -23.5t-30 -35.5t-10 -43.5zM70 312q0 86 32.5 151t91 109t138.5 66t175 22h204v53q0 31 -11.5 58t-36.5 47t-63.5 31t-92.5 11q-37 0 -71.5 -2.5 t-70.5 -8t-75 -15t-85 -23.5v236q39 8 76 15t73.5 12t74 7.5t78.5 2.5q124 0 213 -25.5t146 -73t83.5 -115.5t26.5 -153v-717h-249v62q-57 -48 -120.5 -66t-137.5 -18q-96 0 -170 23.5t-125 67t-77.5 105t-26.5 138.5z"/>
<glyph glyph-name="afii10066" horiz-adv-x="1122" unicode="б" d="M351 522q0 -151 50.5 -230.5t166.5 -79.5q117 0 167.5 79.5t50.5 230.5t-54 228.5t-171 77.5q-35 0 -66.5 -9.5t-58 -25.5t-48 -38t-35.5 -46q-2 -35 -2 -84v-103zM80 531q0 146 5 277.5t30.5 241.5t80.5 196t154 141q48 26 90.5 40.5t84.5 22t87 10.5t97 6.5t114.5 10 t140.5 21.5v-231q-67 -21 -128.5 -28t-124.5 -9q-66 -2 -119.5 -12.5t-93.5 -32.5t-66 -57.5t-36 -89.5q-2 -8 -3 -18t-1 -16q36 23 94.5 40.5t127.5 17.5q50 0 102.5 -11t101.5 -36t92.5 -65.5t76 -100.5t51.5 -141t19 -186q0 -114 -26.5 -213.5t-85 -173t-151.5 -115.5 t-226 -42q-134 0 -226.5 43.5t-151 118.5t-84.5 176t-26 215z"/>
<glyph glyph-name="afii10067" horiz-adv-x="1115" unicode="в" d="M400 655h259q38 0 58 26.5t20 60.5q0 19 -5.5 36.5t-18.5 30.5t-34 21t-52 8h-227v-183zM400 224h260q42 0 73 26t31 83q0 47 -24 75t-72 28h-268v-212zM135 0v1062h492q96 0 166.5 -26.5t117 -70t69.5 -99.5t23 -115q0 -27 -4 -55t-14.5 -54.5t-28 -50.5t-44.5 -43 q34 -17 57.5 -41t38 -51t21 -55.5t6.5 -55.5q0 -84 -26 -148t-74.5 -108t-118 -66.5t-156.5 -22.5h-525z"/>
<glyph glyph-name="afii10068" horiz-adv-x="810" unicode="г" d="M135 0v1062h675v-229h-410v-833h-265z"/>
<glyph glyph-name="afii10069" horiz-adv-x="1136" unicode="д" d="M422 229h313v604h-215q-6 -210 -31 -357t-67 -247zM30 -211v440h106q32 47 55.5 118t39 172.5t23 235.5t7.5 307h739v-833h106v-440h-265v211h-546v-211h-265z"/>
<glyph glyph-name="afii10070" horiz-adv-x="1140" unicode="е" d="M367 655h407q0 104 -50 157t-153 53q-51 0 -88.5 -14t-62 -40t-37.5 -63t-16 -93zM80 523q0 131 30 235t91 176.5t153.5 111t216.5 38.5q121 0 212.5 -38.5t153 -110.5t92.5 -174t31 -228v-97h-704q3 -72 20 -115.5t48.5 -71t77.5 -40t105 -12.5q52 0 97.5 3.5t92 11.5 t97 22.5t111.5 36.5v-227q-97 -33 -192.5 -49.5t-205.5 -16.5q-142 0 -242 37.5t-163.5 107.5t-92.5 171t-29 229z"/>
<glyph glyph-name="afii10072" horiz-adv-x="1458" unicode="ж" d="M29 0q51 182 121.5 328.5t176.5 263.5q-50 46 -90.5 103t-71 118.5t-52.5 125t-35 123.5h274q12 -62 33 -124t51.5 -115t70 -92t89.5 -54v385h265v-385q49 15 89 54t70.5 92t51.5 115t33 124h274q-13 -60 -35 -123.5t-52.5 -125t-71 -118.5t-90.5 -103 q106 -117 176.5 -263.5t121.5 -328.5h-269q-28 79 -54 146.5t-54.5 125.5t-63 108.5t-80.5 95.5q-11 -3 -22.5 -5.5t-23.5 -4.5v-466h-265v466q-12 2 -23.5 4.5t-22.5 5.5q-46 -45 -80.5 -95.5t-63 -108.5t-54.5 -125.5t-54 -146.5h-269z"/>
<glyph glyph-name="afii10073" horiz-adv-x="994" unicode="з" d="M80 34v244q41 -15 87.5 -29t95 -24.5t97 -16.5t93.5 -6q99 0 144.5 35t45.5 92q0 54 -48 78t-142 24h-214v229h214q28 0 55 5t48 16.5t34 30.5t13 46q0 55 -40.5 78.5t-109.5 23.5q-78 0 -156.5 -13t-159.5 -34v240q60 11 144.5 21t171.5 10q95 0 172.5 -20.5 t132.5 -60.5t85 -99t30 -136q0 -31 -8.5 -61t-24 -55.5t-37 -45.5t-47.5 -32q77 -32 117.5 -94.5t40.5 -141.5q0 -83 -31.5 -149.5t-90.5 -113.5t-144.5 -72t-194.5 -25q-44 0 -96.5 4.5t-103.5 12.5t-97 18t-76 21z"/>
<glyph glyph-name="afii10074" horiz-adv-x="1135" unicode="и" d="M135 0v1062h265v-557q15 35 38 78t52 91t62 98.5t67 101t69 98.5t67 90h245v-1062h-267v634q-45 -67 -91 -143.5t-91 -158.5t-87.5 -166t-80.5 -166h-248z"/>
<glyph glyph-name="afii10075" horiz-adv-x="1135" unicode="й" d="M229 1463h186q8 -44 21 -72t30.5 -43.5t38.5 -21t44 -5.5q24 0 45.5 5.5t39 21t30 43.5t19.5 72h187q-8 -68 -34.5 -123t-68 -93.5t-97 -60t-122.5 -21.5q-66 0 -120.5 21.5t-95.5 60t-68 93.5t-35 123zM135 0v1062h265v-557q15 35 38 78t52 91t62 98.5t67 101t69 98.5 t67 90h245v-1062h-267v634q-45 -67 -91 -143.5t-91 -158.5t-87.5 -166t-80.5 -166h-248z"/>
<glyph glyph-name="afii10076" horiz-adv-x="1086" unicode="к" d="M135 0v1062h265v-375q53 13 96.5 48.5t79 85.5t64 112t50.5 129h283q-18 -63 -46.5 -128t-65.5 -126.5t-82 -117t-97 -101.5q115 -113 204 -259.5t140 -329.5h-275q-56 155 -128.5 267t-166.5 196q-14 -4 -28 -6.5t-28 -4.5v-452h-265z"/>
<glyph glyph-name="afii10077" horiz-adv-x="1117" unicode="л" d="M50 -20v231q31 1 58.5 14t50 46.5t40 93t29.5 153.5t18.5 228t6.5 316h729v-1062h-265v833h-205q-6 -188 -25.5 -324t-51 -230.5t-73.5 -153t-91.5 -91t-105 -43.5t-115.5 -11z"/>
<glyph glyph-name="afii10078" horiz-adv-x="1389" unicode="м" d="M135 0v1062h234q22 -22 51 -55t60 -74.5t62.5 -88.5t60 -96.5t52 -99.5t38.5 -96q23 69 64 145.5t88 147t94 128.5t81 89h234v-1062h-265v668q-32 -42 -62 -100.5t-55 -123t-44.5 -129t-29.5 -117.5h-212q-10 52 -29.5 116.5t-44.5 129.5t-54 124t-58 100v-668h-265z"/>
<glyph glyph-name="afii10079" horiz-adv-x="1153" unicode="н" d="M135 0v1062h265v-402h353v402h265v-1062h-265v431h-353v-431h-265z"/>
<glyph glyph-name="afii10080" horiz-adv-x="1137" unicode="о" d="M351 531q0 -76 12.5 -135.5t38.5 -100t67.5 -62t99.5 -21.5t99.5 21.5t67.5 62t38.5 100t12.5 135.5t-12.5 135t-38.5 100t-67.5 62.5t-99.5 21.5t-99.5 -21.5t-67.5 -62.5t-38.5 -100t-12.5 -135zM80 531q0 114 26 215t84.5 176t151.5 118.5t227 43.5q133 0 226 -43.5 t151 -118.5t84.5 -176t26.5 -215t-26.5 -215t-84.5 -176t-151 -118.5t-226 -43.5q-134 0 -227 43.5t-151.5 118.5t-84.5 176t-26 215z"/>
<glyph glyph-name="afii10081" horiz-adv-x="1153" unicode="п" d="M135 0v1062h883v-1062h-265v833h-353v-833h-265z"/>
<glyph glyph-name="afii10082" horiz-adv-x="1143" unicode="р" d="M400 221q25 -8 58 -13.5t72 -5.5q44 0 92.5 12t88.5 48t66 103t26 178q0 90 -16.5 151t-46.5 98t-70.5 52.5t-88.5 15.5q-60 0 -107.5 -20t-73.5 -51v-568zM135 -407v1469h249v-61q47 43 113 63t132 20q89 0 169.5 -29.5t141.5 -94t97 -166.5t36 -247q0 -119 -24.5 -207 t-66.5 -151.5t-97 -104t-116 -64.5t-123.5 -33t-118.5 -9q-37 0 -68 3.5t-59 8.5v-397h-265z"/>
<glyph glyph-name="afii10083" horiz-adv-x="968" unicode="с" d="M80 531q0 128 30 230.5t93 174t160.5 110t232.5 38.5q75 0 145.5 -12.5t146.5 -38.5v-231q-77 28 -151.5 43t-140.5 15q-119 0 -182 -78.5t-63 -250.5q0 -95 17.5 -158t50 -101t79.5 -54t107 -16q66 0 139.5 16t143.5 42v-229q-30 -12 -65.5 -22t-72 -17t-74 -10.5 t-71.5 -3.5q-268 0 -396.5 135.5t-128.5 417.5z"/>
<glyph glyph-name="afii10084" horiz-adv-x="894" unicode="т" d="M15 833v229h864v-229h-300v-833h-265v833h-299z"/>
<glyph glyph-name="afii10085" horiz-adv-x="1055" unicode="у" d="M50 1062h265q10 -68 33 -151.5t56 -175t73 -187t83 -188.5q36 94 68.5 189.5t59 186.5t46 174t29.5 152h262q-11 -84 -37.5 -188.5t-61.5 -214t-73.5 -216.5t-73.5 -197t-63 -155.5t-40 -90.5q-45 -92 -93 -170t-102.5 -135t-117.5 -89.5t-139 -32.5q-29 0 -68.5 4.5 t-80.5 15.5v237q29 -12 62.5 -17t61.5 -5q36 0 64.5 12.5t54.5 41t52.5 73.5t57.5 111q-40 76 -81 164t-80 180.5t-74.5 186t-64.5 181t-49.5 165.5t-28.5 139z"/>
<glyph glyph-name="afii10086" horiz-adv-x="1512" unicode="ф" d="M889 215q23 -11 49 -14.5t58 -3.5q44 0 78.5 17t58.5 56t36.5 103t12.5 158q0 91 -12.5 154.5t-36.5 103.5t-58.5 58t-78.5 18q-33 0 -60 -7t-47 -18v-625zM331 531q0 -94 12.5 -158t36.5 -103t58.5 -56t78.5 -17q32 0 57.5 4t49.5 15v624q-20 11 -47 18t-60 7 q-44 0 -78.5 -18t-58.5 -58t-36.5 -103.5t-12.5 -154.5zM60 531q0 106 17 188.5t47 144t71 103.5t90.5 68t105 37.5t113.5 11.5q32 0 61.5 -3.5t58.5 -10.5v396h265v-396q58 14 120 14q87 0 167 -26.5t141.5 -90.5t98 -170.5t36.5 -265.5q0 -158 -36.5 -264t-97.5 -170 t-140.5 -91.5t-164.5 -27.5q-35 0 -65.5 3.5t-58.5 8.5v-397h-265v397q-29 -5 -59.5 -8.5t-65.5 -3.5q-85 0 -164.5 27.5t-140.5 91.5t-97.5 170t-36.5 264z"/>
<glyph glyph-name="afii10087" horiz-adv-x="1077" unicode="х" d="M40 0q36 88 76.5 163.5t83.5 141.5t88 124.5t90 112.5q-43 52 -85 107.5t-83 119t-79.5 136t-74.5 157.5h284q38 -94 88.5 -173t109.5 -154q59 75 110 154.5t89 172.5h284q-36 -85 -74.5 -157.5t-79.5 -136t-83.5 -119t-84.5 -107.5q45 -54 89.5 -112.5t87.5 -124.5 t84 -141.5t77 -163.5h-280q-45 101 -100.5 185t-118.5 163q-63 -79 -118 -163t-100 -185h-280z"/>
<glyph glyph-name="afii10088" horiz-adv-x="1163" unicode="ц" d="M135 0v1062h265v-833h353v833h265v-833h135v-439h-265v210h-753z"/>
<glyph glyph-name="afii10089" horiz-adv-x="1113" unicode="ч" d="M120 668v394h265v-376q0 -41 7 -71t23.5 -49.5t45 -29.5t71.5 -10q57 0 105 18t76 51v467h265v-1062h-265v345q-45 -21 -98.5 -32.5t-119.5 -11.5q-89 0 -158.5 23.5t-117.5 70t-73.5 115t-25.5 158.5z"/>
<glyph glyph-name="afii10090" horiz-adv-x="1594" unicode="ш" d="M135 0v1062h265v-833h264v833h265v-833h265v833h265v-1062h-1324z"/>
<glyph glyph-name="afii10091" horiz-adv-x="1603" unicode="щ" d="M135 0v1062h265v-833h264v833h265v-833h264v833h265v-833h135v-440h-265v211h-1193z"/>
<glyph glyph-name="afii10092" horiz-adv-x="1108" unicode="ъ" d="M475 229h169q53 0 87 25.5t34 84.5q0 61 -34.5 89.5t-95.5 28.5q-37 0 -77.5 -4t-82.5 -11v-213zM0 833v229h475v-388q42 5 83 8t81 3q198 0 298 -87t100 -253q0 -80 -23.5 -143.5t-72.5 -108.5t-123 -69t-174 -24h-434v833h-210z"/>
<glyph glyph-name="afii10093" horiz-adv-x="1468" unicode="ы" d="M1098 0v1062h265v-1062h-265zM400 229h160q53 0 87 25.5t34 84.5q0 61 -34.5 89.5t-95.5 28.5q-37 0 -73 -4t-78 -11v-213zM135 0v1062h265v-388q42 5 78.5 8t76.5 3q198 0 298 -87t100 -253q0 -80 -23.5 -143.5t-72.5 -108.5t-123 -69t-174 -24h-425z"/>
<glyph glyph-name="afii10094" horiz-adv-x="1033" unicode="ь" d="M400 229h190q53 0 87 25.5t34 84.5q0 30 -12 52.5t-32.5 37t-48 21.5t-57.5 7q-37 0 -78 -4t-83 -11v-213zM135 0v1062h265v-388q42 5 83.5 8t81.5 3q99 0 176.5 -22t131 -65.5t82 -107t28.5 -145.5q0 -80 -23.5 -143.5t-72.5 -108.5t-123 -69t-174 -24h-455z"/>
<glyph glyph-name="afii10095" horiz-adv-x="948" unicode="э" d="M60 31v229q70 -26 143.5 -42t139.5 -16q51 0 92.5 11.5t73.5 38t52.5 70.5t29.5 109h-419v229h413q-22 104 -80.5 152t-152.5 48q-66 0 -140.5 -15t-151.5 -43v231q76 26 146.5 38.5t145.5 12.5q135 0 232.5 -38.5t160.5 -110t93 -174t30 -230.5q0 -282 -128.5 -417.5 t-396.5 -135.5q-35 0 -72 3.5t-73.5 10.5t-72 17t-65.5 22z"/>
<glyph glyph-name="afii10096" horiz-adv-x="1575" unicode="ю" d="M825 531q0 -76 10 -136.5t33 -103t61.5 -65t95.5 -22.5t95 22.5t61.5 65t33 103t9.5 136.5t-9.5 136.5t-33 103t-61.5 65t-95 22.5t-95.5 -22.5t-61.5 -65t-33 -103t-10 -136.5zM135 1v1061h267v-402h160q11 91 41.5 168t86 133.5t138 88.5t197.5 32q133 0 223.5 -43 t145 -118t78 -175.5t23.5 -214.5t-23.5 -214.5t-78 -175.5t-145 -118t-223.5 -43q-120 0 -204 34.5t-139.5 95t-84.5 143t-38 178.5h-157v-430h-267z"/>
<glyph glyph-name="afii10097" horiz-adv-x="1102" unicode="я" d="M370 707q0 -28 12 -51t34 -39.5t51.5 -25.5t64.5 -9q40 0 85.5 5t84.5 19v226h-171q-42 0 -72.5 -9.5t-50 -26.5t-29 -40t-9.5 -49zM20 0q58 145 134.5 249t184.5 178q-57 12 -101.5 39t-75 65t-46.5 84t-16 96q0 98 37 165t99.5 108.5t144 59.5t171.5 18h415v-1062h-265 v378q-55 -20 -109.5 -50t-106.5 -75t-100.5 -107.5t-90.5 -145.5h-275z"/>
<glyph glyph-name="afii10071" horiz-adv-x="1140" unicode="ё" d="M643 1177v277h274v-277h-274zM367 655h407q0 104 -50 157t-153 53q-51 0 -88.5 -14t-62 -40t-37.5 -63t-16 -93zM255 1177v277h274v-277h-274zM80 523q0 131 30 235t91 176.5t153.5 111t216.5 38.5q121 0 212.5 -38.5t153 -110.5t92.5 -174t31 -228v-97h-704 q3 -72 20 -115.5t48.5 -71t77.5 -40t105 -12.5q52 0 97.5 3.5t92 11.5t97 22.5t111.5 36.5v-227q-97 -33 -192.5 -49.5t-205.5 -16.5q-142 0 -242 37.5t-163.5 107.5t-92.5 171t-29 229z"/>
<glyph glyph-name="afii10099" horiz-adv-x="1136" unicode="ђ" d="M10 1196v158h153v112h265v-112h163v-158h-163v-158q42 20 92.5 32t113.5 12q91 0 169.5 -30t136.5 -96t91 -171t33 -254q0 -84 -12 -179t-30.5 -189.5t-42 -182.5t-46.5 -156h-281q22 66 47 154t46 184t35 192t14 177q0 89 -12 150t-36 98t-59 53t-81 16q-38 0 -67 -7 t-51 -17.5t-36.5 -22.5t-23.5 -23v-778h-265v1196h-153z"/>
<glyph glyph-name="afii10100" horiz-adv-x="800" unicode="ѓ" d="M180 1221l228 398h332l-265 -398h-295zM131 0v1062h675v-229h-410v-833h-265z"/>
<glyph glyph-name="afii10101" horiz-adv-x="941" unicode="є" d="M82 531q0 128 30 230.5t93 174t160.5 110t232.5 38.5q75 0 145.5 -12.5t146.5 -38.5v-231q-77 28 -151.5 43t-140.5 15q-94 0 -152.5 -48t-80.5 -152h413v-229h-419q9 -65 29.5 -109t52.5 -70.5t73.5 -38t92.5 -11.5q66 0 139.5 16t143.5 42v-229q-30 -12 -65.5 -22 t-72 -17t-73.5 -10.5t-72 -3.5q-268 0 -396.5 135.5t-128.5 417.5z"/>
<glyph glyph-name="afii10102" horiz-adv-x="971" unicode="ѕ" d="M110 760q0 78 29.5 138.5t83.5 102t129.5 62.5t167.5 21q95 0 167.5 -10.5t132.5 -30.5v-230q-86 29 -160.5 38t-139.5 9q-70 0 -107.5 -22.5t-37.5 -70.5q0 -20 12 -36t33 -28.5t49 -22t61 -18.5q62 -16 126 -39.5t116.5 -63.5t85.5 -102t33 -155q0 -78 -30 -138.5 t-84 -102t-129.5 -62.5t-167.5 -21q-44 0 -93 5t-96 13t-90 19.5t-76 25.5v235q81 -29 172.5 -52.5t182.5 -23.5q76 0 111 25.5t35 76.5q0 33 -16 56t-43 39t-61 27t-70 21q-48 13 -104.5 32t-106 53.5t-82.5 89.5t-33 140z"/>
<glyph glyph-name="afii10103" horiz-adv-x="535" unicode="і" d="M135 1177v289h265v-289h-265zM135 0v1062h265v-1062h-265z"/>
<glyph glyph-name="afii10104" horiz-adv-x="535" unicode="ї" d="M365 1177v277h274v-277h-274zM135 0v1062h265v-1062h-265zM-23 1177v277h274v-277h-274z"/>
<glyph glyph-name="afii10105" horiz-adv-x="535" unicode="ј" d="M135 1178v288h265v-288h-265zM-128 -194q29 -6 54.5 -9.5t48.5 -3.5q37 0 67 10.5t50.5 35.5t31.5 66.5t11 104.5v1052h265v-1052q0 -120 -29 -203.5t-79.5 -135.5t-118.5 -75t-145 -23q-27 0 -68 1.5t-88 12.5v219z"/>
<glyph glyph-name="afii10106" horiz-adv-x="1696" unicode="љ" d="M996 229h190q53 0 87 25.5t34 84.5q0 30 -12 52.5t-32.5 37t-48 21.5t-57.5 7q-37 0 -78 -4t-83 -11v-213zM64 -20v231q31 1 58.5 14t50 46.5t40 93t29.5 153.5t18.5 228t6.5 316h729v-388q42 5 83.5 8t81.5 3q99 0 176.5 -22t131 -65.5t82 -107t28.5 -145.5 q0 -80 -23.5 -143.5t-72.5 -108.5t-123 -69t-174 -24h-455v833h-205q-6 -188 -26 -324t-51.5 -230.5t-73 -153t-91 -91t-105 -43.5t-115.5 -11z"/>
<glyph glyph-name="afii10107" horiz-adv-x="1718" unicode="њ" d="M1017 229h190q53 0 87 25.5t34 84.5q0 61 -40.5 89.5t-109.5 28.5q-37 0 -78 -4t-83 -11v-213zM134 0v1062h265v-402h353v402h265v-388q42 5 83.5 8t81.5 3q99 0 176.5 -22t131 -65.5t82 -107t28.5 -145.5q0 -80 -23.5 -143.5t-72.5 -108.5t-123 -69t-174 -24h-455v431 h-353v-431h-265z"/>
<glyph glyph-name="afii10108" horiz-adv-x="1128" unicode="ћ" d="M14 1196v158h121v112h265v-112h195v-158h-195v-163q45 24 98.5 36.5t119.5 12.5q89 0 158.5 -25t117.5 -72.5t73.5 -116.5t25.5 -157v-711h-265v687q0 40 -6.5 70t-23 50.5t-44.5 30.5t-70 10q-38 0 -71.5 -10t-58.5 -29.5t-39.5 -48.5t-14.5 -66v-694h-265v1196h-121z "/>
<glyph glyph-name="afii10109" horiz-adv-x="1086" unicode="ќ" d="M304 1168l228 398h332l-265 -398h-295zM135 0v1062h265v-375q53 13 96.5 48.5t79 85.5t64 112t50.5 129h283q-18 -63 -46.5 -128t-65.5 -126.5t-82 -117t-97 -101.5q115 -113 204 -259.5t140 -329.5h-275q-56 155 -128.5 267t-166.5 196q-14 -4 -28 -6.5t-28 -4.5v-452 h-265z"/>
<glyph glyph-name="afii10110" horiz-adv-x="1055" unicode="ў" d="M205 1506h206q8 -49 22.5 -79.5t34 -48t42.5 -23.5t49 -6t49.5 6t43 23.5t33.5 48t22 79.5h206q-9 -75 -38 -136t-75 -103.5t-107.5 -66t-135.5 -23.5q-72 0 -132.5 23.5t-106 66t-75 103.5t-38.5 136zM50 1062h265q10 -68 33 -151.5t56 -175t73 -187t83 -188.5 q36 94 68.5 189.5t59 186.5t46 174t29.5 152h262q-11 -84 -37.5 -188.5t-61.5 -214t-73.5 -216.5t-73.5 -197t-63 -155.5t-40 -90.5q-45 -92 -93 -170t-102.5 -135t-117.5 -89.5t-139 -32.5q-29 0 -68.5 4.5t-80.5 15.5v237q29 -12 62.5 -17t61.5 -5q36 0 64.5 12.5t54.5 41 t52.5 73.5t57.5 111q-40 76 -81 164t-80 180.5t-74.5 186t-64.5 181t-49.5 165.5t-28.5 139z"/>
<glyph glyph-name="afii10193" horiz-adv-x="1136" unicode="џ" d="M159 0v1062h265v-833h353v833h265v-1062h-308v-196h-266v196h-309z"/>
<glyph glyph-name="afii10050" horiz-adv-x="1091" unicode="Ґ" d="M166 0v1466h678v201h272v-462h-665v-1205h-285z"/>
<glyph glyph-name="afii10098" horiz-adv-x="800" unicode="ґ" d="M151 0v1062h410v176h265v-405h-410v-833h-265z"/>
<glyph glyph-name="uni2002" horiz-adv-x="985" unicode=" "/>
<glyph glyph-name="uni2003" horiz-adv-x="1970" unicode=" "/>
<glyph glyph-name="uni2009" horiz-adv-x="394" unicode=" "/>
<glyph glyph-name="endash" horiz-adv-x="878" unicode="–" d="M6 440v232h868v-232h-868z"/>
<glyph glyph-name="emdash" horiz-adv-x="1364" unicode="—" d="M17 440v232h1310v-232h-1310z"/>
<glyph glyph-name="quoteleft" horiz-adv-x="520" unicode="‘" d="M109 892v235q0 127 52 218.5t161 141.5l88 -139q-54 -24 -77 -71.5t-23 -100.5h87v-284h-288z"/>
<glyph glyph-name="quotesinglbase" horiz-adv-x="520" unicode="‚" d="M175 -172q54 24 77 71.5t23 100.5h-87v284h288v-235q0 -127 -52 -218.5t-161 -141.5z"/>
<glyph glyph-name="quotedblleft" horiz-adv-x="870" unicode="“" d="M459 892v235q0 127 52 218.5t161 141.5l88 -139q-54 -24 -77 -71.5t-23 -100.5h87v-284h-288zM109 892v235q0 127 52 218.5t161 141.5l88 -139q-54 -24 -77 -71.5t-23 -100.5h87v-284h-288z"/>
<glyph glyph-name="quotedblright" horiz-adv-x="870" unicode="”" d="M525 1089q54 24 77 71.5t23 100.5h-87v284h288v-235q0 -127 -52 -218.5t-161 -141.5zM175 1089q54 24 77 71.5t23 100.5h-87v284h288v-235q0 -127 -52 -218.5t-161 -141.5z"/>
<glyph glyph-name="ellipsis" horiz-adv-x="1438" unicode="…" d="M1107 0v284h288v-284h-288zM642 0v284h288v-284h-288zM176 0v284h288v-284h-288z"/>
<glyph glyph-name="guilsinglleft" horiz-adv-x="628" unicode="‹" d="M-7 528l286 463h278q-27 -49 -59 -108t-68 -121q-34 -62 -68 -122t-62 -112l257 -463h-278z"/>
<glyph glyph-name="guilsinglright" horiz-adv-x="628" unicode="›" d="M30 65l257 463q-29 51 -62.5 111.5t-68 122.5t-67 121t-59.5 108h278l286 -463l-286 -463h-278z"/>
<glyph glyph-name="Euro" horiz-adv-x="1209" unicode="€" d="M46 486l40 189h100q-3 24 -3 51q0 8 0.5 15t0.5 15h-129l39 190h106q25 122 75 222t123.5 171t170 110t214.5 39q85 0 168 -22t164 -67l-54 -289q-27 37 -60.5 63.5t-69.5 43.5t-74 25t-74 8q-60 0 -108 -23.5t-84 -64.5t-60.5 -96.5t-37.5 -119.5h530l-35 -190h-509 q-2 -11 -2 -20.5v-20.5v-20t2 -20h492l-35 -189h-439q11 -63 37 -113t62.5 -85t81.5 -53.5t95 -18.5q42 0 80 6t73 20.5t69.5 37.5t69.5 56v-290q-72 -32 -144.5 -50t-147.5 -18q-111 0 -204.5 34t-166 99t-122.5 159.5t-75 215.5h-159z"/>
<glyph glyph-name="trademark" horiz-adv-x="1531" unicode="™" d="M669 735v731h156q49 -38 109 -115.5t114 -186.5q25 51 54 98t58.5 86.5t57.5 69.5t52 48h155v-731h-192v453q-33 -48 -60 -113t-61 -155h-131q-32 88 -60 153t-59 113v-451h-193zM29 1305v161h590v-161h-199v-570h-192v570h-199z"/>
</font>
</defs>
</svg>
