<?xml version="1.0" encoding="UTF-8" standalone="no"?>
<!DOCTYPE svg  PUBLIC '-//W3C//DTD SVG 1.1//EN'  'http://www.w3.org/Graphics/SVG/1.1/DTD/svg11.dtd'>
<svg xmlns="http://www.w3.org/2000/svg">
<defs>
<font id="ArianAMU-Regular" horiz-adv-x="1229">
<font-face underline-position="-142" font-weight="400" descent="-410" panose-1="1 0 0 0 0 0 0 0 0 0" units-per-em="2048" unicode-range="U+000D-2122" bbox="-191 -427 2144 1870" x-height="1062" underline-thickness="150" font-family="ArianAMU" ascent="1638" cap-height="1466"/>
<missing-glyph horiz-adv-x="2048"/>
<glyph glyph-name=".notdef" horiz-adv-x="2048"/>
<glyph glyph-name="glyph1" horiz-adv-x="2048"/>
<glyph glyph-name="glyph1" horiz-adv-x="2048"/>
<glyph glyph-name="uni000D" horiz-adv-x="2048" unicode=""/>
<glyph glyph-name="space" horiz-adv-x="484" unicode=" "/>
<glyph glyph-name="exclam" horiz-adv-x="514" unicode="!" d="M158 0v205h198v-205h-198zM150 1141v325h214v-325l-50 -777h-111z"/>
<glyph glyph-name="quotedbl" horiz-adv-x="716" unicode='&quot;' d="M419 1226v240h197v-240l-46 -279h-104zM100 1226v240h197v-240l-43 -279h-106z"/>
<glyph glyph-name="numbersign" horiz-adv-x="1248" unicode="#" d="M435 550h302l72 363h-303zM100 401v149h191l71 363h-262v149h291l84 429h144l-84 -429h302l84 429h145l-84 -429h166v-149h-194l-72 -363h266v-149h-295l-84 -426h-144l83 426h-302l-83 -426h-144l83 426h-162z"/>
<glyph glyph-name="dollar" horiz-adv-x="1221" unicode="$" d="M681 154q216 33 216 235q0 54 -16.5 94t-45.5 69t-68.5 49.5t-85.5 36.5v-484zM341 1077q0 -44 16 -76t44 -56t66 -41.5t83 -31.5v438q-209 -34 -209 -233zM133 1077q0 90 28.5 160.5t82 121.5t131 82t175.5 42v118h131v-113q55 -1 100.5 -3.5t84 -7t70.5 -9.5t61 -10 v-185q-38 10 -72 18t-71 13.5t-79 9t-94 4.5v-484q51 -15 102 -32t98.5 -40.5t88 -55.5t71 -76.5t47.5 -104t17 -136.5q0 -90 -29 -161.5t-84 -122.5t-133.5 -82t-177.5 -40v-194h-131v190q-58 1 -115.5 6.5t-109.5 14t-95 19t-73 21.5v185q74 -28 168.5 -50.5t224.5 -26.5 v529q-51 14 -101.5 29.5t-96.5 36t-86 48.5t-69.5 68t-46.5 93.5t-17 124.5z"/>
<glyph glyph-name="percent" horiz-adv-x="1689" unicode="%" d="M1117 366q0 -128 38.5 -192t111.5 -64q77 0 114 65t37 205q0 128 -38 192.5t-112 64.5q-78 0 -114.5 -67.5t-36.5 -203.5zM966 384q0 84 20.5 153.5t58.5 119t93.5 77t124.5 27.5q70 0 127 -26.5t96.5 -77t61 -122.5t21.5 -162t-22 -162t-62 -122t-96.5 -76.5 t-124.5 -26.5q-70 0 -125.5 27.5t-93.5 79t-58.5 125.5t-20.5 166zM381 -22l777 1510h140l-774 -1510h-143zM271 1096q0 -256 150 -256q75 0 112.5 65t37.5 205q0 128 -38 192.5t-112 64.5q-150 0 -150 -271zM120 1114q0 84 20.5 153.5t59 119t93 77t123.5 27.5 q70 0 127 -26.5t96.5 -77t61 -122.5t21.5 -162q0 -89 -22.5 -161t-62.5 -122t-96 -77t-123 -27q-70 0 -125.5 27.5t-93.5 79t-58.5 125.5t-20.5 166z"/>
<glyph glyph-name="ampersand" horiz-adv-x="1503" unicode="&amp;" d="M130 415q0 134 60 225.5t169 135.5q-44 19 -79.5 51t-61 74t-39 94t-13.5 112q0 99 36.5 171t105 118.5t165.5 69t218 22.5q126 0 216 -9.5t152 -20.5v-185q-40 10 -80 19.5t-83.5 16.5t-93.5 11t-111 4q-73 0 -133.5 -8.5t-104 -32.5t-67.5 -66.5t-24 -109.5 q0 -68 21 -115.5t58.5 -78t88.5 -44.5t111 -14h14v-174h-14q-153 0 -234 -67t-81 -199q0 -129 92 -203t273 -74t274 74t93 203v266h-212v174h607v-174h-199v-266q0 -107 -42.5 -188.5t-118 -137t-178.5 -83.5t-224 -28q-122 0 -224.5 28t-177.5 83.5t-117 137t-42 188.5z "/>
<glyph glyph-name="quotesingle" horiz-adv-x="397" unicode="&apos;" d="M100 1221v245h197v-245l-46 -274h-106z"/>
<glyph glyph-name="parenleft" horiz-adv-x="607" unicode="(" d="M100 540q0 256 78 487.5t228 438.5h171q-57 -83 -108 -179.5t-90 -210.5t-61.5 -247t-22.5 -289t22.5 -292.5t61.5 -254.5t90 -218t108 -182h-171q-150 207 -228 449t-78 498z"/>
<glyph glyph-name="parenright" horiz-adv-x="607" unicode=")" d="M30 -407q57 82 108 182t90 218t61.5 254.5t22.5 292.5t-22.5 289t-61.5 247t-90 210.5t-108 179.5h171q150 -207 228 -438.5t78 -487.5t-78 -498t-228 -449h-171z"/>
<glyph glyph-name="asterisk" horiz-adv-x="747" unicode="*" d="M30 1178l45 142l250 -106l-21 274h139l-20 -273l250 102l44 -142l-262 -62l183 -211l-118 -85l-147 237l-136 -238l-119 85l177 212z"/>
<glyph glyph-name="plus" horiz-adv-x="1031" unicode="+" d="M50 652v155h375v379h172v-379h384v-155h-384v-395h-172v395h-375z"/>
<glyph glyph-name="comma" horiz-adv-x="479" unicode="," d="M135 -213q56 25 83 73.5t27 139.5h-98v205h197v-205q0 -101 -37 -172q-41 -80 -124 -118z"/>
<glyph glyph-name="hyphen" horiz-adv-x="592" unicode="-" d="M50 440v181h492v-181h-492z"/>
<glyph glyph-name="period" horiz-adv-x="466" unicode="." d="M135 0v205h196v-205h-196z"/>
<glyph glyph-name="slash" horiz-adv-x="576" unicode="/" d="M10 0l417 1466h139l-418 -1466h-138z"/>
<glyph glyph-name="zero" d="M297 722q0 -67 3.5 -137t15 -136t33 -124.5t56.5 -102t86 -69t122 -25.5t122.5 25.5t87 69t57 102t33 124.5t15.5 136t4 137t-4 138.5t-15.5 140t-33 129.5t-57 107.5t-87 73.5t-123.5 27t-123 -27t-86 -73.5t-56 -107.5t-32 -129.5t-14.5 -140t-3.5 -138.5zM112 722 q0 87 7 178t27 176t54.5 160t90.5 131t135 88.5t187 32.5t187.5 -33.5t135.5 -90t91 -132.5t55 -161t27 -175t7 -174q0 -85 -7 -172.5t-27 -170.5t-55 -156t-91 -127.5t-135.5 -86t-187.5 -31.5t-187 30.5t-135 84t-90.5 125.5t-54.5 154.5t-27 172t-7 177.5z" unicode="0"/>
<glyph glyph-name="one" d="M418 1311v155h393v-1466h-172v1311h-221z" unicode="1"/>
<glyph glyph-name="two" d="M172 0v154q170 143 301 262.5t220 228t135 212t46 215.5q0 71 -24.5 121.5t-67 82t-99 46t-119.5 14.5q-48 0 -89.5 -3t-80 -9.5t-75.5 -15.5t-76 -21v161q60 14 139.5 27t177.5 13h28q112 -2 199.5 -30.5t147.5 -81.5t91 -129t31 -173q0 -87 -26 -170.5t-71.5 -164 t-107.5 -156.5t-134 -148t-151 -139.5t-158 -130.5h623v-165h-860z" unicode="2"/>
<glyph glyph-name="three" d="M180 22v155q24 -9 64.5 -18t87 -15.5t94.5 -11t88 -4.5q72 0 135.5 12t111 44t75.5 89.5t28 147.5t-27 147.5t-69.5 90t-94.5 44.5t-102 12h-79v152h76q54 0 99 14t77.5 43t50 74.5t17.5 108.5t-19.5 107t-54.5 71.5t-83 40t-105 12.5q-39 0 -84 -3t-89.5 -8.5t-84 -12.5 t-66.5 -16v158q32 8 72.5 14t83.5 10t86 6t82 2q90 0 170 -26t139.5 -75t94.5 -120t35 -161q0 -66 -16 -116.5t-42 -88t-58 -63.5t-64 -42q41 -17 84 -48t77.5 -77.5t56.5 -108.5t22 -140q0 -120 -43 -204.5t-116.5 -138t-170.5 -77.5t-205 -24q-39 0 -84 3.5t-90 9.5 t-86.5 14t-73.5 17z" unicode="3"/>
<glyph glyph-name="four" d="M293 516h504v701q-5 -14 -15 -29t-23 -28q-36 -39 -80 -91t-90 -111t-91.5 -121t-85 -120.5t-70.5 -110.5t-49 -90zM108 351v165q67 126 149.5 250t174.5 243.5t192.5 234t203.5 222.5h141v-950h151v-165h-151v-351h-172v351h-689z" unicode="4"/>
<glyph glyph-name="five" d="M167 31v155q31 -16 72 -27t86 -18t91.5 -10t88.5 -3q72 0 138.5 20t117.5 61t81.5 105t30.5 152q0 150 -68.5 235.5t-206.5 85.5q-85 0 -149 -29t-102 -96h-168q0 85 8 190t21 214t29.5 213t33.5 187h689v-165h-549q-6 -19 -12 -52t-12 -73.5t-11.5 -86t-10 -89 t-7.5 -81.5t-4 -64q22 20 53 35t66 25.5t71.5 16t68.5 5.5q96 0 178 -26.5t142 -82.5t94 -142t34 -204q0 -123 -43.5 -217.5t-119 -158t-178.5 -96t-221 -32.5q-39 0 -83 3t-87.5 9.5t-85 16.5t-76.5 24z" unicode="5"/>
<glyph glyph-name="six" d="M104 691q0 214 43.5 365.5t120.5 247.5t183 140t231 44q73 0 147 -9t134 -26v-162q-39 12 -74 21t-69.5 14.5t-69 8.5t-73.5 3q-83 0 -145.5 -26t-107 -71.5t-73.5 -107t-46 -132.5t-23.5 -147.5t-6.5 -152.5q0 -110 17.5 -211.5t59 -180.5t110 -126t171.5 -47 q66 0 121.5 22t96 65t63 106t22.5 146q0 67 -20 122.5t-57.5 96t-92 64t-123.5 26.5h-17q-32 0 -68.5 -6.5t-74 -22.5t-70 -38.5t-58.5 -50.5q-2 17 -2 41t1.5 49.5t3.5 51t5 46.5q63 42 137 62.5t148 20.5h20q101 -4 184.5 -37t143 -92.5t92.5 -143t33 -188.5 q0 -120 -39 -213t-106 -156.5t-156 -96t-188 -32.5q-66 0 -130.5 15t-123 48.5t-109 88t-87 134t-57.5 185t-21 242.5z" unicode="6"/>
<glyph glyph-name="seven" d="M159 1301v165h911v-165q-107 -155 -202.5 -316.5t-170.5 -326t-123.5 -330t-59.5 -328.5h-201q15 153 64.5 316t125.5 328.5t174 331.5t211 325h-729z" unicode="7"/>
<glyph glyph-name="eight" d="M334 1107q0 -61 19.5 -106.5t56 -75.5t88.5 -44.5t116 -14.5t116 14.5t88.5 44.5t56 75.5t19.5 106.5t-19.5 105t-56 72t-88.5 41t-116 13t-116 -13t-88.5 -41t-56 -72t-19.5 -105zM284 421q0 -78 23.5 -134t67 -91t104.5 -51.5t135 -16.5t135 16.5t104.5 51.5t67 91 t23.5 134t-25 134t-69 91.5t-104.5 52t-131.5 16.5q-67 0 -127 -16.5t-105 -52t-71.5 -91.5t-26.5 -134zM107 422q0 147 64.5 240t175.5 137q-91 44 -140.5 121t-49.5 186q0 91 36.5 162.5t99 120t145 74t175.5 25.5t175.5 -25.5t145 -74t99 -120t36.5 -162.5 q0 -109 -49.5 -186.5t-134.5 -122.5q48 -21 91 -54.5t75.5 -80t51.5 -106.5t19 -134q0 -114 -41 -197.5t-110.5 -138.5t-161.5 -81.5t-195 -26.5t-195 26.5t-161.5 81.5t-110 138.5t-40.5 197.5z" unicode="8"/>
<glyph glyph-name="nine" d="M103 990q0 120 39 213t106 156.5t156 96t188 32.5q66 0 130.5 -15t123 -48.5t109 -88t87 -134t57.5 -185.5t21 -242q0 -215 -43.5 -366t-120.5 -247t-183 -140t-231 -44q-73 0 -147 9t-134 26v162q39 -12 74 -21t69.5 -14.5t69 -8.5t73.5 -3q83 0 145.5 26t107 71.5 t73.5 107t46 132.5t23.5 147.5t6.5 152.5q0 73 -7.5 143t-24.5 133t-44.5 116t-67 91.5t-93 60t-121.5 21.5q-66 0 -121.5 -22t-96 -65t-63 -106.5t-22.5 -145.5q0 -67 20 -122.5t57.5 -96t92 -64t123.5 -26.5h17q32 0 68.5 6.5t74 22.5t70 38.5t58.5 50.5q1 -17 1.5 -41 t-1 -49.5t-3.5 -51t-5 -46.5q-63 -42 -137 -62.5t-148 -20.5h-20q-101 4 -184.5 37t-143 92t-92.5 143t-33 189z" unicode="9"/>
<glyph glyph-name="colon" horiz-adv-x="467" unicode=":" d="M135 857v205h197v-205h-197zM135 0v205h197v-205h-197z"/>
<glyph glyph-name="semicolon" horiz-adv-x="479" unicode=";" d="M147 857v205h197v-205h-197zM135 -213q55 24 81 74q14 26 21.5 60t7.5 79h-98v205h197v-205q0 -112 -38 -182t-123 -108z"/>
<glyph glyph-name="less" horiz-adv-x="1112" unicode="&lt;" d="M130 641v168l932 410v-179l-740 -316l740 -319v-179z"/>
<glyph glyph-name="equal" horiz-adv-x="1190" unicode="=" d="M130 862v168h930v-168h-930zM130 417v168h930v-168h-930z"/>
<glyph glyph-name="greater" horiz-adv-x="1112" unicode="&gt;" d="M130 226v179l738 319l-738 316v179l932 -410v-168z"/>
<glyph glyph-name="question" horiz-adv-x="969" unicode="?" d="M319 0v195h186v-195h-186zM80 1288v170q57 11 138 20.5t193 9.5q124 0 214.5 -25.5t149 -72.5t86.5 -113t28 -148q0 -73 -17 -126t-44.5 -94.5t-62.5 -75t-71.5 -66.5t-71.5 -69.5t-62.5 -83.5t-44.5 -108.5t-17 -144.5h-176q0 91 17 161.5t44 125.5t62 98t72 79t72 69 t62 68t44 75t17 92q0 43 -14 80.5t-45.5 65t-81.5 43t-123 15.5q-61 0 -111 -3t-93.5 -9t-83.5 -14.5t-80 -18.5z"/>
<glyph glyph-name="at" horiz-adv-x="1939" unicode="@" d="M620 434q0 -62 11 -118t37.5 -98t70 -66.5t109.5 -24.5q79 0 142 43t106.5 115t66.5 166t23 196q0 69 -17 122.5t-48 90t-76 56t-100 19.5q-66 0 -124.5 -29.5t-102 -91t-70 -156t-28.5 -224.5zM81 509q0 159 36.5 293.5t102 243.5t155 192t195.5 139t224.5 84.5 t240.5 28.5q178 -1 329 -57t261 -158t172 -245.5t62 -318.5q0 -91 -16.5 -180t-48 -170.5t-77.5 -151.5t-104.5 -121.5t-129.5 -80.5t-152 -29q-88 0 -142 44t-54 130q-60 -92 -144 -132.5t-191 -40.5q-72 0 -137 28.5t-114 85t-78 140t-29 194.5q0 143 36.5 263.5t103 208 t160.5 136.5t209 49q48 0 94 -11.5t84.5 -34.5t67 -57.5t43.5 -80.5l33 162h172l-163 -805q-2 -12 -3.5 -24t-1.5 -24q0 -18 4 -34t13.5 -27.5t26 -18.5t41.5 -7q72 0 136.5 48t113 130t76.5 189.5t28 226.5q0 159 -54.5 278.5t-148 200t-217 121t-261.5 40.5 q-184 0 -333.5 -63.5t-256 -177t-164.5 -269t-58 -339.5q0 -177 56.5 -324.5t162 -253.5t256.5 -165t340 -59q102 0 201.5 16t190 51t167.5 91t134 136h174q-42 -77 -100.5 -138.5t-128.5 -109t-148.5 -81.5t-161 -55.5t-166.5 -31.5t-165 -10q-131 0 -253 27t-228 80 t-193 132t-149.5 183t-96.5 233t-34 281z"/>
<glyph glyph-name="A" horiz-adv-x="1338" unicode="A" d="M0 0q21 103 55 226t76.5 254.5t91.5 267t100.5 264t104.5 244.5t103 210h276q50 -94 103 -210t104.5 -244.5t100.5 -264t91.5 -267t76 -254.5t55.5 -226h-188q-14 65 -34.5 143.5t-47 165.5t-57.5 181.5t-65 190.5h-486q1 4 6 17.5t12 32t14.5 39.5t14 39t11.5 31t6 15 h357q-45 117 -91.5 228t-94.5 211h-53q-48 -100 -95.5 -213t-92 -230t-86 -235t-76 -228.5t-61.5 -209.5t-43 -178h-188z"/>
<glyph glyph-name="B" horiz-adv-x="1353" unicode="B" d="M336 176h373q168 0 260 57.5t92 186.5q0 132 -91.5 196.5t-260.5 64.5h-293v174h293q67 0 121.5 12.5t92 38.5t58 67.5t20.5 100.5q0 67 -21.5 114t-60.5 76.5t-94 41.5q-51 12 -112 12h-10q-76 -1 -132 -4t-98.5 -6t-75 -5t-61.5 -2v-1125zM150 0v1466q71 0 140.5 3 t137.5 7.5t136.5 8t138.5 3.5q247 0 368.5 -107.5t121.5 -306.5q0 -98 -47.5 -173.5t-142.5 -117.5q128 -48 189 -143.5t61 -219.5q0 -107 -41 -186t-114 -131t-172.5 -77.5t-216.5 -25.5h-559z"/>
<glyph glyph-name="C" horiz-adv-x="1192" unicode="C" d="M90 733q0 166 40 304.5t123.5 238.5t212.5 156t307 56q126 0 216.5 -9.5t152.5 -20.5v-185q-40 10 -80 18.5t-84 14.5t-94 9t-111 3q-242 0 -365.5 -141.5t-123.5 -443.5q0 -158 32 -269t94.5 -181.5t155 -102.5t213.5 -32q39 0 84.5 1.5t93 6t94.5 12.5t91 20v-177 q-31 -6 -66.5 -12t-79 -10.5t-97 -7.5t-120.5 -3q-178 0 -308 49.5t-214.5 145t-125.5 236.5t-41 324z"/>
<glyph glyph-name="D" horiz-adv-x="1437" unicode="D" d="M336 176h330q126 0 218 31t151.5 98t88.5 173t31 255q0 302 -120 443.5t-363 141.5q-111 0 -193.5 -7t-142.5 -7v-1128zM150 0v1466q81 1 142.5 4.5t119 7.5t119 7t141.5 3q178 0 306 -53.5t210 -150.5t120.5 -231t38.5 -295q0 -183 -38 -324t-120 -237.5t-211 -146.5 t-312 -50h-516z"/>
<glyph glyph-name="E" horiz-adv-x="1272" unicode="E" d="M150 0v1466h979v-172h-793v-439h700v-174h-700v-505h816v-176h-1002z"/>
<glyph glyph-name="F" horiz-adv-x="1179" unicode="F" d="M150 0v1466h979v-172h-793v-439h700v-174h-700v-681h-186z"/>
<glyph glyph-name="G" horiz-adv-x="1466" unicode="G" d="M90 733q0 166 40.5 304.5t125 238.5t216 156t313.5 56q65 0 129.5 -5t121.5 -13t103.5 -17t75.5 -18v-185q-40 11 -89.5 23t-105 22t-115 16.5t-120.5 6.5q-249 0 -376 -141.5t-127 -443.5q0 -158 29.5 -269t89 -181.5t149.5 -102.5t211 -32q65 0 125 3t108.5 7t84 7 t51.5 3v513h-405v174h591v-855q-93 0 -163 -3.5t-132 -7.5t-123 -7.5t-137 -3.5q-178 0 -305 49.5t-208.5 145t-119.5 236.5t-38 324z"/>
<glyph glyph-name="H" horiz-adv-x="1403" unicode="H" d="M150 0v1466h186v-611h731v611h186v-1466h-186v681h-731v-681h-186z"/>
<glyph glyph-name="I" horiz-adv-x="486" unicode="I" d="M150 0v1466h186v-1466h-186z"/>
<glyph glyph-name="J" horiz-adv-x="486" unicode="J" d="M-191 -117q18 -3 35.5 -4t35.5 -1q58 0 107.5 15.5t85.5 55t56.5 108.5t20.5 176v1233h186v-1252q0 -127 -32.5 -223t-92.5 -160t-144 -96.5t-186 -32.5q-18 0 -36 1t-36 4v176z"/>
<glyph glyph-name="K" horiz-adv-x="1317" unicode="K" d="M150 0v1466h186v-611h18q40 0 93.5 14.5t113.5 45.5t123 79.5t121.5 116.5t108.5 156.5t84 198.5h196q-36 -120 -89 -221t-117.5 -183.5t-136.5 -147t-145 -110.5q60 -59 120.5 -125t117 -136t107 -141.5t90.5 -141.5t67.5 -136t38.5 -124h-195q-20 72 -68 162 t-116 185.5t-152 191.5t-177 180q-105 -38 -185 -38h-18v-681h-186z"/>
<glyph glyph-name="L" horiz-adv-x="1029" unicode="L" d="M150 0v1466h186v-1290h693v-176h-879z"/>
<glyph glyph-name="M" horiz-adv-x="1688" unicode="M" d="M150 0v1466h217q34 -30 75.5 -82.5t85.5 -117t88.5 -137t83 -141.5t69.5 -130t49 -104q17 -41 26 -87q5 23 13 45t16 42q18 43 49.5 104t70.5 130t83.5 141.5t89 137t86.5 117t76 82.5h210v-1466h-186v1189q0 12 0.5 23t1.5 18q-34 -42 -74 -103t-82 -132t-84 -148.5 t-79 -152t-66.5 -142t-47.5 -118.5h-154q-18 51 -47.5 118.5t-66.5 142t-79 152t-84 148.5t-82.5 132t-73.5 103q1 -7 1.5 -18t0.5 -23v-1189h-186z"/>
<glyph glyph-name="N" horiz-adv-x="1429" unicode="N" d="M150 0v1466h198q49 -37 109.5 -98t126 -138.5t133.5 -167.5t131.5 -185t119 -191.5t97.5 -186.5q5 -12 15.5 -43t16.5 -69q-4 38 -4 70v46v963h186v-1466h-183q-47 138 -111 273.5t-135.5 261.5t-146.5 238.5t-144 204t-127 158t-96 101.5v-1237h-186z"/>
<glyph glyph-name="O" horiz-adv-x="1470" unicode="O" d="M282 733q0 -145 25.5 -256t80 -186.5t140.5 -114t207 -38.5t206.5 38.5t140.5 114t80.5 186.5t25.5 256t-25.5 256t-80.5 186.5t-140.5 114t-206.5 38.5t-207 -38.5t-140.5 -114t-80 -186.5t-25.5 -256zM90 733q0 157 34 294.5t110.5 240t199.5 161.5t301 59t301 -59 t199.5 -161.5t110.5 -240t34 -294.5t-34 -294.5t-110.5 -240t-199.5 -161.5t-301 -59t-301 59t-199.5 161.5t-110.5 240t-34 294.5z"/>
<glyph glyph-name="P" horiz-adv-x="1307" unicode="P" d="M150 0v1466q84 0 156 3t135.5 7.5t119.5 8t108 3.5q150 0 256 -31.5t173 -90t98 -142.5t31 -189q0 -107 -41 -187t-112 -133t-165.5 -79.5t-201.5 -26.5q-28 0 -64 3t-75.5 9t-78.5 14t-73 19v184q31 -12 69.5 -22.5t77 -18.5t73.5 -13t59 -5q71 0 131.5 13.5t105 43 t70 77t25.5 116.5q0 64 -12.5 117t-49.5 91t-104.5 58.5t-176.5 20.5q-113 0 -197 -7.5t-151 -7.5v-1301h-186z"/>
<glyph glyph-name="Q" horiz-adv-x="1501" unicode="Q" d="M282 733q0 -145 25.5 -256t80 -186.5t140.5 -114t207 -38.5q140 0 234 52q-48 29 -97 52.5t-105 38.5v184q48 -7 91.5 -21.5t84 -34.5t79 -44t76.5 -50q47 75 68.5 179t21.5 239q0 145 -25.5 256t-80.5 186.5t-140.5 114t-206.5 38.5t-207 -38.5t-140.5 -114t-80 -186.5 t-25.5 -256zM90 733q0 157 34 294.5t110.5 240t199.5 161.5t301 59t301 -59t199.5 -161.5t110.5 -240t34 -294.5q0 -152 -31.5 -284t-101.5 -234q48 -29 97.5 -52.5t106.5 -38.5v-184q-47 6 -90 20.5t-83.5 34t-79 43t-76.5 49.5q-72 -52 -168 -80.5t-219 -28.5 q-178 0 -301 59t-199.5 161.5t-110.5 240t-34 294.5z"/>
<glyph glyph-name="R" horiz-adv-x="1379" unicode="R" d="M150 0v1466q76 0 148 3t138 7.5t124 8t107 3.5q150 0 254.5 -34.5t170.5 -95.5q66 -60 94 -144q26 -75 26 -163v-6v-13q-5 -177 -113.5 -273.5t-298.5 -116.5q88 -70 161.5 -149t133 -161.5t105.5 -166.5t79 -165h-202q-24 50 -61.5 113.5t-86 130.5t-107 134t-124.5 125 t-137 103t-145 68v176q31 -12 69 -22.5t76.5 -18.5t73 -13t58.5 -5q79 0 138 17t98.5 48t60 75.5t22.5 100.5v14q0 48 -12 92q-14 51 -50.5 90.5t-99.5 63.5t-159 24q-53 0 -98.5 -2.5t-88 -5t-83.5 -5t-85 -2.5v-1301h-186z"/>
<glyph glyph-name="S" horiz-adv-x="1232" unicode="S" d="M120 1077q0 100 39 177t109.5 129t169 78.5t218.5 26.5q126 0 216 -9.5t152 -20.5v-185q-40 10 -80 18.5t-83.5 14.5t-93.5 9t-111 3q-155 0 -241.5 -60.5t-86.5 -180.5q0 -64 34.5 -103.5t91 -66t129 -45t147.5 -40t147.5 -51.5t129 -78.5t91 -122t34.5 -181.5 q0 -101 -39 -177.5t-109.5 -128.5t-169 -78.5t-218.5 -26.5q-63 0 -129 5t-127 14t-112.5 20t-83.5 23v185q81 -30 193.5 -53.5t258.5 -23.5q155 0 241.5 60.5t86.5 180.5q0 62 -22.5 105.5t-61 73.5t-90 50.5t-109.5 37t-119 31.5t-119 35.5t-109.5 48t-90 69t-61 99.5 t-22.5 138z"/>
<glyph glyph-name="T" horiz-adv-x="1137" unicode="T" d="M10 1294v172h1117v-172h-466v-1294h-186v1294h-465z"/>
<glyph glyph-name="U" horiz-adv-x="1404" unicode="U" d="M150 506v960h186v-970q0 -87 27 -154t76 -112t116 -68.5t147 -23.5t147 23.5t116 68.5t76 112t27 154v970h186v-960q0 -126 -42.5 -224.5t-116.5 -166t-175 -102.5t-218 -35t-218 35t-175 102.5t-116.5 166t-42.5 224.5z"/>
<glyph glyph-name="V" horiz-adv-x="1277" unicode="V" d="M10 1466h190q6 -57 27.5 -143t54.5 -191t75.5 -223.5t89 -239t95.5 -238.5t96 -222q47 104 96 222t96 238.5t89 239t75 223.5t55 191t28 143h190q-10 -83 -40.5 -198t-74.5 -247t-97 -274t-108 -277.5t-109.5 -256.5t-99.5 -213h-199q-46 92 -100 213t-109 256.5 t-108 277.5t-97 274t-74.5 247t-40.5 198z"/>
<glyph glyph-name="W" horiz-adv-x="1817" unicode="W" d="M0 1466h190q6 -57 26 -142.5t50 -190t69 -222.5t82.5 -238.5t89.5 -238t91 -231.5q54 121 109.5 259t107.5 279q-42 118 -73.5 219t-57 193t-43.5 172t-25 141h190q6 -57 26 -142.5t50 -190t69 -222.5t82.5 -238.5t89.5 -238t91 -231.5q45 114 91.5 231.5t90 238 t82 238.5t69 222.5t50.5 190t26 142.5h190q-8 -62 -26 -142.5t-44 -174t-58 -195.5t-68.5 -207t-75.5 -209t-78 -200.5t-77 -182.5t-72 -155h-199q-48 95 -101.5 221t-107.5 268q-54 -142 -107 -268t-101 -221h-199q-34 69 -72 155t-77 182.5t-78 200.5t-75.5 209t-68.5 207 t-58 195.5t-44 174t-26 142.5z"/>
<glyph glyph-name="X" horiz-adv-x="1247" unicode="X" d="M10 0q39 97 94 192t120 188.5t138 185.5t147 182q-69 84 -136 170.5t-128.5 175.5t-114.5 182t-94 190h199q30 -71 72 -143t92.5 -144.5t107 -145.5t116.5 -146q60 73 116.5 146t107 145.5t92.5 144.5t73 143h199q-41 -97 -94 -190t-114.5 -182t-128.5 -175.5 t-136 -170.5q74 -90 146.5 -182t138 -185.5t120.5 -188.5t94 -192h-199q-33 76 -78.5 151.5t-99 151.5t-114 152t-123.5 153q-63 -77 -123 -153t-113.5 -152t-99 -151.5t-78.5 -151.5h-199z"/>
<glyph glyph-name="Y" horiz-adv-x="1318" unicode="Y" d="M0 1466h199q31 -71 80 -150.5t109 -163.5t129 -170.5t142 -171.5q72 85 141.5 171.5t129.5 170.5t108.5 163.5t80.5 150.5h199q-38 -92 -97.5 -192.5t-134 -206.5t-161 -213.5t-177.5 -212.5v-641h-190v655q-90 103 -174.5 209t-157 209.5t-131 203t-95.5 189.5z"/>
<glyph glyph-name="Z" horiz-adv-x="1263" unicode="Z" d="M90 0v178q21 57 68 139.5t112.5 180t145 204t163.5 211.5t169.5 203t162.5 178h-810v172h1059v-173q-84 -81 -177 -183t-184.5 -212t-176.5 -220t-153 -207t-114.5 -174.5t-60.5 -120.5h879v-176h-1083z"/>
<glyph glyph-name="bracketleft" horiz-adv-x="562" unicode="[" d="M150 -407v1873h382v-149h-209v-1575h209v-149h-382z"/>
<glyph glyph-name="backslash" horiz-adv-x="576" unicode="\" d="M10 1466h139l417 -1466h-138z"/>
<glyph glyph-name="bracketright" horiz-adv-x="562" unicode="]" d="M30 -258h209v1575h-209v149h382v-1873h-382v149z"/>
<glyph glyph-name="asciicircum" horiz-adv-x="919" unicode="^" d="M50 690l339 801h139l341 -801h-174l-237 597l-231 -597h-177z"/>
<glyph glyph-name="underscore" horiz-adv-x="1086" unicode="_" d="M-30 -277h1146v-130h-1146v130z"/>
<glyph glyph-name="grave" horiz-adv-x="441" unicode="`" d="M30 1466h223l158 -289h-194z"/>
<glyph glyph-name="a" horiz-adv-x="1093" unicode="a" d="M258 303q0 -47 17.5 -80t49 -54t74.5 -31t94 -10q103 0 172.5 25.5t120.5 88.5v250h-285q-65 0 -111.5 -15.5t-75.5 -41.5t-42.5 -60t-13.5 -72zM80 295q0 82 31.5 146.5t88 109t133.5 68t168 23.5h285v90q0 47 -16.5 84.5t-51 63.5t-88.5 40t-129 14q-43 0 -79 -2 t-68 -6t-62.5 -10t-62.5 -15v154q32 6 63 11.5t63.5 9.5t68 6t77.5 2q121 0 207.5 -25t142 -71t81.5 -110t26 -142v-736h-154v89q-40 -34 -80 -55.5t-82 -34t-87 -17t-96 -4.5q-91 0 -161.5 22.5t-119 64t-73.5 100t-25 130.5z"/>
<glyph glyph-name="b" horiz-adv-x="1139" unicode="b" d="M307 164q38 -17 86 -26.5t113 -9.5q89 0 156.5 28t113 81.5t69 131t25.5 175.5v10q0 102 -20 173q-22 75 -63 121t-99 66.5t-130 20.5q-47 0 -87 -10.5t-72 -27t-55.5 -37.5t-36.5 -42v-654zM135 46v1420h172v-466q48 36 115.5 60t168.5 24q86 0 168.5 -29t147 -93 t103.5 -166q38 -99 38 -240v-7q-1 -154 -46.5 -262.5t-121 -177t-174 -100t-204.5 -31.5q-41 0 -87.5 4t-94.5 12.5t-95.5 21.5t-89.5 30z"/>
<glyph glyph-name="c" horiz-adv-x="930" unicode="c" d="M90 531q0 129 33 231.5t97 174t159 109.5t219 38q76 0 139 -10t123 -29v-151q-54 17 -119 28.5t-143 11.5q-73 0 -134 -22t-104.5 -70t-67.5 -125t-24 -186q0 -120 23 -198t67 -123.5t107 -63.5t143 -18t140.5 12.5t111.5 27.5v-151q-47 -17 -114 -28t-138 -11 q-262 0 -390 135t-128 418z"/>
<glyph glyph-name="d" horiz-adv-x="1148" unicode="d" d="M278 518q0 -116 24.5 -191.5t67 -120t99 -62t121.5 -17.5q48 0 88 12t71.5 31t54.5 43t37 49v622q-30 20 -93 35t-140 15q-59 0 -118 -17.5t-106 -64t-76.5 -127.5t-29.5 -207zM100 513q0 113 22 199t60 149.5t88.5 106t107.5 68.5t117 37t117 11q33 0 67 -3.5t65.5 -8.5 t56.5 -12.5t40 -14.5v424h172v-1469h-154v91q-51 -55 -126.5 -84t-168.5 -29q-89 0 -172.5 29t-148.5 93t-104 166t-39 247z"/>
<glyph glyph-name="e" horiz-adv-x="1159" unicode="e" d="M286 642h588q-15 146 -89.5 219t-204.5 73q-60 0 -111 -19t-89 -56t-62.5 -91.5t-31.5 -125.5zM100 522q0 132 32 236t93.5 176.5t150.5 111t204 38.5q118 0 208 -38.5t150 -110t90.5 -173.5t30.5 -229v-41h-777q0 -186 81 -275t257 -89q60 0 108 3.5t91 11t86 19.5 t94 29v-157q-45 -13 -88.5 -23t-89 -17.5t-95 -11.5t-106.5 -4q-138 0 -236.5 37t-161.5 107.5t-92.5 171t-29.5 228.5z"/>
<glyph glyph-name="f" horiz-adv-x="651" unicode="f" d="M60 907v155h150v43q0 116 27 190.5t74.5 117t111 59t136.5 16.5q26 0 55 -2t57 -6v-154q-26 5 -49.5 9t-49.5 4q-45 0 -80.5 -9.5t-60 -35t-37 -71.5t-12.5 -118v-43h240v-155h-240v-907h-172v907h-150z"/>
<glyph glyph-name="g" horiz-adv-x="1138" unicode="g" d="M268 518q0 -108 22 -182.5t62.5 -121t98 -67t129.5 -20.5q49 0 90 12t72.5 31.5t54 44t34.5 49.5v634q-38 17 -88 26.5t-115 9.5q-89 0 -156.5 -24t-112.5 -74.5t-68 -129t-23 -188.5zM90 513q0 105 20.5 188.5t57 147t87 108t110.5 73t128 41.5t139 13q41 0 88.5 -4 t96 -12.5t96.5 -21.5t90 -30v-991q0 -117 -36 -202.5t-102 -141t-158.5 -82t-204.5 -26.5q-53 0 -114.5 7.5t-113.5 21.5v154q21 -7 47.5 -12.5t55 -9t57.5 -5.5t56 -2q76 0 139 14t108 47.5t69.5 88.5t24.5 138v57q-24 -19 -51 -36t-60 -30t-74 -20.5t-92 -7.5 q-87 0 -170.5 28.5t-148.5 92.5t-105 165.5t-40 248.5z"/>
<glyph glyph-name="h" horiz-adv-x="1095" unicode="h" d="M135 0v1466h172v-479q30 23 62.5 41t69 30.5t78 19t90.5 6.5q168 0 260.5 -89t92.5 -261v-734h-172v703q0 58 -10 101.5t-35.5 72t-68.5 43t-108 14.5q-42 0 -81 -7.5t-73 -22t-60.5 -36t-44.5 -48.5v-820h-172z"/>
<glyph glyph-name="i" horiz-adv-x="442" unicode="i" d="M135 1259v207h172v-207h-172zM135 0v1062h172v-1062h-172z"/>
<glyph glyph-name="j" horiz-adv-x="442" unicode="j" d="M135 1257v209h172v-209h-172zM-154 -264q26 -5 49.5 -9t49.5 -4q45 0 80.5 9.5t60 35t37 71.5t12.5 118v1105h172v-1105q0 -116 -27.5 -190.5t-74.5 -117.5t-110.5 -59t-136.5 -16q-26 0 -55 2t-57 6v154z"/>
<glyph glyph-name="k" horiz-adv-x="1039" unicode="k" d="M135 0v1466h172v-824q80 0 153 34t134.5 91.5t109 133.5t76.5 161h178q-16 -63 -47.5 -128t-75 -126.5t-98.5 -117t-119 -97.5q66 -72 122 -139.5t101.5 -138.5t80 -148t57.5 -167h-179q-29 89 -61.5 157.5t-72 127.5t-88.5 115t-110 119q-78 -27 -161 -27v-492h-172z "/>
<glyph glyph-name="l" horiz-adv-x="442" unicode="l" d="M135 0v1466h172v-1466h-172z"/>
<glyph glyph-name="m" horiz-adv-x="1690" unicode="m" d="M135 0v1062h154v-89q22 19 52 39t68.5 36t85 26t102.5 10q99 0 168.5 -35.5t108.5 -101.5q63 62 147 99.5t190 37.5q90 0 155 -26t107 -73.5t62 -115t20 -150.5v-719h-172v703q0 55 -8.5 98t-30.5 72.5t-60.5 45t-99.5 15.5q-55 0 -97 -12t-73 -29.5t-51.5 -37 t-31.5 -35.5v-820h-172v703q0 46 -6 88t-27 74t-60.5 50.5t-105.5 18.5q-46 0 -85.5 -9t-71.5 -25t-56.5 -36.5t-39.5 -43.5v-820h-172z"/>
<glyph glyph-name="n" horiz-adv-x="1095" unicode="n" d="M135 0v1062h154v-89q31 25 64 46t71.5 35t83.5 22t99 8q170 0 261.5 -90t91.5 -260v-734h-172v703q0 58 -10 101t-35.5 72t-68.5 43.5t-108 14.5q-56 0 -98 -10.5t-73.5 -27t-53 -37t-34.5 -39.5v-820h-172z"/>
<glyph glyph-name="o" horiz-adv-x="1136" unicode="o" d="M268 531q0 -96 17 -171t53 -126.5t93 -78.5t137 -27t137 27t93 78.5t53 126.5t17 171t-17 171t-53 126.5t-93 78.5t-137 27t-137 -27t-93 -78.5t-53 -126.5t-17 -171zM90 531q0 115 25.5 215.5t82.5 175.5t148 118.5t222 43.5q130 0 221 -43.5t148 -118.5t83 -175.5 t26 -215.5t-26 -215.5t-83 -175.5t-148 -118.5t-221 -43.5q-131 0 -222 43.5t-148 118.5t-82.5 175.5t-25.5 215.5z"/>
<glyph glyph-name="p" horiz-adv-x="1148" unicode="p" d="M307 163q32 -14 82.5 -24.5t120.5 -10.5q39 0 81 6.5t82 23.5t75.5 46.5t62.5 75.5t43 111t16 153q0 116 -24.5 191.5t-67 120t-99.5 62t-121 17.5q-45 0 -84 -9.5t-71 -25t-56.5 -37t-39.5 -45.5v-655zM135 -407v1469h154v-75q60 48 131 72.5t164 24.5q89 0 172.5 -29 t148.5 -93t104 -166t39 -247q0 -117 -24.5 -204.5t-66 -151t-96 -105t-115 -66t-122.5 -34.5t-118 -10q-61 0 -111 7.5t-88 16.5v-409h-172z"/>
<glyph glyph-name="q" horiz-adv-x="1138" unicode="q" d="M268 518q0 -108 22 -182.5t62.5 -121t98 -67t129.5 -20.5q49 0 90 12t72.5 31.5t54 44t34.5 49.5v634q-38 17 -88 26.5t-115 9.5q-89 0 -156.5 -24t-112.5 -74.5t-68 -129t-23 -188.5zM90 513q0 105 20.5 188.5t57 147t87 108t110.5 73t128 41.5t139 13q41 0 88.5 -4 t96 -12.5t96.5 -21.5t90 -30v-1423h-172v479q-24 -19 -51 -36t-60 -30t-74 -20.5t-92 -7.5q-87 0 -170.5 28.5t-148.5 92.5t-105 165.5t-40 248.5z"/>
<glyph glyph-name="r" horiz-adv-x="738" unicode="r" d="M135 0v1062h154v-89q22 19 51 38.5t68 35.5t90.5 26.5t117.5 10.5q9 0 21 -0.5t24.5 -2t25 -3.5t21.5 -4v-168q-32 17 -68 22.5t-73 5.5q-52 0 -94 -10t-74.5 -26.5t-55.5 -37t-36 -41.5v-819h-172z"/>
<glyph glyph-name="s" horiz-adv-x="951" unicode="s" d="M120 783q0 73 28.5 129.5t80 94.5t124 57.5t159.5 19.5q90 0 154.5 -11.5t115.5 -27.5v-151q-66 19 -129.5 29.5t-140.5 10.5q-55 0 -97 -7t-70 -25q-27 -17 -41 -46q-12 -25 -12 -62v-11q2 -42 27.5 -68t65.5 -43t91 -29.5t104 -28.5t103.5 -39t90 -61t63.5 -94.5 t24 -140.5q0 -74 -28.5 -130t-80.5 -94t-124 -57.5t-160 -19.5q-46 0 -93.5 4t-92 10.5t-82 15.5t-63.5 20v156q60 -22 142 -39t189 -17q57 0 98.5 7t69 24.5t40.5 46.5t13 73q0 57 -24.5 92.5t-64.5 58t-91 37t-104.5 29t-104.5 33t-91 50.5t-64.5 80.5t-24.5 123.5z"/>
<glyph glyph-name="t" horiz-adv-x="701" unicode="t" d="M50 907v155h150v244l172 78v-322h235v-155h-235v-546q0 -72 12.5 -118t37 -71.5t60 -35t80.5 -9.5q26 0 49.5 4t49.5 9v-154q-28 -4 -57 -6t-55 -2q-73 0 -136.5 16t-111 59t-74.5 117.5t-27 190.5v546h-150z"/>
<glyph glyph-name="u" horiz-adv-x="1095" unicode="u" d="M135 328v734h172v-703q0 -58 10 -101t35.5 -72t68.5 -43.5t108 -14.5q55 0 97.5 10.5t74 27t52.5 37t35 39.5v820h172v-1062h-154v89q-31 -26 -64 -46.5t-71.5 -34.5t-83.5 -22t-99 -8q-170 0 -261.5 90t-91.5 260z"/>
<glyph glyph-name="v" horiz-adv-x="1063" unicode="v" d="M60 1062h172q11 -82 41 -186t71.5 -218t90 -232.5t96.5 -227.5q48 109 96.5 227.5t90 232.5t71.5 218t42 186h172q-9 -61 -30 -142t-51 -173.5t-67 -192.5t-76.5 -198t-80 -189t-77.5 -167h-179q-37 76 -77.5 167t-80 189t-76.5 198t-67 192.5t-51.5 174t-29.5 141.5z "/>
<glyph glyph-name="w" horiz-adv-x="1500" unicode="w" d="M60 1062h172q11 -81 38 -185t63.5 -218t80.5 -232t89 -237q46 88 89.5 197.5t79.5 221.5q-47 146 -75.5 259.5t-39.5 193.5h172q11 -81 37.5 -184t63 -216t80 -230t88.5 -242q45 125 88.5 242t80 230t63 216t38.5 184h172q-9 -61 -28 -142t-45.5 -173.5t-59.5 -192.5 t-69.5 -198t-74.5 -189t-75 -167h-179q-40 81 -80.5 178.5t-78.5 203.5q-38 -106 -78.5 -203.5t-80.5 -178.5h-179q-37 76 -75 167t-74.5 189t-69.5 198t-59.5 192.5t-45.5 174t-28 141.5z"/>
<glyph glyph-name="x" horiz-adv-x="1041" unicode="x" d="M60 0q31 77 72 148.5t87.5 138.5t97.5 130.5t102 125.5q-49 59 -97 119.5t-92 125t-82.5 132.5t-69.5 142h179q42 -105 111.5 -202.5t151.5 -196.5q82 100 152 197.5t112 201.5h179q-31 -74 -70 -142.5t-83 -132.5t-92 -125t-97 -120q51 -62 102 -125.5t98 -130.5 t87.5 -138t72.5 -148h-176q-50 112 -124.5 215.5t-160.5 206.5q-85 -103 -160 -206.5t-124 -215.5h-176z"/>
<glyph glyph-name="y" horiz-adv-x="1073" unicode="y" d="M80 1062h172q12 -83 43.5 -188t75.5 -220.5t96 -235t103 -229.5q50 114 94 233.5t79.5 233.5t60.5 218t37 188h172q-9 -61 -27.5 -142t-45.5 -174t-59.5 -192.5t-69 -197.5t-75 -189.5t-75.5 -166.5q-42 -84 -86.5 -161t-97.5 -136.5t-117.5 -94.5t-146.5 -35 q-5 0 -18 0.5t-28.5 2.5t-33 6t-31.5 11v155q16 -8 33 -12t32 -6t26 -2.5t16 -0.5q38 0 71.5 14.5t65.5 47t65 84.5t71 127q-40 76 -82.5 167t-84.5 189t-80.5 198t-70 192.5t-54 174t-30.5 141.5z"/>
<glyph glyph-name="z" horiz-adv-x="1049" unicode="z" d="M110 0v145q25 61 69 133.5t97.5 148t113 150t114 138.5t100.5 114t74 77h-541v156h793v-136q-49 -41 -109 -101.5t-122.5 -131.5t-125 -146.5t-116.5 -147.5t-97 -135.5t-67 -108.5h656v-155h-839z"/>
<glyph glyph-name="braceleft" horiz-adv-x="666" unicode="{" d="M80 449v163q58 0 96.5 22.5t61.5 73t32 130.5t9 194q0 98 5.5 178t34.5 137t90.5 88t172.5 31h54v-155h-50q-60 0 -90 -18.5t-42 -58.5t-12.5 -102.5t-0.5 -150.5q0 -110 -11.5 -186t-36.5 -127t-63 -83t-90 -54q52 -23 90 -54.5t63 -83t36.5 -127.5t11.5 -186 q0 -88 0.5 -151t12.5 -103t42 -59t90 -19h50v-155h-54q-111 0 -172.5 31.5t-90.5 88.5t-34.5 137.5t-5.5 178.5q0 114 -9 194t-32 130.5t-61.5 73t-96.5 22.5z"/>
<glyph glyph-name="bar" horiz-adv-x="450" unicode="|" d="M150 -427v1915h150v-1915h-150z"/>
<glyph glyph-name="braceright" horiz-adv-x="666" unicode="}" d="M30 -252h50q60 0 90 19t42 59t12 103t1 151q-1 110 11 186t37 128t63 82q38 32 90 55q-52 22 -90 54t-63 83t-37 127t-11 186q-1 89 -1 151t-12 102t-42 58t-90 19h-50v155h54q110 0 172 -31t91 -88t35 -137t5 -178q0 -114 9 -194t32 -130q24 -50 62 -74q38 -22 96 -22 v-163q-58 -1 -96 -23t-62 -72q-23 -50 -32 -131q-9 -80 -9 -194q1 -99 -5 -179t-35 -137t-91 -89t-172 -31h-54v155z"/>
<glyph glyph-name="asciitilde" horiz-adv-x="1082" unicode="~" d="M50 390v185q101 120 266 120q64 0 127 -21t123 -46t115 -46t103 -21q30 0 62 10t64 28t63.5 43.5t58.5 55.5v-192q-59 -59 -122.5 -86.5t-143.5 -27.5q-56 0 -116.5 21t-121.5 46t-119 46t-109 21q-32 0 -59 -6t-55.5 -21t-61 -41.5t-74.5 -67.5z"/>
<glyph glyph-name="uni00A0" horiz-adv-x="484" unicode=" "/>
<glyph glyph-name="cent" horiz-adv-x="890" unicode="¢" d="M268 531q0 -120 23 -198t67 -124q19 -20 43 -35l196 760q-72 0 -133 -22t-104.5 -70t-67.5 -125t-24 -186zM90 531q0 129 33 231.5t97 174t159 109.5t219 38q19 0 38 -1l99 383h134l-103 -397q48 -10 94 -24v-151q-54 17 -119 28l-12 2l-205 -791q39 -5 84 -5 q80 0 140.5 12.5t111.5 27.5v-151q-47 -17 -114 -28t-138 -11q-65 0 -122 9l-101 -394h-134l110 425q-85 34 -143 95q-128 135 -128 418z"/>
<glyph glyph-name="sterling" horiz-adv-x="1199" unicode="£" d="M80 681v174h172q-16 57 -27 112t-11 106q0 93 27.5 169.5t80 132t130 86t177.5 30.5q90 0 164 -31t127 -87t82 -135.5t29 -175.5h-180q0 64 -16 116t-45.5 88.5t-71 56.5t-93.5 20q-55 0 -96 -19t-68.5 -52t-41 -77.5t-13.5 -95.5q0 -55 14 -116.5t32 -127.5h295v-174 h-252q13 -65 14.5 -103t1.5 -48q0 -54 -14 -111.5t-53 -116.5t-109 -111q15 6 33 10t37.5 6.5t38.5 4t35 1.5q52 0 115 -10.5t123 -22.5t109 -22.5t73 -10.5t52.5 1.5t60 9t66 22t71.5 40.5v-182q-36 -24 -68.5 -36.5t-62.5 -18.5t-57.5 -7t-54.5 -1q-46 0 -99.5 14 t-110.5 31t-115.5 31t-115.5 14q-36 0 -75 -6.5t-78.5 -18.5t-77.5 -29.5t-71 -38.5l-69 173q96 55 146.5 118t66.5 123t16 114q0 18 -3.5 63t-20.5 118h-219z"/>
<glyph glyph-name="yen" horiz-adv-x="1279" unicode="¥" d="M-14 1466h199q31 -71 79.5 -150.5t109 -163.5t129.5 -170.5t142 -171.5q72 85 141 171.5t129 170.5t109 163.5t81 150.5h199q-38 -92 -96.5 -191.5t-132.5 -203t-160.5 -209t-180.5 -207.5v-47h294v-138h-294v-109h294v-138h-294v-223h-190v223h-316v138h316v109h-316 v138h316v47q-90 103 -174.5 209t-157.5 209.5t-131 203t-95 189.5z"/>
<glyph glyph-name="dieresis" horiz-adv-x="690" unicode="¨" d="M418 1269v197h182v-197h-182zM90 1269v197h182v-197h-182z"/>
<glyph glyph-name="copyright" horiz-adv-x="1610" unicode="©" d="M457 740q0 94 23 173t70.5 136t120.5 88.5t174 31.5q72 0 123.5 -5.5t86.5 -11.5v-135q-46 12 -93.5 18.5t-116.5 6.5q-68 0 -116.5 -16.5t-79 -53.5t-44.5 -96.5t-14 -145.5q0 -90 14.5 -150t46 -96t80 -51t117.5 -15q45 0 100.5 4t105.5 18v-130q-35 -8 -82.5 -13.5 t-123.5 -5.5q-101 0 -175 31t-122 89.5t-71.5 141.5t-23.5 187zM175 732q0 -71 14 -138.5t41 -129t66 -115.5t88 -98q84 -75 192.5 -115.5t229.5 -40.5q140 0 262.5 54.5t209.5 151.5q76 85 117.5 196.5t41.5 234.5q0 127 -43.5 241t-124.5 200q-87 93 -206.5 144.5 t-256.5 51.5q-136 0 -255.5 -51t-206.5 -143q-81 -87 -125 -201t-44 -242zM50 732q0 155 54.5 291t154.5 239q51 53 113 95t132 71t146 44.5t156 15.5q83 0 162 -16.5t151 -48t135.5 -77t115.5 -102.5q91 -101 140.5 -233t49.5 -279q0 -149 -51 -282t-145 -234 q-52 -56 -114.5 -100t-134 -75t-149.5 -47t-160 -16q-147 0 -279 49.5t-233 140.5q-57 52 -102.5 115t-77 135t-48 151.5t-16.5 162.5z"/>
<glyph glyph-name="guillemotleft" horiz-adv-x="990" unicode="«" d="M463 528l282 456h175l-254 -456l254 -456h-175zM60 528l282 456h175l-254 -456l254 -456h-175z"/>
<glyph glyph-name="uni00AD" horiz-adv-x="592" unicode="­" d="M50 440v181h492v-181h-492z"/>
<glyph glyph-name="registered" horiz-adv-x="1610" unicode="®" d="M524 316v834q96 0 166 6.5t130 6.5q85 0 145.5 -18t98 -51t55 -81t17.5 -108q0 -45 -13 -81t-36.5 -64.5t-55.5 -48.5t-71 -32q37 -44 70.5 -91.5t60.5 -94.5t46.5 -92t28.5 -85h-131q-16 46 -39.5 92t-51.5 90t-60 85.5t-66 79.5q-29 2 -60 8.5t-63 16.5v125 q35 -14 73.5 -23.5t64.5 -9.5q40 0 72 4.5t53.5 17.5t33 37t11.5 63q0 36 -6.5 63t-25.5 45t-53.5 26.5t-89.5 8.5q-33 0 -57.5 -1.5t-45 -3t-38.5 -3t-37 -1.5v-720h-126zM175 732q0 -71 14 -138.5t41 -129t66 -115.5t88 -98q84 -75 192.5 -115.5t229.5 -40.5 q140 0 262.5 54.5t209.5 151.5q76 85 117.5 196.5t41.5 234.5q0 127 -43.5 241t-124.5 200q-87 93 -206.5 144.5t-256.5 51.5q-136 0 -255.5 -51t-206.5 -143q-81 -87 -125 -201t-44 -242zM50 732q0 155 54.5 291t154.5 239q51 53 113 95t132 71t146 44.5t156 15.5 q83 0 162 -16.5t151 -48t135.5 -77t115.5 -102.5q91 -101 140.5 -233t49.5 -279q0 -149 -51 -282t-145 -234q-52 -56 -114.5 -100t-134 -75t-149.5 -47t-160 -16q-147 0 -279 49.5t-233 140.5q-57 52 -102.5 115t-77 135t-48 151.5t-16.5 162.5z"/>
<glyph glyph-name="acute" horiz-adv-x="401" unicode="´" d="M10 1177l158 289h223l-187 -289h-194z"/>
<glyph glyph-name="cedilla" horiz-adv-x="446" unicode="¸" d="M10 -296h105q84 0 119.5 20t35.5 54q0 13 -5 25t-22 21t-48.5 15t-85.5 7l52 177h144l-33 -109q85 -10 124.5 -51.5t39.5 -93.5q0 -37 -17 -71.5t-51.5 -61.5t-87.5 -43t-126 -16h-144v127z"/>
<glyph glyph-name="guillemotright" horiz-adv-x="990" unicode="»" d="M473 72l254 456l-254 456h175l282 -456l-282 -456h-175zM70 72l254 456l-254 456h175l282 -456l-282 -456h-175z"/>
<glyph glyph-name="circumflex" horiz-adv-x="607" unicode="ˆ" d="M10 1194l200 272h187l200 -272h-175l-119 180l-118 -180h-175z"/>
<glyph glyph-name="tilde" horiz-adv-x="713" unicode="˜" d="M10 1226v138q70 88 188 88q45 0 89.5 -15.5t86.5 -34t81 -34t72 -15.5q43 0 90 28.5t86 73.5v-143q-42 -44 -86 -64t-101 -20q-39 0 -82 15.5t-86 34t-84 34t-77 15.5q-23 0 -42.5 -4.5t-39.5 -15.5t-42.5 -31t-52.5 -50z"/>
<glyph glyph-name="afii10023" horiz-adv-x="1272" unicode="Ё" d="M710 1555v197h182v-197h-182zM382 1555v197h182v-197h-182zM150 0v1466h979v-172h-793v-439h700v-174h-700v-505h816v-176h-1002z"/>
<glyph glyph-name="afii10051" horiz-adv-x="1547" unicode="Ђ" d="M10 1294v172h1117v-172h-466v-442q34 10 73.5 18.5t78.5 14.5t75 9t64 3q107 0 201.5 -29.5t165.5 -86.5t112 -140t41 -190q0 -99 -35 -182t-105 -143t-174.5 -93t-243.5 -33v176q98 0 166.5 19.5t111 56.5t61.5 88.5t19 116.5q0 69 -25.5 119.5t-70 84t-105.5 50 t-131 16.5q-24 0 -59 -4.5t-73.5 -13t-77 -19t-69.5 -22.5v-668h-186v1294h-465z"/>
<glyph glyph-name="afii10052" horiz-adv-x="1050" unicode="Ѓ" d="M334 1581l158 289h223l-187 -289h-194zM150 0v1466h900v-172h-714v-1294h-186z"/>
<glyph glyph-name="afii10053" horiz-adv-x="1232" unicode="Є" d="M90 733q0 167 40 305t124 238t212 156q129 56 307 56q63 0 113 -2t93 -8q42 -4 77 -9t66 -11v-185q-40 11 -77 19t-77 14t-87 9t-108 3q-215 0 -335 -112t-142 -351h675v-174h-680q5 -144 39 -245t94 -165q62 -63 151 -93t204 -30q39 0 85 2t92 6q48 4 96 12t90 20v-177 q-30 -6 -66 -12q-36 -7 -80 -11t-96 -7q-54 -3 -121 -3q-178 0 -308 50q-131 50 -215 144q-84 96 -125 237t-41 324z"/>
<glyph glyph-name="afii10054" horiz-adv-x="1252" unicode="Ѕ" d="M120 1077q0 100 39 177t109.5 129t169 78.5t218.5 26.5q126 0 216 -9.5t152 -20.5v-185q-40 10 -80 18.5t-83.5 14.5t-93.5 9t-111 3q-155 0 -241.5 -60.5t-86.5 -180.5q0 -64 34.5 -103.5t91 -66t129 -45t147.5 -40t147.5 -51.5t129 -78.5t91 -122t34.5 -181.5 q0 -101 -39 -177.5t-109.5 -128.5t-169 -78.5t-218.5 -26.5q-63 0 -129 5t-127 14t-112.5 20t-83.5 23v185q81 -30 193.5 -53.5t258.5 -23.5q155 0 241.5 60.5t86.5 180.5q0 62 -22.5 105.5t-61 73.5t-90 50.5t-109.5 37t-119 31.5t-119 35.5t-109.5 48t-90 69t-61 99.5 t-22.5 138z"/>
<glyph glyph-name="afii10055" horiz-adv-x="486" unicode="І" d="M150 0v1466h186v-1466h-186z"/>
<glyph glyph-name="afii10056" horiz-adv-x="486" unicode="Ї" d="M313 1635v197h182v-197h-182zM150 0v1466h186v-1466h-186zM-15 1635v197h182v-197h-182z"/>
<glyph glyph-name="afii10057" horiz-adv-x="486" unicode="Ј" d="M-191 -117q18 -3 35.5 -4t35.5 -1q58 0 107.5 15.5t85.5 55t56.5 108.5t20.5 176v1233h186v-1252q0 -127 -32.5 -223t-92.5 -160t-144 -96.5t-186 -32.5q-18 0 -36 1t-36 4v176z"/>
<glyph glyph-name="afii10058" horiz-adv-x="2192" unicode="Љ" d="M0 -22v176q47 2 90.5 28.5t81 86t68.5 157.5t53 243t34 342t12 455h862v-1290h348q92 0 157 19.5t106.5 56.5t60.5 88.5t19 116.5q0 69 -25.5 119.5t-70 84t-105 50t-131.5 16.5q-34 0 -70.5 -5t-72.5 -13t-70.5 -18.5t-65.5 -22.5v184q68 21 140.5 33t150.5 12 q107 0 201.5 -29.5t165.5 -86.5t112 -140t41 -190q0 -99 -35 -182t-105 -143t-174.5 -93t-243.5 -33h-519v1294h-490q-5 -264 -26.5 -464.5t-56 -346.5t-81.5 -243.5t-103.5 -155.5t-121.5 -82t-136 -24z"/>
<glyph glyph-name="afii10059" horiz-adv-x="2244" unicode="Њ" d="M150 0v1466h186v-611h731v611h186v-1290h348q92 0 157 19.5t106.5 56.5t60.5 88.5t19 116.5q0 69 -25.5 119.5t-70 84t-105 50t-131.5 16.5q-34 0 -70.5 -5t-72.5 -13t-70.5 -18.5t-65.5 -22.5v184q68 21 140.5 33t150.5 12q107 0 201.5 -29.5t165.5 -86.5t112 -140 t41 -190q0 -99 -35 -182t-105 -143t-174.5 -93t-243.5 -33h-519v681h-731v-681h-186z"/>
<glyph glyph-name="afii10060" horiz-adv-x="1624" unicode="Ћ" d="M10 1294v172h1117v-172h-466v-417q60 27 109 45t92.5 29t86.5 15.5t91 4.5q130 0 219 -33t143.5 -95t78 -151t23.5 -201v-491h-186v476q0 83 -14.5 143.5t-49 100.5t-91 59t-141.5 19q-51 0 -93 -4.5t-82.5 -15t-84.5 -26.5t-101 -39v-713h-186v1294h-465z"/>
<glyph glyph-name="afii10061" horiz-adv-x="1327" unicode="Ќ" d="M454 1581l158 289h223l-187 -289h-194zM150 0v1466h186v-611h18q40 0 93.5 14.5t113.5 45.5t123 79.5t121.5 116.5t108.5 156.5t84 198.5h196q-36 -120 -89 -221t-117.5 -183.5t-136.5 -147t-145 -110.5q60 -59 120.5 -125t117 -136t107 -141.5t90.5 -141.5t67.5 -136 t38.5 -124h-195q-20 72 -68 162t-116 185.5t-152 191.5t-177 180q-105 -38 -185 -38h-18v-681h-186z"/>
<glyph glyph-name="afii10062" horiz-adv-x="1141" unicode="Ў" d="M247 1870h152q6 -39 21.5 -63t38 -37.5t50.5 -18.5t60 -5q31 0 59.5 5t51 18.5t38 37.5t21.5 63h152q-7 -58 -33 -105t-68 -80t-98.5 -51t-124.5 -18q-67 0 -122.5 18t-97 51t-67.5 80t-33 105zM6 1466h185q11 -74 50 -171t97.5 -208t132 -230.5t151.5 -238.5 q69 124 132.5 247t114 234.5t85 206t44.5 160.5h182q-9 -63 -35.5 -144t-65 -174.5t-87.5 -195.5t-103 -206.5t-111.5 -208.5t-113.5 -200t-109 -182t-97 -155h-208q59 90 130 204.5t146 243.5q-58 85 -116.5 175t-113 180t-103 179.5t-87 174.5t-64.5 163t-36 146z"/>
<glyph glyph-name="afii10145" horiz-adv-x="1403" unicode="Џ" d="M150 0v1466h186v-1294h701v1294h186v-1466h-422v-232h-186v232h-465z"/>
<glyph glyph-name="afii10017" horiz-adv-x="1338" unicode="А" d="M0 0q21 103 55 226t76.5 254.5t91.5 267t100.5 264t104.5 244.5t103 210h276q50 -94 103 -210t104.5 -244.5t100.5 -264t91.5 -267t76 -254.5t55.5 -226h-188q-14 65 -34.5 143.5t-47 165.5t-57.5 181.5t-65 190.5h-486q1 4 6 17.5t12 32t14.5 39.5t14 39t11.5 31t6 15 h357q-45 117 -91.5 228t-94.5 211h-53q-48 -100 -95.5 -213t-92 -230t-86 -235t-76 -228.5t-61.5 -209.5t-43 -178h-188z"/>
<glyph glyph-name="afii10018" horiz-adv-x="1307" unicode="Б" d="M150 0v1466h960v-173h-774v-1117h348q92 0 157 19.5t106.5 56.5t60.5 88.5t19 116.5q0 69 -25.5 119.5t-70 84t-105 50t-131.5 16.5q-34 0 -70.5 -5t-72.5 -13t-70.5 -18.5t-65.5 -22.5v184q68 21 140.5 33t150.5 12q107 0 201.5 -29.5t165.5 -86.5t112 -140t41 -190 q0 -99 -35 -182t-105 -143t-174.5 -93t-243.5 -33h-519z"/>
<glyph glyph-name="afii10019" horiz-adv-x="1353" unicode="В" d="M336 176h373q168 0 260 57.5t92 186.5q0 132 -91.5 196.5t-260.5 64.5h-293v174h293q67 0 121.5 12.5t92 38.5t58 67.5t20.5 100.5q0 67 -21.5 114t-60.5 76.5t-92 41.5t-114 12h-10q-76 -1 -132 -4t-98.5 -6t-75 -5t-61.5 -2v-1125zM150 0v1466q71 0 140.5 3t137.5 7.5 t136.5 8t138.5 3.5q247 0 368.5 -107.5t121.5 -306.5q0 -98 -47.5 -173.5t-142.5 -117.5q128 -48 189 -143.5t61 -219.5q0 -107 -41 -186t-114 -131t-172.5 -77.5t-216.5 -25.5h-559z"/>
<glyph glyph-name="afii10020" horiz-adv-x="1050" unicode="Г" d="M150 0v1466h900v-172h-714v-1294h-186z"/>
<glyph glyph-name="afii10021" horiz-adv-x="1455" unicode="Д" d="M393 176h684v1118h-490q-8 -407 -58.5 -684.5t-135.5 -433.5zM20 176h157q47 54 88 154t71 257t47.5 374t17.5 505h862v-1290h172v-408h-186v232h-1043v-232h-186v408z"/>
<glyph glyph-name="afii10022" horiz-adv-x="1272" unicode="Е" d="M150 0v1466h979v-172h-793v-439h700v-174h-700v-505h816v-176h-1002z"/>
<glyph glyph-name="afii10024" horiz-adv-x="1960" unicode="Ж" d="M70 0q10 56 34.5 121.5t60.5 135t82 141.5t100.5 140.5t116 132t126.5 116.5q-66 45 -130 109t-123 148.5t-110.5 189.5t-92.5 232h186q69 -175 141 -292.5t144.5 -188t144 -100.5t137.5 -30v611h186v-611q66 0 137.5 30t144 100.5t144.5 188t141 292.5h186 q-41 -127 -93 -232t-110.5 -189.5t-122.5 -148.5t-130 -109q65 -53 126 -116.5t115.5 -132t101 -140.5t82.5 -141.5t60.5 -135t34.5 -121.5h-195q-21 74 -66 166t-109.5 187.5t-146.5 186.5t-177 163q-32 -9 -63 -14t-60 -5v-684h-186v684q-30 0 -60.5 5t-62.5 14 q-95 -72 -177 -163t-146.5 -186.5t-109.5 -187.5t-66 -166h-195z"/>
<glyph glyph-name="afii10025" horiz-adv-x="1162" unicode="З" d="M50 70v185q40 -21 90 -39t108.5 -32t124.5 -22t139 -8q84 0 152.5 16t117.5 47.5t75.5 79.5t26.5 113q0 74 -25 125.5t-72.5 84t-116.5 47t-158 14.5h-220v174h220q157 0 240 51.5t83 174.5q0 67 -26.5 112.5t-72.5 73.5t-106.5 39.5t-127.5 11.5q-61 0 -114 -5 t-100.5 -14.5t-90.5 -22.5t-83 -28v185q62 22 164 38.5t224 16.5q120 0 218 -26.5t168 -78t108.5 -127.5t38.5 -175q0 -56 -16 -104t-43.5 -87t-65.5 -66.5t-83 -42.5q68 -23 116.5 -60.5t80 -86t46 -106t14.5 -118.5q0 -107 -45.5 -188t-123.5 -135t-182 -81.5t-221 -27.5 q-68 0 -136.5 7.5t-130 20.5t-112.5 29.5t-83 34.5z"/>
<glyph glyph-name="afii10026" horiz-adv-x="1429" unicode="И" d="M150 0v1466h186v-963v-46t-4 -70q6 38 16.5 69t15.5 43q42 90 97.5 186.5t119 191.5t131.5 185t133.5 167.5t126 138.5t109.5 98h198v-1466h-186v1237q-38 -35 -96 -101.5t-127 -158t-144 -204t-146.5 -238.5t-135.5 -261.5t-111 -273.5h-183z"/>
<glyph glyph-name="afii10027" horiz-adv-x="1429" unicode="Й" d="M367 1830h152q6 -39 21.5 -63t38 -37.5t50.5 -18.5t60 -5q31 0 59.5 5t51 18.5t38 37.5t21.5 63h152q-7 -58 -33 -105t-68 -80t-98.5 -51t-124.5 -18q-67 0 -122.5 18t-97 51t-67.5 80t-33 105zM150 0v1466h186v-963v-46t-4 -70q6 38 16.5 69t15.5 43q42 90 97.5 186.5 t119 191.5t131.5 185t133.5 167.5t126 138.5t109.5 98h198v-1466h-186v1237q-38 -35 -96 -101.5t-127 -158t-144 -204t-146.5 -238.5t-135.5 -261.5t-111 -273.5h-183z"/>
<glyph glyph-name="afii10028" horiz-adv-x="1327" unicode="К" d="M150 0v1466h186v-611h18q40 0 93.5 14.5t113.5 45.5t123 79.5t121.5 116.5t108.5 156.5t84 198.5h196q-36 -120 -89 -221t-117.5 -183.5t-136.5 -147t-145 -110.5q60 -59 120.5 -125t117 -136t107 -141.5t90.5 -141.5t67.5 -136t38.5 -124h-195q-20 72 -68 162 t-116 185.5t-152 191.5t-177 180q-105 -38 -185 -38h-18v-681h-186z"/>
<glyph glyph-name="afii10029" horiz-adv-x="1351" unicode="Л" d="M0 -22v176q47 2 90.5 28.5t81 86t68.5 157.5t53 243t34 342t12 455h862v-1466h-186v1294h-490q-5 -264 -26.5 -464.5t-56 -346.5t-81.5 -243.5t-103.5 -155.5t-121.5 -82t-136 -24z"/>
<glyph glyph-name="afii10030" horiz-adv-x="1688" unicode="М" d="M150 0v1466h217q34 -30 75.5 -82.5t85.5 -117t88.5 -137t83 -141.5t69.5 -130t49 -104q17 -41 26 -87q5 23 13 45t16 42q18 43 49.5 104t70.5 130t83.5 141.5t89 137t86.5 117t76 82.5h210v-1466h-186v1189q0 12 0.5 23t1.5 18q-34 -42 -74 -103t-82 -132t-84 -148.5 t-79 -152t-66.5 -142t-47.5 -118.5h-154q-18 51 -47.5 118.5t-66.5 142t-79 152t-84 148.5t-82.5 132t-73.5 103q1 -7 1.5 -18t0.5 -23v-1189h-186z"/>
<glyph glyph-name="afii10031" horiz-adv-x="1403" unicode="Н" d="M150 0v1466h186v-611h731v611h186v-1466h-186v681h-731v-681h-186z"/>
<glyph glyph-name="afii10032" horiz-adv-x="1470" unicode="О" d="M282 733q0 -145 25.5 -256t80 -186.5t140.5 -114t207 -38.5t206.5 38.5t140.5 114t80.5 186.5t25.5 256t-25.5 256t-80.5 186.5t-140.5 114t-206.5 38.5t-207 -38.5t-140.5 -114t-80 -186.5t-25.5 -256zM90 733q0 157 34 294.5t110.5 240t199.5 161.5t301 59t301 -59 t199.5 -161.5t110.5 -240t34 -294.5t-34 -294.5t-110.5 -240t-199.5 -161.5t-301 -59t-301 59t-199.5 161.5t-110.5 240t-34 294.5z"/>
<glyph glyph-name="afii10033" horiz-adv-x="1373" unicode="П" d="M150 0v1466h1073v-1466h-186v1294h-701v-1294h-186z"/>
<glyph glyph-name="afii10034" horiz-adv-x="1327" unicode="Р" d="M150 0v1466q84 0 156 3.5t135.5 7.5t119.5 7.5t108 3.5q150 0 256 -31.5t173 -90t98 -142.5t31 -189q0 -107 -41 -187t-112 -133t-165.5 -79.5t-201.5 -26.5q-28 0 -64 3t-75.5 9t-78.5 14t-73 19v184q31 -12 69.5 -22.5t77 -18.5t73.5 -13t59 -5q71 0 131.5 13.5t105 43 t70 77t25.5 116.5q0 64 -12.5 117t-49.5 91t-104.5 58.5t-176.5 20.5q-113 0 -197 -7.5t-151 -7.5v-1301h-186z"/>
<glyph glyph-name="afii10035" horiz-adv-x="1202" unicode="С" d="M90 733q0 166 40 304.5t123.5 238.5t212.5 156t307 56q126 0 216.5 -9.5t152.5 -20.5v-185q-40 10 -80 18.5t-84 14.5t-94 9t-111 3q-242 0 -365.5 -141.5t-123.5 -443.5q0 -158 32 -269t94.5 -181.5t155 -102.5t213.5 -32q39 0 84.5 1.5t93 6t94.5 12.5t91 20v-177 q-31 -6 -66.5 -12t-79 -10.5t-97 -7.5t-120.5 -3q-178 0 -308 49.5t-214.5 145t-125.5 236.5t-41 324z"/>
<glyph glyph-name="afii10036" horiz-adv-x="1137" unicode="Т" d="M10 1294v172h1117v-172h-466v-1294h-186v1294h-465z"/>
<glyph glyph-name="afii10037" horiz-adv-x="1254" unicode="У" d="M50 1466h185q11 -74 50 -171t97.5 -208t132 -230.5t151.5 -238.5q69 124 132.5 247t114 234.5t85 206t44.5 160.5h182q-9 -63 -35.5 -144t-65 -174.5t-87.5 -195.5t-103 -206.5t-111.5 -208.5t-113.5 -200t-109 -182t-97 -155h-208q59 90 130 204.5t146 243.5 q-58 85 -116.5 175t-113 180t-103 179.5t-87 174.5t-64.5 163t-36 146z"/>
<glyph glyph-name="afii10038" horiz-adv-x="1707" unicode="Ф" d="M949 316h27q140 0 231 29.5t144 84t74 131.5t21 173t-21 176t-74 138.5t-144 91t-231 32.5h-27v-856zM266 734q0 -96 21 -173t74 -131.5t144 -84t231 -29.5h27v856h-27q-140 0 -231 -32.5t-144 -91t-74 -138.5t-21 -176zM70 734q0 142 42.5 252t126 186t208 115.5 t289.5 39.5h27v139h186v-139h27q163 0 287 -39.5t207 -115.5t125 -186t42 -252q0 -285 -166.5 -429t-494.5 -144h-27v-161h-186v161h-27q-326 0 -496 144.5t-170 428.5z"/>
<glyph glyph-name="afii10039" horiz-adv-x="1247" unicode="Х" d="M10 0q39 97 94 192t120 188.5t138 185.5t147 182q-69 84 -136 170.5t-128.5 175.5t-114.5 182t-94 190h199q30 -71 72 -143t92.5 -144.5t107 -145.5t116.5 -146q60 73 116.5 146t107 145.5t92.5 144.5t73 143h199q-41 -97 -94 -190t-114.5 -182t-128.5 -175.5 t-136 -170.5q74 -90 146.5 -182t138 -185.5t120.5 -188.5t94 -192h-199q-33 76 -78.5 151.5t-99 151.5t-114 152t-123.5 153q-63 -77 -123 -153t-113.5 -152t-99 -151.5t-78.5 -151.5h-199z"/>
<glyph glyph-name="afii10040" horiz-adv-x="1413" unicode="Ц" d="M150 0v1466h186v-1290h701v1290h186v-1290h190v-408h-187v232h-1076z"/>
<glyph glyph-name="afii10041" horiz-adv-x="1299" unicode="Ч" d="M120 975v491h186v-476q0 -83 14.5 -143.5t49 -100.5t91 -59t141.5 -19q51 0 93 4.5t82.5 15t84.5 26.5t101 39v713h186v-1466h-186v589h-1q-63 -23 -112 -40.5t-92 -29.5t-84.5 -18t-89.5 -6q-130 0 -219 33t-143.5 95t-78 151t-23.5 201z"/>
<glyph glyph-name="afii10042" horiz-adv-x="1902" unicode="Ш" d="M150 0v1466h186v-1290h522v1290h186v-1290h522v1290h186v-1466h-1602z"/>
<glyph glyph-name="afii10043" horiz-adv-x="1942" unicode="Щ" d="M150 0v1466h186v-1290h522v1290h186v-1290h522v1290h186v-1290h200v-408h-187v232h-1615z"/>
<glyph glyph-name="afii10044" horiz-adv-x="1470" unicode="Ъ" d="M0 1294v172h479v-1290h348q92 0 157 19.5t106.5 56.5t60.5 88.5t19 116.5q0 69 -25.5 119.5t-70 84t-105 50t-131.5 16.5q-34 0 -70.5 -5t-72.5 -13t-70.5 -18.5t-65.5 -22.5v184q68 21 140.5 33t150.5 12q107 0 201.5 -29.5t165.5 -86.5t112 -140t41 -190 q0 -99 -35 -182t-105 -143t-174.5 -93t-243.5 -33h-519v1294h-293z"/>
<glyph glyph-name="afii10045" horiz-adv-x="1669" unicode="Ы" d="M1333 0v1466h186v-1466h-186zM150 0v1466h186v-1290h328q92 0 154 19.5t99.5 56.5t53.5 88.5t16 116.5q0 69 -22 119.5t-63 84t-98.5 50t-128.5 16.5q-69 0 -133 -18t-126 -41v184q67 21 130 33t141 12q107 0 198.5 -29.5t158.5 -86.5t105 -140t38 -190q0 -99 -32 -182 t-98 -143t-167.5 -93t-240.5 -33h-499z"/>
<glyph glyph-name="afii10046" horiz-adv-x="1327" unicode="Ь" d="M150 0v1466h186v-1290h348q92 0 157 19.5t106.5 56.5t60.5 88.5t19 116.5q0 69 -25.5 119.5t-70 84t-105 50t-131.5 16.5q-34 0 -70.5 -5t-72.5 -13t-70.5 -18.5t-65.5 -22.5v184q68 21 140.5 33t150.5 12q107 0 201.5 -29.5t165.5 -86.5t112 -140t41 -190 q0 -99 -35 -182t-105 -143t-174.5 -93t-243.5 -33h-519z"/>
<glyph glyph-name="afii10047" horiz-adv-x="1232" unicode="Э" d="M90 11v177q43 -12 90.5 -20t95 -12.5t93 -6t84.5 -1.5q115 0 204 29.5t150.5 93.5t95 165t38.5 245h-680v174h675q-23 238 -142.5 350.5t-334.5 112.5q-61 0 -108 -3t-87 -9t-77 -14.5t-77 -18.5v185q31 6 66 11t77 9.5t92.5 7t113.5 2.5q178 0 307 -56t212.5 -156 t123.5 -238.5t40 -304.5q0 -183 -41 -324t-125.5 -236.5t-214.5 -145t-308 -49.5q-67 0 -120.5 3t-97 7.5t-79 10.5t-66.5 12z"/>
<glyph glyph-name="afii10048" horiz-adv-x="1981" unicode="Ю" d="M825 733q0 -145 21 -254.5t70 -183t130 -110.5t202 -37t202 37t130 110.5t70 183t21 254.5t-21 254.5t-70 183t-130 110.5t-202 37t-202 -37t-130 -110.5t-70 -183t-21 -254.5zM150 0v1466h186v-621h293q10 136 47 254t110 204t186.5 135.5t275.5 49.5q178 0 297.5 -59 t192 -161.5t103 -240t30.5 -294.5t-30.5 -294.5t-103 -240t-192 -161.5t-297.5 -59q-170 0 -286 53.5t-189 147t-107.5 220t-39.5 272.5h-290v-671h-186z"/>
<glyph glyph-name="afii10049" horiz-adv-x="1319" unicode="Я" d="M40 0q32 81 78 162.5t105.5 161t133 155t160.5 144.5q-95 11 -171 41.5t-129 80.5t-81.5 119t-28.5 158q0 99 29 180.5t93.5 140t168.5 91t254 32.5h517v-1466h-186v1294h-355q-96 0 -158 -22t-98 -59.5t-50.5 -86.5t-14.5 -104q0 -56 23.5 -102t65.5 -79t100.5 -51.5 t129.5 -18.5q24 0 58.5 5t73 13t76.5 18.5t69 22.5v-176q-74 -23 -145 -66.5t-137 -99t-124.5 -120t-107 -129.5t-86.5 -127t-61 -112h-202z"/>
<glyph glyph-name="afii10065" horiz-adv-x="1093" unicode="а" d="M258 303q0 -47 17.5 -80t49 -54t74.5 -31t94 -10q103 0 172.5 25.5t120.5 88.5v250h-285q-65 0 -111.5 -15.5t-75.5 -41.5t-42.5 -60t-13.5 -72zM80 295q0 82 31.5 146.5t88 109t133.5 68t168 23.5h285v90q0 47 -16.5 84.5t-51 63.5t-88.5 40t-129 14q-43 0 -79 -2 t-68 -6t-62.5 -10t-62.5 -15v154q32 6 63 11.5t63.5 9.5t68 6t77.5 2q121 0 207.5 -25t142 -71t81.5 -110t26 -142v-736h-154v89q-40 -34 -80 -55.5t-82 -34t-87 -17t-96 -4.5q-91 0 -161.5 22.5t-119 64t-73.5 100t-25 130.5z"/>
<glyph glyph-name="afii10066" horiz-adv-x="1166" unicode="б" d="M298 521q0 -96 17 -169.5t53 -123t93 -75t137 -25.5t137 25.5t93 75t53 123t17 169.5q0 193 -73.5 292t-234.5 99q-50 0 -95 -13.5t-82.5 -36.5t-66 -53.5t-46.5 -64.5q-2 -51 -2 -106.5v-116.5zM120 531q0 154 4.5 287.5t30 242t79.5 191t153 136.5q67 38 138.5 53 t146 21t150.5 10t152 19v-150q-27 -9 -66.5 -13.5t-85 -7t-94.5 -4.5t-96 -6q-79 -6 -134.5 -30t-92.5 -67.5t-58.5 -108t-32.5 -152.5q54 51 122.5 78.5t153.5 31.5q17 1 34 1q113 0 200 -38.5t144 -112.5t82.5 -175t25.5 -216t-26 -214t-83 -172t-148 -115t-221 -42 q-131 0 -222 43.5t-148 118.5t-82.5 175.5t-25.5 215.5z"/>
<glyph glyph-name="afii10067" horiz-adv-x="1096" unicode="в" d="M307 622h354q39 0 65.5 11.5t42.5 31.5t22.5 47.5t6.5 60.5q0 67 -42.5 100.5t-138.5 33.5h-310v-285zM307 155h346q36 0 67.5 8.5t55 27.5t37.5 50.5t14 77.5q0 78 -40 119t-125 41h-355v-324zM135 0v1062h482q90 0 156.5 -23t110.5 -61.5t65.5 -88.5t21.5 -105 q0 -33 -6 -65.5t-19.5 -61.5t-36 -53.5t-54.5 -41.5q38 -16 66.5 -43t47 -59.5t28 -67.5t9.5 -66q0 -79 -24 -140t-70 -102t-111.5 -62.5t-147.5 -21.5h-518z"/>
<glyph glyph-name="afii10068" horiz-adv-x="779" unicode="г" d="M135 0v1062h624v-155h-452v-907h-172z"/>
<glyph glyph-name="afii10069" horiz-adv-x="1042" unicode="д" d="M303 155h410v752h-300q-3 -146 -11 -262.5t-21.5 -208.5t-32.5 -161t-45 -120zM10 155h117q31 40 53.5 110t37 179t21.5 261.5t7 356.5h639v-907h117v-387h-172v232h-648v-232h-172v387z"/>
<glyph glyph-name="afii10070" horiz-adv-x="1139" unicode="е" d="M277 642h588q-15 146 -89.5 219t-204.5 73q-60 0 -111 -19t-89 -56t-62.5 -91.5t-31.5 -125.5zM91 522q0 132 32 236t93.5 176.5t150.5 111t204 38.5q118 0 208 -38.5t150 -110t90.5 -173.5t30.5 -229v-41h-777q0 -186 81 -275t257 -89q60 0 108 3.5t91 11t86 19.5t94 29 v-157q-45 -13 -88.5 -23t-89 -17.5t-95 -11.5t-106.5 -4q-138 0 -236.5 37t-161.5 107.5t-92.5 171t-29.5 228.5z"/>
<glyph glyph-name="afii10072" horiz-adv-x="1486" unicode="ж" d="M50 0q51 187 132.5 333t202.5 257q-59 42 -104.5 98t-79 118.5t-55.5 128t-35 127.5h178q15 -77 43 -151.5t72.5 -134.5t107 -97.5t145.5 -39.5v423h172v-423q83 2 145.5 39.5t107 97.5t72.5 134.5t43 151.5h178q-13 -62 -35.5 -127.5t-56 -128t-79 -118.5t-104.5 -98 q121 -111 202.5 -257t133.5 -333h-175q-33 92 -64.5 166.5t-68 136t-80.5 113.5t-101 100q-28 -8 -57 -13t-61 -7v-496h-172v496q-32 2 -61.5 7t-57.5 13q-57 -48 -100.5 -100t-80 -113.5t-68 -136t-64.5 -166.5h-175z"/>
<glyph glyph-name="afii10073" horiz-adv-x="961" unicode="з" d="M84 21v161q60 -22 152 -37.5t199 -15.5q141 0 205 44.5t64 135.5q0 90 -68 124t-201 34h-176v155h176q42 0 82 6.5t72 23.5t51.5 47t19.5 77q0 45 -16 75.5t-45 49t-70.5 26t-93.5 7.5q-90 0 -159.5 -8.5t-128.5 -23.5v160q45 8 120 15t168 7t167.5 -19.5t127 -57.5 t80.5 -94.5t28 -130.5q0 -36 -11 -68t-29.5 -59.5t-43.5 -49t-52 -36.5q45 -15 78.5 -41t56.5 -59.5t34.5 -72t11.5 -78.5q0 -79 -30.5 -141.5t-88 -106.5t-141 -67.5t-188.5 -23.5q-46 0 -97.5 3.5t-100 9t-89 13t-64.5 16.5z"/>
<glyph glyph-name="afii10074" horiz-adv-x="1103" unicode="и" d="M135 0v1062h173v-695q0 -20 -1 -41.5t-3 -44.5q34 85 86.5 181.5t117 197.5t137 203.5t146.5 198.5h177v-1062h-174v704q0 41 1 69t3 57q-60 -76 -124.5 -173.5t-128 -206t-123.5 -224t-112 -226.5h-175z"/>
<glyph glyph-name="afii10075" horiz-adv-x="1103" unicode="й" d="M253 1466h152q6 -39 21.5 -63t38 -37.5t50.5 -18.5t60 -5q31 0 59.5 5t51 18.5t38 37.5t21.5 63h152q-7 -58 -33 -105t-68 -80t-98.5 -51t-124.5 -18q-67 0 -122.5 18t-97 51t-67.5 80t-33 105zM135 0v1062h173v-695q0 -20 -1 -41.5t-3 -44.5q34 85 86.5 181.5t117 197.5 t137 203.5t146.5 198.5h177v-1062h-174v704q0 41 1 69t3 57q-60 -76 -124.5 -173.5t-128 -206t-123.5 -224t-112 -226.5h-175z"/>
<glyph glyph-name="afii10076" horiz-adv-x="1019" unicode="к" d="M135 0v1062h172v-421q82 1 150 36t122 93t95 133.5t68 158.5h178q-18 -63 -48.5 -128t-71.5 -126t-92 -115.5t-110 -96.5q129 -112 228.5 -259.5t152.5 -336.5h-176q-33 93 -71 169.5t-82.5 139.5t-94.5 114.5t-106 94.5q-35 -11 -70 -17.5t-72 -7.5v-493h-172z"/>
<glyph glyph-name="afii10077" horiz-adv-x="1060" unicode="л" d="M40 -22v148q34 1 65.5 15.5t59 51.5t50 102.5t38.5 169t24.5 250.5t8.5 347h639v-1062h-172v907h-300q-4 -208 -22 -357.5t-46.5 -252.5t-66.5 -166t-82.5 -97t-94 -45t-101.5 -11z"/>
<glyph glyph-name="afii10078" horiz-adv-x="1316" unicode="м" d="M135 0v1062h172q26 -25 56.5 -66t63 -93.5t65 -112.5t62.5 -122t56 -122.5t45 -114.5q30 81 73.5 175.5t92.5 183.5t98 162t90 110h172v-1062h-172v786q0 8 0.5 16t1.5 13q-3 -8 -8.5 -16t-9.5 -13q-75 -126 -141 -268.5t-123 -299.5h-146q-51 156 -115 297t-145 272 q-4 5 -9 13t-9 16q1 -5 1.5 -13t0.5 -16v-787h-172z"/>
<glyph glyph-name="afii10079" horiz-adv-x="1095" unicode="н" d="M135 0v1062h172v-439h481v439h172v-1062h-172v468h-481v-468h-172z"/>
<glyph glyph-name="afii10080" horiz-adv-x="1136" unicode="о" d="M268 531q0 -96 17 -171t53 -126.5t93 -78.5t137 -27t137 27t93 78.5t53 126.5t17 171t-17 171t-53 126.5t-93 78.5t-137 27t-137 -27t-93 -78.5t-53 -126.5t-17 -171zM90 531q0 115 25.5 215.5t82.5 175.5t148 118.5t222 43.5q130 0 221 -43.5t148 -118.5t83 -175.5 t26 -215.5t-26 -215.5t-83 -175.5t-148 -118.5t-221 -43.5q-131 0 -222 43.5t-148 118.5t-82.5 175.5t-25.5 215.5z"/>
<glyph glyph-name="afii10081" horiz-adv-x="1085" unicode="п" d="M135 0v1062h815v-1062h-172v907h-471v-907h-172z"/>
<glyph glyph-name="afii10082" horiz-adv-x="1138" unicode="р" d="M307 163q32 -14 82.5 -24.5t120.5 -10.5q39 0 81 6.5t82 23.5t75.5 46.5t62.5 75.5t43 111t16 153q0 116 -24.5 191.5t-67 120t-99.5 62t-121 17.5q-45 0 -84 -9.5t-71 -25t-56.5 -37t-39.5 -45.5v-655zM135 -407v1469h154v-75q60 48 131 72.5t164 24.5q89 0 172.5 -29 t148.5 -93t104 -166t39 -247q0 -117 -24.5 -204.5t-66 -151t-96 -105t-115 -66t-122.5 -34.5t-118 -10q-61 0 -111 7.5t-88 16.5v-409h-172z"/>
<glyph glyph-name="afii10083" horiz-adv-x="890" unicode="с" d="M81 531q0 129 33 231.5t97 174t159 109.5t219 38q76 0 139 -10t123 -29v-151q-54 17 -119 28.5t-143 11.5q-73 0 -134 -22t-104.5 -70t-67.5 -125t-24 -186q0 -120 23 -198t67 -123.5t107 -63.5t143 -18t140.5 12.5t111.5 27.5v-151q-47 -17 -114 -28t-138 -11 q-262 0 -390 135t-128 418z"/>
<glyph glyph-name="afii10084" horiz-adv-x="892" unicode="т" d="M30 907v155h832v-155h-331v-907h-172v907h-329z"/>
<glyph glyph-name="afii10085" horiz-adv-x="1073" unicode="у" d="M80 1062h172q12 -83 43.5 -188t75.5 -220.5t96 -235t103 -229.5q50 114 94 233.5t79.5 233.5t60.5 218t37 188h172q-9 -61 -27.5 -142t-45.5 -174t-59.5 -192.5t-69 -197.5t-75 -189.5t-75.5 -166.5q-42 -84 -86.5 -161t-97.5 -136.5t-117.5 -94.5t-146.5 -35 q-5 0 -18 0.5t-28.5 2.5t-33 6t-31.5 11v155q16 -8 33 -12t32 -6t26 -2.5t16 -0.5q38 0 71.5 14.5t65.5 47t65 84.5t71 127q-40 76 -82.5 167t-84.5 189t-80.5 198t-70 192.5t-54 174t-30.5 141.5z"/>
<glyph glyph-name="afii10086" horiz-adv-x="1594" unicode="ф" d="M883 171q20 -14 40 -22.5t42 -13t45.5 -6t50.5 -1.5q63 0 112 18.5t83 64t52 123.5t18 197q0 116 -18 193.5t-52 124t-83 66t-112 19.5q-119 0 -178 -50v-713zM268 531q0 -119 18 -197t52 -123.5t83 -64t112 -18.5q54 0 96 7t82 36v713q-59 50 -178 50q-63 0 -112 -19.5 t-83 -66t-52 -124t-18 -193.5zM90 531q0 160 35.5 266t94.5 170t137 90.5t162 26.5q106 0 192 -42v424h172v-424q84 42 192 42q84 0 162 -26.5t137 -90.5t94.5 -170t35.5 -266q0 -158 -35.5 -264.5t-94.5 -170.5t-135.5 -91t-158.5 -27q-60 0 -105.5 7t-91.5 26v-418h-172 v418q-46 -19 -92 -26t-105 -7q-82 0 -158.5 27t-135.5 91t-94.5 170.5t-35.5 264.5z"/>
<glyph glyph-name="afii10087" horiz-adv-x="1041" unicode="х" d="M60 0q31 77 72 148.5t87.5 138.5t97.5 130.5t102 125.5q-49 59 -97 119.5t-92 125t-82.5 132.5t-69.5 142h179q42 -105 111.5 -202.5t151.5 -196.5q82 100 152 197.5t112 201.5h179q-31 -74 -70 -142.5t-83 -132.5t-92 -125t-97 -120q51 -62 102 -125.5t98 -130.5 t87.5 -138t72.5 -148h-176q-50 112 -124.5 215.5t-160.5 206.5q-85 -103 -160 -206.5t-124 -215.5h-176z"/>
<glyph glyph-name="afii10088" horiz-adv-x="1119" unicode="ц" d="M135 0v1062h172v-907h481v907h172v-907h149v-386h-172v231h-802z"/>
<glyph glyph-name="afii10089" horiz-adv-x="1080" unicode="ч" d="M120 682v380h172v-349q0 -58 10 -101.5t35.5 -72t68.5 -43t108 -14.5q42 0 81 7.5t73 22t60.5 36t44.5 48.5v466h172v-1062h-172v429q-61 -47 -131.5 -72t-168.5 -25q-168 0 -260.5 89t-92.5 261z"/>
<glyph glyph-name="afii10090" horiz-adv-x="1520" unicode="ш" d="M135 0v1062h172v-907h367v907h172v-907h367v907h172v-1062h-1250z"/>
<glyph glyph-name="afii10091" horiz-adv-x="1544" unicode="щ" d="M135 0v1062h172v-907h367v907h172v-907h367v907h172v-907h149v-387h-172v232h-1227z"/>
<glyph glyph-name="afii10092" horiz-adv-x="1050" unicode="ъ" d="M348 155h269q42 0 77.5 8t61.5 27t40.5 50.5t14.5 78.5q0 49 -18 82t-49 53.5t-72 29t-87 8.5q-69 0 -129.5 -7t-107.5 -16v-314zM-30 907v155h378v-438q48 10 110 16.5t132 6.5q94 0 168.5 -21t126 -61.5t78.5 -100.5t27 -138q0 -75 -22.5 -135.5t-68.5 -103t-116.5 -65 t-165.5 -22.5h-441v907h-206z"/>
<glyph glyph-name="afii10093" horiz-adv-x="1370" unicode="ы" d="M1063 0v1062h172v-1062h-172zM307 155h239q42 0 77.5 8t61.5 27t40.5 50.5t14.5 78.5q0 49 -15 82t-42 53.5t-65 29t-84 8.5q-69 0 -124.5 -7t-102.5 -16v-314zM135 0v1062h172v-438q48 10 105 16.5t127 6.5q189 0 284.5 -82t95.5 -239q0 -75 -22.5 -135.5t-68.5 -103 t-116.5 -65t-165.5 -22.5h-411z"/>
<glyph glyph-name="afii10094" horiz-adv-x="1009" unicode="ь" d="M307 155h269q42 0 77.5 8t61.5 27t40.5 50.5t14.5 78.5q0 49 -18 82t-49 53.5t-72 29t-87 8.5q-69 0 -129.5 -7t-107.5 -16v-314zM135 0v1062h172v-438q48 10 110 16.5t132 6.5q94 0 168.5 -21t126 -61.5t78.5 -100.5t27 -138q0 -75 -22.5 -135.5t-68.5 -103t-116.5 -65 t-165.5 -22.5h-441z"/>
<glyph glyph-name="afii10095" horiz-adv-x="958" unicode="э" d="M90 2v151q49 -11 110.5 -18t141.5 -7q74 0 134 15.5t103 53.5t69 103.5t32 166.5h-467v155h464q-9 84 -34 143t-66 96.5t-97.5 55t-127.5 17.5q-78 0 -143 -8t-119 -22v158q64 10 124.5 16t137.5 6q131 0 226.5 -38t158 -109.5t92 -174t29.5 -231.5q0 -283 -127 -418 t-389 -135q-39 0 -71.5 1.5t-61.5 4.5t-58 7.5t-61 10.5z"/>
<glyph glyph-name="afii10096" horiz-adv-x="1515" unicode="ю" d="M687 531q0 -96 14 -171t46.5 -126.5t86 -78.5t133.5 -27t134 27t86.5 78.5t46 126.5t13.5 171t-13.5 171t-46 126.5t-86.5 78.5t-134 27t-133.5 -27t-86 -78.5t-46.5 -126.5t-14 -171zM135 1v1061h174v-436h204q8 97 36 181t82 145.5t136.5 96.5t199.5 35 q130 0 218 -43.5t141 -118.5t76 -175.5t23 -215.5t-23 -215.5t-76 -175.5t-141 -118.5t-218 -43.5q-124 0 -209 39t-138.5 106.5t-79.5 159t-30 197.5h-201v-479h-174z"/>
<glyph glyph-name="afii10097" horiz-adv-x="1060" unicode="я" d="M290 731q0 -46 18 -80t49.5 -56t75.5 -33t95 -11q30 0 57.5 2t54.5 6.5t54.5 12t58.5 19.5v315h-248q-58 0 -99 -13.5t-66.5 -37.5t-37.5 -56t-12 -68zM50 0q30 76 69.5 141t84.5 119t94.5 96.5t100.5 71.5q-64 11 -116.5 37t-90.5 65.5t-59 91.5t-21 115q0 89 32.5 151 t88 100.5t129 56t156.5 17.5h407v-1062h-172v437q-76 -17 -146.5 -48.5t-135.5 -83.5t-125.5 -127t-116.5 -178h-179z"/>
<glyph glyph-name="afii10071" horiz-adv-x="1139" unicode="ё" d="M648 1269v197h182v-197h-182zM320 1269v197h182v-197h-182zM277 642h588q-15 146 -89.5 219t-204.5 73q-60 0 -111 -19t-89 -56t-62.5 -91.5t-31.5 -125.5zM91 522q0 132 32 236t93.5 176.5t150.5 111t204 38.5q118 0 208 -38.5t150 -110t90.5 -173.5t30.5 -229v-41h-777 q0 -186 81 -275t257 -89q60 0 108 3.5t91 11t86 19.5t94 29v-157q-45 -13 -88.5 -23t-89 -17.5t-95 -11.5t-106.5 -4q-138 0 -236.5 37t-161.5 107.5t-92.5 171t-29.5 228.5z"/>
<glyph glyph-name="afii10099" horiz-adv-x="1128" unicode="ђ" d="M-14 1229v155h169v82h172v-82h179v-155h-179v-242q24 19 53.5 36.5t65 31t77 21.5t91.5 8q87 0 162.5 -30t131.5 -96.5t88 -171.5t32 -255q0 -90 -12 -189t-30.5 -196t-42 -185t-45.5 -155h-183q21 63 45 149.5t44 184t33 199t13 192.5q0 113 -17.5 190t-51 124.5 t-83.5 68t-115 20.5q-58 0 -102 -12.5t-75 -30.5t-50.5 -37.5t-28.5 -33.5v-820h-172v1229h-169z"/>
<glyph glyph-name="afii10100" horiz-adv-x="759" unicode="ѓ" d="M189 1177l158 289h223l-187 -289h-194zM135 0v1062h624v-155h-452v-907h-172z"/>
<glyph glyph-name="afii10101" horiz-adv-x="958" unicode="є" d="M100 531q0 129 30 231t92 174t158 110t226 38q78 0 138 -6t124 -16v-158q-54 14 -119 22t-143 8q-72 0 -128 -18t-97 -54q-41 -38 -66 -97t-34 -143h464v-155h-467q6 -101 32 -167t69 -103t103 -53t134 -16q80 0 142 7t110 18v-151q-32 -6 -61 -10l-58 -8q-29 -2 -61 -4 t-72 -2q-262 0 -389 135t-127 418z"/>
<glyph glyph-name="afii10102" horiz-adv-x="901" unicode="ѕ" d="M81 783q0 73 28.5 129.5t80 94.5t124 57.5t159.5 19.5q90 0 154.5 -11.5t115.5 -27.5v-151q-66 19 -129.5 29.5t-140.5 10.5q-55 0 -97 -7t-70 -24.5t-40.5 -44.5t-12.5 -64v-11q2 -42 27.5 -68t65.5 -43t91 -29.5t104 -28.5t103.5 -39t90 -61t63.5 -94.5t24 -140.5 q0 -74 -28.5 -130t-80.5 -94t-124 -57.5t-160 -19.5q-46 0 -93.5 4t-92 10.5t-82 15.5t-63.5 20v156q60 -22 142 -39t189 -17q57 0 98.5 7t69 24.5t40.5 46.5t13 73q0 57 -24.5 92.5t-64.5 58t-91 37t-104.5 29t-104.5 33t-91 50.5t-64.5 80.5t-24.5 123.5z"/>
<glyph glyph-name="afii10103" horiz-adv-x="442" unicode="і" d="M135 1259v207h172v-207h-172zM135 0v1062h172v-1062h-172z"/>
<glyph glyph-name="afii10104" horiz-adv-x="442" unicode="ї" d="M295 1269v197h182v-197h-182zM135 0v1062h172v-1062h-172zM-33 1269v197h182v-197h-182z"/>
<glyph glyph-name="afii10105" horiz-adv-x="442" unicode="ј" d="M135 1257v209h172v-209h-172zM-154 -264q26 -5 49.5 -9t49.5 -4q45 0 80.5 9.5t60 35t37 71.5t12.5 118v1105h172v-1105q0 -116 -27.5 -190.5t-74.5 -117.5t-110.5 -59t-136.5 -16q-26 0 -55 2t-57 6v154z"/>
<glyph glyph-name="afii10106" horiz-adv-x="1627" unicode="љ" d="M925 155h269q42 0 77.5 8t61.5 27t40.5 50.5t14.5 78.5q0 49 -18 82t-49 53.5t-72 29t-87 8.5q-69 0 -129.5 -7t-107.5 -16v-314zM40 -22v148q34 1 65.5 15.5t59 51.5t50 102.5t38.5 169t24.5 250.5t8.5 347h639v-438q48 10 110 16.5t132 6.5q94 0 168.5 -21t126 -61.5 t78.5 -100.5t27 -138q0 -75 -22.5 -135.5t-68.5 -103t-116.5 -65t-165.5 -22.5h-441v907h-300q-4 -208 -22 -357.5t-46.5 -252.5t-66.5 -166t-82.5 -97t-94 -45t-101.5 -11z"/>
<glyph glyph-name="afii10107" horiz-adv-x="1662" unicode="њ" d="M960 155h269q42 0 77.5 8t61.5 27t40.5 50.5t14.5 78.5q0 49 -18 82t-49 53.5t-72 29t-87 8.5q-69 0 -129.5 -7t-107.5 -16v-314zM135 0v1062h172v-439h481v439h172v-438q48 10 110 16.5t132 6.5q94 0 168.5 -21t126 -61.5t78.5 -100.5t27 -138q0 -75 -22.5 -135.5 t-68.5 -103t-116.5 -65t-165.5 -22.5h-441v468h-481v-468h-172z"/>
<glyph glyph-name="afii10108" horiz-adv-x="1095" unicode="ћ" d="M-1 1229v155h136v82h172v-82h212v-155h-212v-263q18 25 47.5 46.5t68 37.5t85 25t99.5 9q84 0 149.5 -24t110.5 -69.5t69 -111.5t24 -150v-729h-172v703q0 58 -10 101t-35 72t-67 43.5t-106 14.5q-54 0 -102 -14.5t-84 -42.5t-56.5 -70t-20.5 -96v-711h-172v1229h-136z "/>
<glyph glyph-name="afii10109" horiz-adv-x="979" unicode="ќ" d="M299 1177l158 289h223l-187 -289h-194zM135 0v1062h172v-421q82 1 150 36t122 93t95 133.5t68 158.5h178q-18 -63 -48.5 -128t-71.5 -126t-92 -115.5t-110 -96.5q129 -112 228.5 -259.5t152.5 -336.5h-176q-33 93 -71 169.5t-82.5 139.5t-94.5 114.5t-106 94.5 q-35 -11 -70 -17.5t-72 -7.5v-493h-172z"/>
<glyph glyph-name="afii10110" horiz-adv-x="1073" unicode="ў" d="M249 1466h152q6 -39 21.5 -63t38 -37.5t50.5 -18.5t60 -5q31 0 59.5 5t51 18.5t38 37.5t21.5 63h152q-7 -58 -33 -105t-68 -80t-98.5 -51t-124.5 -18q-67 0 -122.5 18t-97 51t-67.5 80t-33 105zM80 1062h172q12 -83 43.5 -188t75.5 -220.5t96 -235t103 -229.5 q50 114 94 233.5t79.5 233.5t60.5 218t37 188h172q-9 -61 -27.5 -142t-45.5 -174t-59.5 -192.5t-69 -197.5t-75 -189.5t-75.5 -166.5q-42 -84 -86.5 -161t-97.5 -136.5t-117.5 -94.5t-146.5 -35q-5 0 -18 0.5t-28.5 2.5t-33 6t-31.5 11v155q16 -8 33 -12t32 -6t26 -2.5 t16 -0.5q38 0 71.5 14.5t65.5 47t65 84.5t71 127q-40 76 -82.5 167t-84.5 189t-80.5 198t-70 192.5t-54 174t-30.5 141.5z"/>
<glyph glyph-name="afii10193" horiz-adv-x="1085" unicode="џ" d="M135 0v1062h172v-907h471v907h172v-1062h-313v-216h-172v216h-330z"/>
<glyph glyph-name="afii10050" horiz-adv-x="1050" unicode="Ґ" d="M150 0v1466h728v216h172v-388h-714v-1294h-186z"/>
<glyph glyph-name="afii10098" horiz-adv-x="779" unicode="ґ" d="M135 0v1062h452v194h172v-349h-452v-907h-172z"/>
<glyph glyph-name="uni2002" horiz-adv-x="935" unicode=" "/>
<glyph glyph-name="uni2003" horiz-adv-x="1870" unicode=" "/>
<glyph glyph-name="uni2009" horiz-adv-x="374" unicode=" "/>
<glyph glyph-name="endash" horiz-adv-x="837" unicode="–" d="M0 485v147h837v-147h-837z"/>
<glyph glyph-name="emdash" horiz-adv-x="1323" unicode="—" d="M0 485v147h1323v-147h-1323z"/>
<glyph glyph-name="quoteleft" horiz-adv-x="479" unicode="‘" d="M135 971v205q0 101 37 172q41 80 124 118l48 -77q-56 -25 -83 -73.5t-27 -139.5h98v-205h-197z"/>
<glyph glyph-name="quotesinglbase" horiz-adv-x="479" unicode="‚" d="M135 -213q56 25 83 73.5t27 139.5h-98v205h197v-205q0 -101 -37 -172q-41 -80 -124 -118z"/>
<glyph glyph-name="quotedblleft" horiz-adv-x="829" unicode="“" d="M485 971v205q0 101 37 172q41 80 124 118l48 -77q-56 -25 -83 -73.5t-27 -139.5h98v-205h-197zM135 971v205q0 101 37 172q41 80 124 118l48 -77q-56 -25 -83 -73.5t-27 -139.5h98v-205h-197z"/>
<glyph glyph-name="quotedblright" horiz-adv-x="829" unicode="”" d="M485 1048q56 25 83 73.5t27 139.5h-98v205h197v-205q0 -101 -37 -172q-41 -80 -124 -118zM135 1048q56 25 83 73.5t27 139.5h-98v205h197v-205q0 -101 -37 -172q-41 -80 -124 -118z"/>
<glyph glyph-name="ellipsis" horiz-adv-x="1397" unicode="…" d="M1066 0v205h196v-205h-196zM601 0v205h196v-205h-196zM135 0v205h196v-205h-196z"/>
<glyph glyph-name="guilsinglleft" horiz-adv-x="587" unicode="‹" d="M60 528l282 456h175l-254 -456l254 -456h-175z"/>
<glyph glyph-name="guilsinglright" horiz-adv-x="587" unicode="›" d="M70 72l254 456l-254 456h175l282 -456l-282 -456h-175z"/>
<glyph glyph-name="Euro" horiz-adv-x="1168" unicode="€" d="M50 529l30 145h106q-1 17 -1 39.5v69.5h-135l30 145h118q21 134 72 238.5t126.5 176t172 108.5t209.5 37q169 0 300 -71l-37 -195q-52 54 -118.5 83t-144.5 29q-71 0 -133 -25t-111.5 -76t-84.5 -127t-51 -178h584l-27 -145h-570v-69.5t1 -39.5h548l-28 -145h-504 q35 -196 131.5 -296.5t244.5 -100.5q91 0 154 25.5t108 71.5v-198q-57 -26 -122 -39.5t-140 -13.5q-116 0 -212 36.5t-169.5 107t-123 173t-71.5 234.5h-152z"/>
<glyph glyph-name="trademark" horiz-adv-x="1495" unicode="™" d="M698 732v734h121q70 -96 123.5 -196.5t91.5 -206.5q40 107 94 206.5t124 196.5h123v-734h-121v527q-52 -84 -91 -179.5t-77 -200.5h-104q-34 105 -71.5 198t-93.5 182v-527h-119zM74 1350v116h566v-116h-222v-618h-123v618h-221z"/>
</font>
</defs>
</svg>
